/* XPM */
static char * blend_xpm[] = {
"24 24 342 2",
"  	c None",
". 	c #AAACA8",
"+ 	c #9EA09C",
"@ 	c #AEB0AC",
"# 	c #787A74",
"$ 	c #A6A8A4",
"% 	c #B3B5B2",
"& 	c #CBCCCA",
"* 	c #E0E0DF",
"= 	c #D6D6D5",
"- 	c #DBDBDA",
"; 	c #E3E3E3",
"> 	c #CFD0CE",
", 	c #C5C5C4",
"' 	c #EBEBEB",
") 	c #E4E4E3",
"! 	c #DDDEDD",
"~ 	c #CCCDCB",
"{ 	c #D3D3D1",
"] 	c #DDDDDC",
"^ 	c #CFCFCE",
"/ 	c #82847E",
"( 	c #DDE0DA",
"_ 	c #7A7C78",
": 	c #B4B5B2",
"< 	c #E3E3E2",
"[ 	c #CECECC",
"} 	c #D4D4D3",
"| 	c #DEDEDD",
"1 	c #CECFCD",
"2 	c #BEC2BC",
"3 	c #E0E1DD",
"4 	c #7E807A",
"5 	c #E4E5E3",
"6 	c #D3D3D2",
"7 	c #D8D8D6",
"8 	c #CDCECC",
"9 	c #828680",
"0 	c #ADAEAA",
"a 	c #CED0CE",
"b 	c #D0D1CF",
"c 	c #CDCFCD",
"d 	c #D3D4D2",
"e 	c #D3D5D1",
"f 	c #C9CBC6",
"g 	c #BABAB6",
"h 	c #E6E7E6",
"i 	c #D8D8D7",
"j 	c #C7C8C5",
"k 	c #CCCDCA",
"l 	c #888C86",
"m 	c #C4C6C3",
"n 	c #E6E6E5",
"o 	c #DBDCDA",
"p 	c #D5D6D5",
"q 	c #D6D7D6",
"r 	c #E5E6E5",
"s 	c #E3E4E1",
"t 	c #E2E3E0",
"u 	c #F1F2F1",
"v 	c #C4C6C2",
"w 	c #CDCFCC",
"x 	c #E5E6E4",
"y 	c #D6D6D4",
"z 	c #C2C2C1",
"A 	c #D0D0CF",
"B 	c #CACBC9",
"C 	c #7C7E78",
"D 	c #BCBEBB",
"E 	c #E9EAE9",
"F 	c #DCDDDA",
"G 	c #D7D8D5",
"H 	c #D2D3D0",
"I 	c #C9CAC8",
"J 	c #E1E1DF",
"K 	c #E3E5E1",
"L 	c #E6E7E4",
"M 	c #F5F5F5",
"N 	c #BCBEBC",
"O 	c #BDBEBB",
"P 	c #A4A5A2",
"Q 	c #D9DAD8",
"R 	c #DADCD9",
"S 	c #D7D8D6",
"T 	c #D1D2D0",
"U 	c #CBCBCA",
"V 	c #D3D4D3",
"W 	c #DCDDDB",
"X 	c #E0E2DF",
"Y 	c #E0E1DF",
"Z 	c #B8B9B6",
"` 	c #C8C9C6",
" .	c #C7C9C6",
"..	c #A0A19D",
"+.	c #DFE0DE",
"@.	c #DDDDD9",
"#.	c #DBD6CF",
"$.	c #CAB7A4",
"%.	c #C2AD98",
"&.	c #C1AC98",
"*.	c #C8B6A5",
"=.	c #D1CBC1",
"-.	c #DDE0DB",
";.	c #DADBD9",
">.	c #C9CBC8",
",.	c #DEDEDC",
"'.	c #B3B4B1",
").	c #C3C3C1",
"!.	c #B1B3B0",
"~.	c #858884",
"{.	c #929390",
"].	c #BCBDBA",
"^.	c #CFCCC5",
"/.	c #CCBBA6",
"(.	c #F6D2A8",
"_.	c #F0AA53",
":.	c #F09E35",
"<.	c #EF9C35",
"[.	c #EC9B37",
"}.	c #E3AE70",
"|.	c #DECBB4",
"1.	c #D8B594",
"2.	c #C7C8C6",
"3.	c #B0B1AE",
"4.	c #ADAFAB",
"5.	c #C4C4C3",
"6.	c #E3E4E3",
"7.	c #D9DAD7",
"8.	c #D8D6D1",
"9.	c #E2DFD9",
"0.	c #C0B7AB",
"a.	c #E0B683",
"b.	c #F9A33D",
"c.	c #F89723",
"d.	c #F09A3A",
"e.	c #EBA354",
"f.	c #E4811B",
"g.	c #CCB398",
"h.	c #D8D9D7",
"i.	c #C3C4C2",
"j.	c #AEAFAC",
"k.	c #E8E9E8",
"l.	c #DDDBD7",
"m.	c #DBD4CB",
"n.	c #CEBAA3",
"o.	c #F2B775",
"p.	c #F8982E",
"q.	c #F68A14",
"r.	c #F68B16",
"s.	c #F38614",
"t.	c #EC8213",
"u.	c #DE7611",
"v.	c #C8AC93",
"w.	c #C4C6C5",
"x.	c #AEBDCF",
"y.	c #91A9C5",
"z.	c #7693B5",
"A.	c #8CA1B9",
"B.	c #B3B5B3",
"C.	c #C1C2C0",
"D.	c #CDCECB",
"E.	c #C9C1B8",
"F.	c #D0BFAE",
"G.	c #BE9A75",
"H.	c #F6A85B",
"I.	c #F58C20",
"J.	c #F07E0A",
"K.	c #EC7A0A",
"L.	c #E77609",
"M.	c #DE6D06",
"N.	c #D66301",
"O.	c #D15E00",
"P.	c #C7AB92",
"Q.	c #B0BBC4",
"R.	c #8BABD2",
"S.	c #96B6DA",
"T.	c #7DA5D1",
"U.	c #5D89BD",
"V.	c #8F9BA7",
"W.	c #B7B9B6",
"X.	c #BDB0A1",
"Y.	c #D0BCA9",
"Z.	c #CAA581",
"`.	c #F29844",
" +	c #F38011",
".+	c #EE7400",
"++	c #E86F00",
"@+	c #DF6A02",
"#+	c #D56707",
"$+	c #D26203",
"%+	c #C6AA91",
"&+	c #9EABB9",
"*+	c #7197C5",
"=+	c #86AAD2",
"-+	c #5E8ABE",
";+	c #476FA1",
">+	c #AAB3BC",
",+	c #D3D7CF",
"'+	c #CDD2C7",
")+	c #A3A779",
"!+	c #B1AC7D",
"~+	c #C0AD94",
"{+	c #C7884A",
"]+	c #F37D0C",
"^+	c #D86A07",
"/+	c #CC6A14",
"(+	c #CF6205",
"_+	c #C5AA91",
":+	c #668FC1",
"<+	c #7AA2CE",
"[+	c #4E7DB5",
"}+	c #7892B3",
"|+	c #B3D29B",
"1+	c #C1D7AB",
"2+	c #B8DF91",
"3+	c #80D02F",
"4+	c #7CC92A",
"5+	c #9ECA5E",
"6+	c #AEA074",
"7+	c #CD7219",
"8+	c #CD6B12",
"9+	c #C76D1E",
"0+	c #D06204",
"a+	c #C4A990",
"b+	c #9DAAB8",
"c+	c #628CBF",
"d+	c #759FCC",
"e+	c #5C7DA1",
"f+	c #81A37A",
"g+	c #8BCF49",
"h+	c #D0F2AF",
"i+	c #B5E884",
"j+	c #83D92E",
"k+	c #7FD62A",
"l+	c #74C726",
"m+	c #A3C36C",
"n+	c #D69B61",
"o+	c #EA7302",
"p+	c #DA6D07",
"q+	c #CB7930",
"r+	c #CC7B32",
"s+	c #CB6207",
"t+	c #C4A98F",
"u+	c #9DAAB7",
"v+	c #719AC7",
"w+	c #8DA2B6",
"x+	c #9BC37F",
"y+	c #AADD78",
"z+	c #D1EFB4",
"A+	c #B5E982",
"B+	c #82D333",
"C+	c #75C626",
"D+	c #61B116",
"E+	c #5AA312",
"F+	c #A7A467",
"G+	c #CA6E15",
"H+	c #D66C09",
"I+	c #C37A39",
"J+	c #BF7839",
"K+	c #C5610D",
"L+	c #D4945E",
"M+	c #AEAAA2",
"N+	c #9CA9B7",
"O+	c #5885BB",
"P+	c #6D93BB",
"Q+	c #95AEA0",
"R+	c #8BB962",
"S+	c #CBECAB",
"T+	c #BDE19B",
"U+	c #A0E063",
"V+	c #77CB25",
"W+	c #6CBE1C",
"X+	c #5FAF13",
"Y+	c #54A10B",
"Z+	c #9AB462",
"`+	c #B98251",
" @	c #CF7F3A",
".@	c #BA8252",
"+@	c #B59171",
"@@	c #B7997D",
"#@	c #9E9E98",
"$@	c #7E827C",
"%@	c #787A76",
"&@	c #9BA8B5",
"*@	c #5482B9",
"=@	c #678DB5",
"-@	c #95B196",
";@	c #6AA431",
">@	c #94C269",
",@	c #94CA60",
"'@	c #89D341",
")@	c #73C622",
"!@	c #69BA1A",
"~@	c #5DAD12",
"{@	c #529F09",
"]@	c #7CB04B",
"^@	c #8A8C89",
"/@	c #8E918D",
"(@	c #8A8D88",
"_@	c #8C8E8A",
":@	c #9A9D99",
"<@	c #BDC7D2",
"[@	c #638AB9",
"}@	c #5981AE",
"|@	c #8DA59B",
"1@	c #69B028",
"2@	c #6BBC1C",
"3@	c #73C425",
"4@	c #73C523",
"5@	c #6CBE1D",
"6@	c #64B417",
"7@	c #5AA80F",
"8@	c #509D07",
"9@	c #92BA6D",
"0@	c #929290",
"a@	c #767A72",
"b@	c #ACADA9",
"c@	c #9CA3A8",
"d@	c #8E9BA7",
"e@	c #9EA3A4",
"f@	c #8AAE68",
"g@	c #66AE21",
"h@	c #65B618",
"i@	c #68B91A",
"j@	c #65B617",
"k@	c #5DAC11",
"l@	c #55A10C",
"m@	c #85B25A",
"n@	c #8C9484",
"o@	c #909490",
"p@	c #7D8E6C",
"q@	c #81A55E",
"r@	c #6DA33B",
"s@	c #669E30",
"t@	c #709E43",
"u@	c #79955F",
"v@	c #969991",
"w@	c #525250",
"x@	c #70706E",
"y@	c #6A6C69",
"z@	c #666664",
"A@	c #727270",
"        . + + @                                 ",
"# $ % & * = - ; > $                             ",
"  , ' ) ! ~ { ] ^ /                       (     ",
"  _ : < - [ } | 1                       2 3     ",
"    4 1 5 6 & 7 8   9 0 8 & a b 8 c b d e f g   ",
"      1 h i j } k l m ' n ) o p 8 8 q r s t u v ",
"      w x y z A B C D E F G H > I B d J K L M N ",
"      ~ < 6 O k I   P < Q R S T B U V W X F 1   ",
"      & Y > Z `  .  ..+.R @.#.$.%.&.*.=.-.;.a   ",
"      >.,.& '.).!.~.{.].^./.(._.:.<.[.}.|.1.8   ",
"      ` - 2.3.4.5.6.7.8.9.0.a.b.c.c.c.d.e.f.g.  ",
"      j h.i.j.: A k.d l.m.n.o.p.q.q.r.s.t.u.v.  ",
"      w.x.y.z.A.B.C.D.E.F.G.H.I.J.K.L.M.N.O.P.  ",
"      Q.R.S.T.U.V.W.D.X.Y.Z.`. +.+++@+#+$+O.%+  ",
"      &+*+=+-+;+>+,+'+)+!+~+{+]+.+++^+/+(+O._+  ",
"      &+:+<+[+}+|+1+2+3+4+5+6+7+.+++8+9+0+O.a+  ",
"      b+c+d+e+f+g+h+i+j+k+l+m+n+o+p+q+r+s+O.t+  ",
"      u+U.v+w+x+y+z+A+B+C+D+E+F+G+H+I+J+K+L+M+  ",
"      N+O+P+Q+R+S+T+U+V+W+X+Y+Z+`+ @.@+@@@#@$@  ",
"    %@&@*@=@-@;@>@,@'@)@!@~@{@]@^@/@(@_@        ",
"    :@<@[@}@|@1@2@3@4@5@6@7@8@9@0@              ",
"    a@b@c@d@e@f@g@h@i@j@k@l@m@n@                ",
"              o@p@q@r@s@t@u@v@w@                ",
"                  x@y@z@A@                      "};
