/* XPM */
static char * camera_xpm[] = {
"50 44 857 2",
"  	c None",
". 	c #CACACA",
"+ 	c #B8B8B8",
"@ 	c #B6B6B6",
"# 	c #C9C9C9",
"$ 	c #E3E3E3",
"% 	c #E1E1E1",
"& 	c #CFCFCF",
"* 	c #BABABA",
"= 	c #B4B4B6",
"- 	c #C8C8CA",
"; 	c #878789",
"> 	c #6A6A6C",
", 	c #767678",
"' 	c #78787A",
") 	c #6D6D6F",
"! 	c #878787",
"~ 	c #D0D0D0",
"{ 	c #959595",
"] 	c #6F6F6F",
"^ 	c #707070",
"/ 	c #808082",
"( 	c #7A7A7C",
"_ 	c #727274",
": 	c #6E6E70",
"< 	c #7E7E80",
"[ 	c #C4C4C6",
"} 	c #9A9A9A",
"| 	c #656567",
"1 	c #98989A",
"2 	c #CBCBCD",
"3 	c #EAEAEC",
"4 	c #FDFDFF",
"5 	c #E7E7E9",
"6 	c #D0D0D2",
"7 	c #919193",
"8 	c #68686A",
"9 	c #99999B",
"0 	c #ABABAD",
"a 	c #6D6D6D",
"b 	c #858585",
"c 	c #C9C9CB",
"d 	c #EBEBED",
"e 	c #F6F6F8",
"f 	c #F8F8FA",
"g 	c #EEEEF0",
"h 	c #D1D1D3",
"i 	c #9D9D9F",
"j 	c #69696B",
"k 	c #8F8F91",
"l 	c #999999",
"m 	c #C7C7C9",
"n 	c #F9F9FB",
"o 	c #FFFFFF",
"p 	c #F1F1F3",
"q 	c #FBFBFD",
"r 	c #CACACC",
"s 	c #969698",
"t 	c #A2A2A4",
"u 	c #BBBBBD",
"v 	c #F7F7F9",
"w 	c #F3F3F5",
"x 	c #F7F6FB",
"y 	c #F4F3F8",
"z 	c #FDFCFF",
"A 	c #747476",
"B 	c #89898B",
"C 	c #AFAFAF",
"D 	c #6A6A6A",
"E 	c #CECECE",
"F 	c #FEFFFF",
"G 	c #EAEBEF",
"H 	c #E3E4E8",
"I 	c #E7E8EC",
"J 	c #E0E1E5",
"K 	c #E4E5E9",
"L 	c #E5E6EA",
"M 	c #EDEEF0",
"N 	c #FCFDFF",
"O 	c #CBCCCE",
"P 	c #6A6B6D",
"Q 	c #B6B7B9",
"R 	c #C4C5C7",
"S 	c #67686A",
"T 	c #C3C4C6",
"U 	c #FAFBFD",
"V 	c #F1F2F4",
"W 	c #E6E7E9",
"X 	c #DEDFE3",
"Y 	c #E2E3E7",
"Z 	c #E6E7EB",
"` 	c #EAE9EE",
" .	c #DDDCE1",
"..	c #6F6F71",
"+.	c #E4E4E4",
"@.	c #747474",
"#.	c #ADADAD",
"$.	c #E1E2E6",
"%.	c #D3D4D8",
"&.	c #BABBBF",
"*.	c #A8A9AD",
"=.	c #A9AAAE",
"-.	c #BFC0C4",
";.	c #D6D7DB",
">.	c #DCDDDF",
",.	c #E9EAEC",
"'.	c #FBFCFE",
").	c #A9AAAC",
"!.	c #747577",
"~.	c #6C6D6F",
"{.	c #A0A1A3",
"].	c #ECEDEF",
"^.	c #DBDCE0",
"/.	c #DADBDF",
"(.	c #C2C3C7",
"_.	c #AAABAF",
":.	c #A7A8AC",
"<.	c #BBBCC0",
"[.	c #D2D3D8",
"}.	c #E1E0E5",
"|.	c #E6E5EA",
"1.	c #BDBCC1",
"2.	c #656469",
"3.	c #DCDCDE",
"4.	c #E5E5E5",
"5.	c #EEEEEE",
"6.	c #C9CACE",
"7.	c #A1A2A6",
"8.	c #929397",
"9.	c #A2A3A7",
"0.	c #999A9E",
"a.	c #8D8E92",
"b.	c #CFD0D2",
"c.	c #DADBDD",
"d.	c #E4E5E7",
"e.	c #D7D8DA",
"f.	c #F0F1F3",
"g.	c #D1D2D6",
"h.	c #A0A1A5",
"i.	c #9A9B9F",
"j.	c #9D9EA2",
"k.	c #919297",
"l.	c #999A9F",
"m.	c #C8C7CC",
"n.	c #D7D6DB",
"o.	c #E9E8ED",
"p.	c #EFEEF3",
"q.	c #7E7D82",
"r.	c #A4A4A6",
"s.	c #969696",
"t.	c #8E8F91",
"u.	c #F3F4F6",
"v.	c #DFE0E2",
"w.	c #A5A6AA",
"x.	c #97989C",
"y.	c #B2B3B7",
"z.	c #C0C1C5",
"A.	c #B9BABF",
"B.	c #B4B5BA",
"C.	c #929398",
"D.	c #CECFD3",
"E.	c #DEDFE1",
"F.	c #929395",
"G.	c #828385",
"H.	c #CFD0D4",
"I.	c #B1B2B6",
"J.	c #95969A",
"K.	c #B0B1B5",
"L.	c #C1C2C6",
"M.	c #B9BABE",
"N.	c #B6B7BB",
"O.	c #919296",
"P.	c #A1A2A7",
"Q.	c #CFD0D5",
"R.	c #DBDCE1",
"S.	c #A2A1A6",
"T.	c #838385",
"U.	c #7C7C7C",
"V.	c #A3A4A6",
"W.	c #F2F3F5",
"X.	c #D2D3D5",
"Y.	c #C3C4C8",
"Z.	c #9B9CA0",
"`.	c #B5B6BB",
" +	c #BBBCC1",
".+	c #A2A3A8",
"++	c #98999D",
"@+	c #D6D7D9",
"#+	c #9A9B9D",
"$+	c #919294",
"%+	c #F0F1F5",
"&+	c #D5D6DA",
"*+	c #C8C9CD",
"=+	c #9C9DA1",
"-+	c #B4B5B9",
";+	c #8E8F94",
">+	c #BFC0C5",
",+	c #D0D1D6",
"'+	c #F0EFF4",
")+	c #A7A6AB",
"!+	c #828284",
"~+	c #888888",
"{+	c #9B9C9E",
"]+	c #EEEFF1",
"^+	c #CCCDCF",
"/+	c #ACADB1",
"(+	c #AFB0B5",
"_+	c #B1B2B7",
":+	c #A0A1A6",
"<+	c #98999B",
"[+	c #8F9092",
"}+	c #EDEEF2",
"|+	c #BEBFC3",
"1+	c #B5B6BA",
"2+	c #AFB0B4",
"3+	c #AEAFB3",
"4+	c #96979C",
"5+	c #CACBCF",
"6+	c #ABAAAF",
"7+	c #898A8C",
"8+	c #E7E8EA",
"9+	c #D4D5D7",
"0+	c #A3A4A8",
"a+	c #96979B",
"b+	c #ADAEB3",
"c+	c #94959A",
"d+	c #7F8082",
"e+	c #D8D9DD",
"f+	c #BCBDC1",
"g+	c #ADAEB2",
"h+	c #ABACB0",
"i+	c #9D9EA3",
"j+	c #E5E4E9",
"k+	c #868688",
"l+	c #B7B7B7",
"m+	c #949599",
"n+	c #95969B",
"o+	c #9A9BA0",
"p+	c #D5D6D8",
"q+	c #939498",
"r+	c #B3B4B8",
"s+	c #B7B8BC",
"t+	c #E2E1E6",
"u+	c #757577",
"v+	c #ADADAF",
"w+	c #757678",
"x+	c #CDCED2",
"y+	c #9E9FA4",
"z+	c #A4A5AA",
"A+	c #B2B3B8",
"B+	c #D0D1D5",
"C+	c #E5E6E8",
"D+	c #6B6C6E",
"E+	c #797A7C",
"F+	c #B8B9BD",
"G+	c #9FA0A4",
"H+	c #A4A5A9",
"I+	c #A6A6A8",
"J+	c #6C6C6E",
"K+	c #E2E2E4",
"L+	c #B8B9BB",
"M+	c #B2B3B5",
"N+	c #BDBEC2",
"O+	c #B7B8BD",
"P+	c #666769",
"Q+	c #C5C6C8",
"R+	c #616266",
"S+	c #A7A8AA",
"T+	c #A6A7AB",
"U+	c #D9DADE",
"V+	c #CCCDD1",
"W+	c #CACBD0",
"X+	c #DFE0E5",
"Y+	c #A8A9AB",
"Z+	c #68696D",
"`+	c #D2D3D7",
" @	c #CBCCD0",
".@	c #DDDEE2",
"+@	c #DCDDE1",
"@@	c #6E6F73",
"#@	c #D6D6D8",
"$@	c #8B8B8D",
"%@	c #858489",
"&@	c #A8A7AC",
"*@	c #BFBEC3",
"=@	c #CAC9CE",
"-@	c #C7C6CB",
";@	c #838287",
">@	c #6B6A6F",
",@	c #908F94",
"'@	c #D6D5DA",
")@	c #D8D7DC",
"!@	c #D9D8DD",
"~@	c #99989D",
"{@	c #66656A",
"]@	c #7D7C81",
"^@	c #A4A3A8",
"/@	c #ACABB0",
"(@	c #88878C",
"_@	c #6A696E",
":@	c #848388",
"<@	c #CDCDCF",
"[@	c #E7E7E7",
"}@	c #717173",
"|@	c #676769",
"1@	c #707072",
"2@	c #67666B",
"3@	c #6C6B70",
"4@	c #6F6E73",
"5@	c #737277",
"6@	c #706F74",
"7@	c #9D9D9D",
"8@	c #D7D7D7",
"9@	c #686868",
"0@	c #B6B6B8",
"a@	c #ECECEE",
"b@	c #E3E3E5",
"c@	c #E5E5E7",
"d@	c #E0E0E2",
"e@	c #D9D9DB",
"f@	c #E8E8EA",
"g@	c #E6E6E8",
"h@	c #DFDFE1",
"i@	c #CECED0",
"j@	c #D7D7D9",
"k@	c #E6E6E6",
"l@	c #C1C1C3",
"m@	c #C6C6C6",
"n@	c #ABABAB",
"o@	c #C1C1C1",
"p@	c #727272",
"q@	c #F2F2F4",
"r@	c #FCFCFE",
"s@	c #FBFBFB",
"t@	c #FEFEFE",
"u@	c #FDFDFD",
"v@	c #FEFEFF",
"w@	c #FDFDFB",
"x@	c #FCFCFC",
"y@	c #7B7A7F",
"z@	c #B5B4B9",
"A@	c #ACACAE",
"B@	c #9B9B9D",
"C@	c #C0C0C0",
"D@	c #6E6E6E",
"E@	c #E9E9E9",
"F@	c #E8E8E8",
"G@	c #EBEBEB",
"H@	c #E9E9EB",
"I@	c #E4E4E6",
"J@	c #E9E9E7",
"K@	c #F5F5F5",
"L@	c #F0F0F2",
"M@	c #7A797E",
"N@	c #B8B7BC",
"O@	c #BEBEC0",
"P@	c #88888A",
"Q@	c #757575",
"R@	c #EFEFF1",
"S@	c #F4F4F6",
"T@	c #7B7B7D",
"U@	c #9E9EA0",
"V@	c #C0C0C2",
"W@	c #909092",
"X@	c #9F9FA1",
"Y@	c #8A8A8C",
"Z@	c #DDDDDF",
"`@	c #BABABC",
" #	c #B7B7B9",
".#	c #B8B8BA",
"+#	c #B4B3B8",
"@#	c #B9B8BD",
"##	c #B7B6BB",
"$#	c #B6B5BA",
"%#	c #B3B2B7",
"&#	c #B3B3B5",
"*#	c #DADADC",
"=#	c #818181",
"-#	c #8D8D8F",
";#	c #818183",
">#	c #8C8C8E",
",#	c #C2C2C2",
"'#	c #737373",
")#	c #959499",
"!#	c #8C8B90",
"~#	c #8B8A8F",
"{#	c #8A898E",
"]#	c #8E8D92",
"^#	c #8E8D93",
"/#	c #8B8A90",
"(#	c #8D8C92",
"_#	c #8C8B91",
":#	c #8F8E93",
"<#	c #8D8C91",
"[#	c #E4E3E8",
"}#	c #797979",
"|#	c #FFFFFD",
"1#	c #8E8E90",
"2#	c #F5F5F7",
"3#	c #DEDEE0",
"4#	c #DAE1DA",
"5#	c #D3D0D7",
"6#	c #CEC7CF",
"7#	c #D0D5D1",
"8#	c #C8D2CA",
"9#	c #CECDD5",
"0#	c #CDD0D7",
"a#	c #CECFD4",
"b#	c #CFCED3",
"c#	c #CFCFD1",
"d#	c #CECFD1",
"e#	c #CCCECD",
"f#	c #CED0CF",
"g#	c #CACECD",
"h#	c #D8DEDC",
"i#	c #DBE1DD",
"j#	c #E6EBE7",
"k#	c #F0EEF1",
"l#	c #7C777E",
"m#	c #ADABB0",
"n#	c #F7F9F8",
"o#	c #838486",
"p#	c #DBDBDD",
"q#	c #D7DCD8",
"r#	c #DFD8E0",
"s#	c #E4DAE5",
"t#	c #E1E1DF",
"u#	c #DADFD9",
"v#	c #E1E1E3",
"w#	c #E0DDE4",
"x#	c #DEDDE3",
"y#	c #DFDDE2",
"z#	c #E0DEE3",
"A#	c #DEDCE7",
"B#	c #DFDDE8",
"C#	c #DCDBE3",
"D#	c #DDDCE4",
"E#	c #DFDEE6",
"F#	c #DFDEE4",
"G#	c #DADFDB",
"H#	c #E8EDE9",
"I#	c #79777C",
"J#	c #EDEFEE",
"K#	c #F8F9FB",
"L#	c #9C9D9F",
"M#	c #7D7E80",
"N#	c #717171",
"O#	c #D8D8DA",
"P#	c #D1DBDC",
"Q#	c #DFDDEA",
"R#	c #E1DDEC",
"S#	c #DCE1E4",
"T#	c #D5E0DC",
"U#	c #DDE0E5",
"V#	c #E2E2EC",
"W#	c #DEE3E9",
"X#	c #DAE5DF",
"Y#	c #D9E4DE",
"Z#	c #DAE2E4",
"`#	c #DDE5E7",
" $	c #D9E2E1",
".$	c #DCE2E2",
"+$	c #DFE5E5",
"@$	c #DDE1E2",
"#$	c #DBD9DE",
"$$	c #D6D8D7",
"%$	c #E5E9E8",
"&$	c #808183",
"*$	c #DCD3D8",
"=$	c #CEB9CC",
"-$	c #AB93A9",
";$	c #A3969F",
">$	c #ACA3A6",
",$	c #A999A3",
"'$	c #A694A0",
")$	c #A5989F",
"!$	c #A698A7",
"~$	c #A597A6",
"{$	c #A496A3",
"]$	c #A799A6",
"^$	c #A597A4",
"/$	c #A797A2",
"($	c #A997A3",
"_$	c #A795A1",
":$	c #AD99A5",
"<$	c #A6929E",
"[$	c #BEADBF",
"}$	c #E3D9E2",
"|$	c #D5D5D7",
"1$	c #E2E6E5",
"2$	c #7A7B7F",
"3$	c #DFE3E2",
"4$	c #EFF0F2",
"5$	c #979799",
"6$	c #D8C5E3",
"7$	c #9578A4",
"8$	c #8F6F9E",
"9$	c #A58FB3",
"0$	c #A090AD",
"a$	c #A38BAF",
"b$	c #A88EB3",
"c$	c #A28DAC",
"d$	c #A687B1",
"e$	c #A586B0",
"f$	c #A788B2",
"g$	c #A48AB1",
"h$	c #A488B0",
"i$	c #A687B0",
"j$	c #A888B1",
"k$	c #AF8FB8",
"l$	c #9B77A3",
"m$	c #8E768E",
"n$	c #D4C6D5",
"o$	c #D7D5DA",
"p$	c #E0E4E3",
"q$	c #DFE3E4",
"r$	c #76777B",
"s$	c #DBDFE0",
"t$	c #EAEBED",
"u$	c #97989A",
"v$	c #CCC9D0",
"w$	c #807186",
"x$	c #C8B6D0",
"y$	c #FFFBFF",
"z$	c #F9F6FF",
"A$	c #FFF7FF",
"B$	c #FFF8FF",
"C$	c #FFFDFF",
"D$	c #FFFCFF",
"E$	c #FFFAFE",
"F$	c #FFF2FF",
"G$	c #FFF1FE",
"H$	c #FEF0FD",
"I$	c #FFEFFC",
"J$	c #FFEDFD",
"K$	c #FFF1FF",
"L$	c #E0CEDE",
"M$	c #876A89",
"N$	c #C5B4C7",
"O$	c #D7D4DB",
"P$	c #D7D9D8",
"Q$	c #969799",
"R$	c #D3D3D5",
"S$	c #D2C2CC",
"T$	c #90748D",
"U$	c #CEAFCE",
"V$	c #FFEAFF",
"W$	c #FBEAFC",
"X$	c #FAE4FB",
"Y$	c #F4DCF4",
"Z$	c #FFEBFE",
"`$	c #FAEDFF",
" %	c #F9ECFF",
".%	c #F8EBFF",
"+%	c #F7EAFE",
"@%	c #F6E9FD",
"#%	c #F5E8FC",
"$%	c #FAE0FD",
"%%	c #FBE0FF",
"&%	c #FADFFE",
"*%	c #F8DDFC",
"=%	c #F5DAFB",
"-%	c #FDE2FF",
";%	c #DEC3E4",
">%	c #957698",
",%	c #C6B4CA",
"'%	c #D8DEDE",
")%	c #7B7C7E",
"!%	c #959396",
"~%	c #D2D0D3",
"{%	c #959698",
"]%	c #D2D2D4",
"^%	c #A0A0A2",
"/%	c #D1C0D3",
"(%	c #95779B",
"_%	c #C8A8D1",
":%	c #F0D8FA",
"<%	c #D9C6E4",
"[%	c #D2BADE",
"}%	c #D7BDE2",
"|%	c #D7BFDF",
"1%	c #DABCE2",
"2%	c #D9BBE1",
"3%	c #DBBDE3",
"4%	c #D5BBDE",
"5%	c #D9BFE2",
"6%	c #D7BDE0",
"7%	c #D4BCE0",
"8%	c #D6BEE2",
"9%	c #D7BEE5",
"0%	c #E9D3F9",
"a%	c #D6C0E6",
"b%	c #8E6E93",
"c%	c #C8B4CD",
"d%	c #D3D0D9",
"e%	c #D5DBDB",
"f%	c #969497",
"g%	c #D3CFD0",
"h%	c #949597",
"i%	c #7E7F81",
"j%	c #D9DADC",
"k%	c #CDCED0",
"l%	c #CFBED1",
"m%	c #927997",
"n%	c #C0A0C7",
"o%	c #EECAF6",
"p%	c #CBABD4",
"q%	c #C4A5CE",
"r%	c #C6A7D0",
"s%	c #C2A3CD",
"t%	c #C5ABD2",
"u%	c #C3A9D0",
"v%	c #C2A8CF",
"w%	c #C2A8CD",
"x%	c #C3A9CE",
"y%	c #C1A5CE",
"z%	c #C3A7CF",
"A%	c #C5A9D1",
"B%	c #C1A5CD",
"C%	c #ECD0F9",
"D%	c #CFB2DE",
"E%	c #8B7099",
"F%	c #C1B5C9",
"G%	c #CACDD2",
"H%	c #D8DBE0",
"I%	c #DFDAE1",
"J%	c #7F7679",
"K%	c #939192",
"L%	c #CBD0D3",
"M%	c #7F7F81",
"N%	c #CCC1CF",
"O%	c #8F7D95",
"P%	c #B99EBF",
"Q%	c #E4C6EC",
"R%	c #B49ABD",
"S%	c #AA92B2",
"T%	c #AD95B5",
"U%	c #AB91B4",
"V%	c #AD92B5",
"W%	c #AC91B4",
"X%	c #AC91B2",
"Y%	c #AD92B3",
"Z%	c #B093B2",
"`%	c #AE91B0",
" &	c #AE91AF",
".&	c #AD90AE",
"+&	c #B194B3",
"@&	c #E6C8EA",
"#&	c #CCAED0",
"$&	c #8C6E94",
"%&	c #C5B7C8",
"&&	c #D4D8DB",
"*&	c #E1DFE4",
"=&	c #7E7A7B",
"-&	c #8F8F8F",
";&	c #CDD2D5",
">&	c #D4D4D6",
",&	c #B9B9BB",
"'&	c #C7C8CA",
")&	c #CBBED0",
"!&	c #8E7A95",
"~&	c #B59ABD",
"{&	c #93799C",
"]&	c #7D6587",
"^&	c #826A8C",
"/&	c #82688D",
"(&	c #86688E",
"_&	c #86688C",
":&	c #85678B",
"<&	c #86688A",
"[&	c #836891",
"}&	c #81678E",
"|&	c #82688F",
"1&	c #836990",
"2&	c #7C6289",
"3&	c #856B92",
"4&	c #CDB2DB",
"5&	c #C4A9D4",
"6&	c #916E8E",
"7&	c #C6B4C2",
"8&	c #CECCCD",
"9&	c #D4D8D9",
"0&	c #7F7D7E",
"a&	c #959597",
"b&	c #D8D9DB",
"c&	c #C6C7C9",
"d&	c #CDB6D3",
"e&	c #93779D",
"f&	c #AF8BB7",
"g&	c #CAA6D4",
"h&	c #7A5B85",
"i&	c #5C4068",
"j&	c #62436D",
"k&	c #674673",
"l&	c #64456F",
"m&	c #63446E",
"n&	c #63446D",
"o&	c #614669",
"p&	c #604568",
"q&	c #624768",
"r&	c #614667",
"s&	c #5D4263",
"t&	c #694E71",
"u&	c #AB8FB5",
"v&	c #B599BF",
"w&	c #96728C",
"x&	c #CFBAC3",
"y&	c #DBD7D4",
"z&	c #D9DDDC",
"A&	c #DADEE1",
"B&	c #7E807F",
"C&	c #909291",
"D&	c #BABBC0",
"E&	c #B5B5B7",
"F&	c #A5A5A7",
"G&	c #BCBCBE",
"H&	c #9C9C9E",
"I&	c #CEBCD6",
"J&	c #927A9A",
"K&	c #7F6389",
"L&	c #8E7298",
"M&	c #735B7B",
"N&	c #745C7C",
"O&	c #735B7D",
"P&	c #74587E",
"Q&	c #745A7F",
"R&	c #73597E",
"S&	c #72587D",
"T&	c #72587B",
"U&	c #75547F",
"V&	c #76567F",
"W&	c #795982",
"X&	c #78587F",
"Y&	c #74547D",
"Z&	c #84638E",
"`&	c #856491",
" *	c #93768A",
".*	c #D6C3C9",
"+*	c #E0DBD7",
"@*	c #D8DAD9",
"#*	c #DBE0E3",
"$*	c #7D8180",
"%*	c #9D9F9E",
"&*	c #7C7C7E",
"**	c #A7A7A9",
"=*	c #C3C3C3",
"-*	c #D3D4D6",
";*	c #C1C2C4",
">*	c #C4BEC8",
",*	c #B7AFBE",
"'*	c #A99CAE",
")*	c #A99EAE",
"!*	c #A6A0AA",
"~*	c #A7A4AD",
"{*	c #A59DAA",
"]*	c #ADA2B2",
"^*	c #AD9FB0",
"/*	c #AC9EAF",
"(*	c #AB9DAE",
"_*	c #AB9DAC",
":*	c #ABA1AA",
"<*	c #AAA0A9",
"[*	c #A99FA7",
"}*	c #A79DA5",
"|*	c #B0A6AE",
"1*	c #A79DA8",
"2*	c #AAA0AB",
"3*	c #AA99A9",
"4*	c #D3C9CA",
"5*	c #DEDBD6",
"6*	c #E0E1E3",
"7*	c #E2E6E9",
"8*	c #7E8281",
"9*	c #A8AAA7",
"0*	c #BEBEBE",
"a*	c #A6A6A6",
"b*	c #D0D1D3",
"c*	c #D1D2D4",
"d*	c #BCBEBD",
"e*	c #C6C5CA",
"f*	c #C5C3C8",
"g*	c #C2C2C4",
"h*	c #C2C7C3",
"i*	c #C0C6C2",
"j*	c #C1C3C2",
"k*	c #C6C4C9",
"l*	c #C4C2C7",
"m*	c #C4C2C5",
"n*	c #BFC4C7",
"o*	c #BDC3C3",
"p*	c #BBC1C1",
"q*	c #C0C6C6",
"r*	c #BEC3C6",
"s*	c #BDC2C5",
"t*	c #BEC3C7",
"u*	c #C3C0CB",
"v*	c #C3C1C2",
"w*	c #C9C8C4",
"x*	c #E2E3E8",
"y*	c #858786",
"z*	c #B7B7B5",
"A*	c #898989",
"B*	c #9C9C9C",
"C*	c #CBCBCB",
"D*	c #C8C9CB",
"E*	c #CBC9CE",
"F*	c #D1CCD3",
"G*	c #CFCDD2",
"H*	c #CACCCB",
"I*	c #C5CAC6",
"J*	c #CCC7CD",
"K*	c #CACBCD",
"L*	c #CDCBCC",
"M*	c #CBCAC8",
"N*	c #CDCCCA",
"O*	c #CCCBC9",
"P*	c #CBC9CA",
"Q*	c #CFCDD0",
"R*	c #C9C7CA",
"S*	c #C4C8D3",
"T*	c #C9CACC",
"U*	c #D4D3D1",
"V*	c #E5E3E8",
"W*	c #E4E3E9",
"X*	c #B0B0AE",
"Y*	c #DADADA",
"Z*	c #BBBCBE",
"`*	c #D1D0D5",
" =	c #D2D1D7",
".=	c #D1D2D7",
"+=	c #D4D3D8",
"@=	c #D0CFD4",
"#=	c #D5D4D9",
"$=	c #D3D2D7",
"%=	c #D4D5D9",
"&=	c #C6C6C8",
"*=	c #919191",
"==	c #77787A",
"-=	c #767779",
";=	c #757479",
">=	c #747378",
",=	c #767479",
"'=	c #747579",
")=	c #79797B",
"!=	c #858587",
"~=	c #75767A",
"{=	c #77787C",
"]=	c #777779",
"^=	c #B0B1B3",
"/=	c #B2B4B3",
"(=	c #B3B5B4",
"_=	c #B6B4B7",
":=	c #B4B5B7",
"<=	c #B1B1B3",
"[=	c #BFBFC1",
"}=	c #B5B6B8",
"|=	c #B3B4B6",
"                                                                                                    ",
"                      . + @ # $                     % & * = -                                       ",
"                  ; > , ' , , ) !               ~ { ] ^ / ( _ : < [                                 ",
"              } | 1 2 3 4 4 5 6 7 8 9         0 a b c d e f g h i j k                               ",
"            l a m n o p p e e o q r ) s     t j u q o v w x y z o 6 A B                             ",
"          C D E F G H I H J K L M N O P Q R S T U V W L X Y Z I ` z  ...t                           ",
"        +.@.#.o K $.%.&.*.=.-.;.>.,.'.).!.~.{.U ].^./.(._.:.<.[.}.|.z 1.2.3.                        ",
"        * ^ 4.5./.6.7.8.9.0.a.7.b.c.,.d.!.~.e.f./.g.h.8.i.j.k.l.m.n.o.p.q.r.                        ",
"        s.t.u.v.g.w.x.y.z.A.B.C.w.D.E.M F.G.G Y H.I.J.K.L.M.N.O.P.Q.R.p.S.T.                        ",
"        U.V.W.X.Y.Z._.&.K.`. +.+++-.@+M #+$+%+&+*+=+w.&.-+N.N._.;+>+,+'+)+!+                        ",
"        ~+{+]+^+-.++w.-+/+(+_+:+++z.b.d.<+[+}+g.|+i.7.1+2+3+I.9.4+ +5+` 6+(                         ",
"        l 7+8+9+|+0+a+0+I.b+.+c+w.&.X.d.t.d+X e+f+/+x.7.g+h+:.O.i+f+5+j+i k+                        ",
"        l+~.9+c.<.2+Z.m+J.c+n+o+K.<.e.p+!.S 6.$.-.y.7.m+m+a+q+++r+s+e+t+u+v+                        ",
"          w+<+W x+N.3+*.Z.y+z+A+-+B+C+#+D+E+O.$.B+F+I.*.G+9.H+2+y.*+L I+J+K+                        ",
"          L+S M+H H.N+r+h+b+b+O+D.J M+P+Q+e.R+7.$.%.<.2+/+/+r+s+6.L L.J+r.                          ",
"            S+D+T+U+/.B+V+W+[.X+;.T+~.Y+    -.Z+Z.g.X `+B+6. @.@+@h+@@1                             ",
"          d #@$@2.%@&@*@=@-@*@&@;@>@,@'@)@)@!@~@{@]@^@*@-@m.*@/@(@_@:@<@[@                          ",
"        #.: ) : ) 8 j > : }@}@|@8 J+J+1@) j ..: >@{@2@3@4@5@6@2.8 |@A }@J+7@                        ",
"      8@9@0@a@b@c@c@d d@6 2 e@f@b@b@3 f@b@5 5 c@K+g@f@h@i@c j@g@k@k@+.5 l@J+2             m@n@4.    ",
"      o@p@q@r@o o s@s@s@t@u@t@u@o q v@4 4 o r@v@o 4 r@o o v@4 o w@x@t@o e y@z@          A@j 8 B@    ",
"      C@D@w w a@+.E@F@[@G@E@G@[@c@H@f@5 H@I@b@d f@f@f@f@3 H@5 f@J@E@4.K@L@M@N@        9 ) O@r.P@    ",
"      o@Q@L@w h@c@c@5 5 f@c@5 c@g@g@c@f@g@5 a@c@g@H@H@5 g@c@g@5 k@% 4.R@S@!+T@1 U@V@W@..2 o X@Y@    ",
"      o@Q@3 S@K+Z@`@0@ # #.# # #+#@#########@#$#$#$#N@N@##$#z@%#&#*#b@a@S@U.=#l -#j ;##@v@4 B@>#    ",
"      ,#'#H@R@K+!@)#!#!#~#,@{#]#^#/#(#(#_#(#^#(#:#!#<#]#~#{#!#<#:#-@[#a@E@}#l+|#r@1#W@v@2#e X@;     ",
"      o@p@f@R@3#4#5#6#7#8#O 9#0#a#a#a#a#a#a#a#a#b#6 c#d#e#f#f#g#d#h#i#j#k#l#m#n#N {.o#g a@2#i B     ",
"      o@p@g@a@p#q#r#s#t#u#v#w#x#y#y#y#y#y#z#z#z#A#B#C#D#E#x#F#F#z#e.G#H#3 I#^@J#K#L#M#v#b@q@B@B     ",
"      o@N#I@H@O#P#Q#R#S#T#U#V#W#X#X#X#X#X#Y#Y#Y#Z#`# $.$+$.$@$@$s##$$$%$f@]@0+%$W.{+&$Z@b@w 9 k+    ",
"      o@N#b@f@j@*$=$-$;$>$,$'$)$!$!$!$!$~$!$!$!${$]$^$/$($_$:$<$[$}$|$1$C+2$7.3$4$#+&$#@3#L@5$P@    ",
"      o@^ K+5 j@6$7$8$9$0$a$b$c$d$e$e$e$d$d$d$f$g$g$h$h$i$j$k$l$m$n$o$p$q$r$#+s$t$u$d+h *#d 5$B     ",
"      o@^ v#g@#@v$w$x$y$z$A$B$B$C$D$y$y$E$E$E$E$F$G$H$G$I$J$K$L$M$N$O$@$@$2$5$P$W Q$d+i@j@5 1 ;     ",
"      o@] h@b@R$S$T$U$V$W$X$Y$Z$`$ %.%+%@%#%#%#%$%%%&%&%*%=%-%;%>%,%O$'%.$)%!%~%d.{%)%m ]%5 ^%Y@    ",
"      o@] Z@d@6 /%(%_%:%<%[%}%|%1%1%2%2%2%1%3%3%4%5%6%7%8%9%0%a%b%c%d%e%.$w+f%g%E.h%i%2 p#p A@k     ",
"      C@^ j%E.k%l%m%n%o%p%q%r%s%t%u%v%w%x%x%w%w%y%z%A%B%A%A%C%D%E%F%G%H%I%J%K%L%c@X@M%R$h@L@= s     ",
"      o@p@c.E.^+N%O%P%Q%R%S%T%U%V%W%X%X%X%Y%X%X%Z%`% & &.&+&@&#&$&%&5+&&*&=&-&;&g@t ;#>&h@d ,&i     ",
"      o@N#e.c.'&)&!&~&3%{&]&^&/&(&_&:&:&_&_&_&<&[&}&|&1&2&3&4&5&6&7&8&9&/.0&s.G%j@t a&]%p#R@`@^%    ",
"      C@^ @+b&c&d&e&f&g&h&i&j&k&l&m&m&m&m&m&n&n&o&p&q&r&s&t&u&v&w&x&y&z&A&B&C&D&E&.#F&G&e@I@t H&    ",
"      ,#N#@+b&c&I&J&K&L&M&N&O&P&Q&R&R&S&T&T&T&T&U&V&W&X&W&Y&Z&`& *.*+*@*#*$*%*H     - &*W@j@&#**    ",
"      =*^ -*-*;*>*,*'*)*!*~*{*]*^*^*/*/*(*(*_*_*:*<*[*}*|*:*1*2*3*4*5*6*7*8*9*        0*] { @ a*    ",
"      ,#D@b*c*;*d*e*f*g*h*i*j*k*f*f*l*l*m*m*m*m*n*n*o*p*q*r*s*t*u*v*w*3.x*y*z*          ~ A*B*C*    ",
"      o@D@X.e.D*<@E*F*G*H*I*& J* @5+5+5+5+5+K*O L*L*M*N*O*P*Q*R*S*T*U*V*W*B&X*              Y*      ",
"      . D Z*p+b*b*b*B+`*`*`*`*`*5# = = = = = =.=`*+=`*@=#=+=$=!@%=&+D.!@&=j g*                      ",
"        *=S ====-=w+w+, ;=;=>=>=,=;=;=;=;=;=;='=u+A )=u+!=< ;#;#~={=w+]=> !=                        ",
"          T ^=M+/=/=(== E&E&E&0@_=E&E&E&E&E&E&:= #&#0@<=[=`@l@V@}=}=|=<==*                          ",
"                                                                                                    "};
