/* XPM */
static char * delete_xpm[] = {
"24 24 172 2",
"  	c None",
". 	c #AE7C30",
"+ 	c #B08134",
"@ 	c #A2701E",
"# 	c #CAA05C",
"$ 	c #B7883E",
"% 	c #C09248",
"& 	c #C7984F",
"* 	c #C89C56",
"= 	c #D0A35D",
"- 	c #94600A",
"; 	c #B68231",
"> 	c #C6974D",
", 	c #C49447",
"' 	c #D7A454",
") 	c #BD8832",
"! 	c #C49140",
"~ 	c #B58438",
"{ 	c #B48234",
"] 	c #D9A657",
"^ 	c #D8A047",
"/ 	c #D69D43",
"( 	c #B78433",
"_ 	c #885A0C",
": 	c #BC8936",
"< 	c #D2973C",
"[ 	c #CE9131",
"} 	c #C88E33",
"| 	c #AE7A2A",
"1 	c #BA822A",
"2 	c #C78721",
"3 	c #C78722",
"4 	c #A37121",
"5 	c #D8C210",
"6 	c #E4D240",
"7 	c #D6BC34",
"8 	c #C7961D",
"9 	c #C28213",
"0 	c #A36D19",
"a 	c #7E5416",
"b 	c #C4AD59",
"c 	c #EEDF7E",
"d 	c #F4E66D",
"e 	c #E9D851",
"f 	c #DBBF3F",
"g 	c #B5961A",
"h 	c #967898",
"i 	c #9C7E97",
"j 	c #A48586",
"k 	c #AD9068",
"l 	c #C7AF52",
"m 	c #E8D548",
"n 	c #DDC93B",
"o 	c #DAC81E",
"p 	c #C0AB64",
"q 	c #B09675",
"r 	c #A18481",
"s 	c #8C6689",
"t 	c #8A6285",
"u 	c #A68368",
"v 	c #A58962",
"w 	c #E0CE34",
"x 	c #EEDF57",
"y 	c #FCEF7C",
"z 	c #F6E662",
"A 	c #E8D756",
"B 	c #BAA24B",
"C 	c #997C59",
"D 	c #896281",
"E 	c #754D79",
"F 	c #DCC61E",
"G 	c #EEDE56",
"H 	c #FDEF78",
"I 	c #FBEC6D",
"J 	c #F9EA64",
"K 	c #F1E04F",
"L 	c #ECD83D",
"M 	c #E1CF31",
"N 	c #BDA73A",
"O 	c #997C2E",
"P 	c #D8C414",
"Q 	c #EBDB54",
"R 	c #FDF188",
"S 	c #F8E975",
"T 	c #F6E65A",
"U 	c #EBD73F",
"V 	c #ECD837",
"W 	c #E8D328",
"X 	c #E7D333",
"Y 	c #CAB221",
"Z 	c #EADC56",
"` 	c #FDF395",
" .	c #FAEE8D",
"..	c #F5E571",
"+.	c #F7E760",
"@.	c #F1E056",
"#.	c #E7D133",
"$.	c #EBD72F",
"%.	c #E4CD1D",
"&.	c #E6D126",
"*.	c #CDB529",
"=.	c #F8EC8A",
"-.	c #FCF196",
";.	c #F6EB84",
">.	c #F2E26F",
",.	c #F4E25B",
"'.	c #F5E55B",
").	c #EDDC61",
"!.	c #E9D436",
"~.	c #E6D124",
"{.	c #E0C813",
"].	c #E4CF21",
"^.	c #CCB42D",
"/.	c #F4E87E",
"(.	c #F9EE8D",
"_.	c #E8D956",
":.	c #E8D54F",
"<.	c #F0DD58",
"[.	c #F6E65C",
"}.	c #F2E266",
"|.	c #EAD753",
"1.	c #EAD62C",
"2.	c #E2CB19",
"3.	c #E0CA21",
"4.	c #E5D129",
"5.	c #CAB12E",
"6.	c #F0E470",
"7.	c #E5D446",
"8.	c #E4D149",
"9.	c #EFDC62",
"0.	c #F2E056",
"a.	c #F5E76C",
"b.	c #EADA69",
"c.	c #E7D237",
"d.	c #E6D021",
"e.	c #E1CC2D",
"f.	c #E4D13F",
"g.	c #E4D132",
"h.	c #C4A925",
"i.	c #DEC830",
"j.	c #E9D75E",
"k.	c #F1DF61",
"l.	c #F6E869",
"m.	c #DFCC4B",
"n.	c #DEC93D",
"o.	c #E7D227",
"p.	c #E2CA19",
"q.	c #DDC835",
"r.	c #E2CD2E",
"s.	c #E1CD3E",
"t.	c #BEA21C",
"u.	c #D6C02A",
"v.	c #DDCA4B",
"w.	c #E0CD4C",
"x.	c #D5BF38",
"y.	c #E8D445",
"z.	c #E5CF1E",
"A.	c #E3CE37",
"B.	c #D7C245",
"C.	c #E4CF2F",
"D.	c #D6C13B",
"E.	c #C6AC14",
"F.	c #D5C03A",
"G.	c #DDCA46",
"H.	c #E1CF49",
"I.	c #D0B93A",
"J.	c #C8AE30",
"K.	c #E8D859",
"L.	c #CCB63D",
"M.	c #BCA01E",
"N.	c #C6AE32",
"O.	c #AE920C",
"                                                ",
"                                . + @           ",
"                              # $ % &           ",
"                            * = - ; >           ",
"                            , ' ) ! ~           ",
"                          { ] ^ / ( _           ",
"                          : < [ } |             ",
"                          1 2 3 4               ",
"                    5 6 7 8 9 0 a               ",
"                    b c d e f g                 ",
"                  h i j k l m n                 ",
"                o p q r s t u v                 ",
"              w x y z A B C D E                 ",
"            F G H I J K L M N O                 ",
"          P Q R S z T U V W X Y                 ",
"          Z `  ...+.@.#.$.%.&.*.                ",
"        =.-.;.>.,.'.).!.~.{.].^.                ",
"      /.(._.:.<.[.}.|.1.2.3.4.5.                ",
"      6.7.8.9.0.a.b.c.d.e.f.g.h.                ",
"        i.j.k.l.m.n.o.p.q.r.s.t.                ",
"          u.v.w.x.y.z.A.B.C.D.                  ",
"              E.F.G.H.I.J.K.L.                  ",
"                        M.N.O.                  ",
"                                                "};
