/* XPM */
static char * error_xpm[] = {
"48 48 482 2",
"  	c None",
". 	c #BB3A3A",
"+ 	c #BD3D3D",
"@ 	c #BC3D3D",
"# 	c #BD4343",
"$ 	c #BD4444",
"% 	c #BE4040",
"& 	c #BA3939",
"* 	c #BA3737",
"= 	c #BD4242",
"- 	c #C96161",
"; 	c #DA7E7E",
"> 	c #E79494",
", 	c #EEA4A4",
"' 	c #F2AFAF",
") 	c #F3B3B3",
"! 	c #F2AEAE",
"~ 	c #EDA3A3",
"{ 	c #E69393",
"] 	c #DA7D7D",
"^ 	c #BD4141",
"/ 	c #B83636",
"( 	c #BD4040",
"_ 	c #C35151",
": 	c #DB8080",
"< 	c #EEA6A6",
"[ 	c #F5ACAC",
"} 	c #F29494",
"| 	c #F08181",
"1 	c #EE7373",
"2 	c #EC6969",
"3 	c #EC6565",
"4 	c #EB6464",
"5 	c #EC6868",
"6 	c #EC7171",
"7 	c #ED7E7E",
"8 	c #F09191",
"9 	c #F3AAAA",
"0 	c #C04E4E",
"a 	c #BC3A3A",
"b 	c #C14C4C",
"c 	c #DA8080",
"d 	c #F3AFAF",
"e 	c #F39A9A",
"f 	c #EE7676",
"g 	c #EC6262",
"h 	c #EC6161",
"i 	c #EB6060",
"j 	c #EB5F5F",
"k 	c #EA5F5F",
"l 	c #E95E5E",
"m 	c #E95D5D",
"n 	c #E85D5D",
"o 	c #EB7171",
"p 	c #F09898",
"q 	c #F0ACAC",
"r 	c #D97C7C",
"s 	c #C04949",
"t 	c #BF4848",
"u 	c #C85F5F",
"v 	c #F3A1A1",
"w 	c #EE6F6F",
"x 	c #ED6262",
"y 	c #E75B5B",
"z 	c #E86969",
"A 	c #F09D9D",
"B 	c #ECA0A0",
"C 	c #BE4343",
"D 	c #C14D4D",
"E 	c #D16F6F",
"F 	c #EF8383",
"G 	c #E05D5D",
"H 	c #D45858",
"I 	c #C95555",
"J 	c #BF4C4C",
"K 	c #C04D4D",
"L 	c #C45252",
"M 	c #D35757",
"N 	c #DF5A5A",
"O 	c #E75C5C",
"P 	c #E75A5A",
"Q 	c #E55A5A",
"R 	c #EA7E7E",
"S 	c #D16E6E",
"T 	c #BE4646",
"U 	c #D57575",
"V 	c #F3AEAE",
"W 	c #EA6161",
"X 	c #D65959",
"Y 	c #C35050",
"Z 	c #C14A4A",
"` 	c #BE4545",
" .	c #C14949",
"..	c #D35656",
"+.	c #E65B5B",
"@.	c #E65A5A",
"#.	c #E55959",
"$.	c #E76B6B",
"%.	c #F0AAAA",
"&.	c #D57474",
"*.	c #BF4A4A",
"=.	c #D16C6C",
"-.	c #F3ADAD",
";.	c #EC6D6D",
">.	c #DE5B5B",
",.	c #BF4B4B",
"'.	c #BB3B3B",
").	c #C45454",
"!.	c #D85656",
"~.	c #E55858",
"{.	c #E56666",
"].	c #D16B6B",
"^.	c #C04F4F",
"/.	c #C85D5D",
"(.	c #F3ABAB",
"_.	c #EC6E6E",
":.	c #F07A7A",
"<.	c #EE9F9F",
"[.	c #C25555",
"}.	c #D15555",
"|.	c #E45858",
"1.	c #E56767",
"2.	c #EFA8A8",
"3.	c #C04A4A",
"4.	c #EC9E9E",
"5.	c #ED7D7D",
"6.	c #E95F5F",
"7.	c #ED6363",
"8.	c #F28989",
"9.	c #EF9F9F",
"0.	c #C55757",
"a.	c #C55858",
"b.	c #CA5454",
"c.	c #E45959",
"d.	c #E35656",
"e.	c #E77878",
"f.	c #EA9A9A",
"g.	c #C25151",
"h.	c #B83434",
"i.	c #DA7979",
"j.	c #E75F5F",
"k.	c #EE6363",
"l.	c #EE6464",
"m.	c #F38A8A",
"n.	c #F09F9F",
"o.	c #C45757",
"p.	c #D05555",
"q.	c #E35757",
"r.	c #E25656",
"s.	c #EC9494",
"t.	c #D97575",
"u.	c #C35252",
"v.	c #F0A9A9",
"w.	c #E96666",
"x.	c #DB5959",
"y.	c #F06666",
"z.	c #F48B8B",
"A.	c #F0A0A0",
"B.	c #C45656",
"C.	c #C55454",
"D.	c #D75555",
"E.	c #E35F5F",
"F.	c #EEA5A5",
"G.	c #DA7B7B",
"H.	c #EF9292",
"I.	c #E75D5D",
"J.	c #B93838",
"K.	c #E76161",
"L.	c #EF6464",
"M.	c #F06767",
"N.	c #F58C8C",
"O.	c #F1A1A1",
"P.	c #C45353",
"Q.	c #E25757",
"R.	c #E15555",
"S.	c #EB8C8C",
"T.	c #D87878",
"U.	c #C15050",
"V.	c #C04848",
"W.	c #ECA1A1",
"X.	c #EA6E6E",
"Y.	c #BF4949",
"Z.	c #C34F4F",
"`.	c #E86161",
" +	c #F26868",
".+	c #F58D8D",
"++	c #F2A1A1",
"@+	c #D25454",
"#+	c #E46666",
"$+	c #EA9E9E",
"%+	c #C24F4F",
"&+	c #F2A7A7",
"*+	c #C25050",
"=+	c #E96262",
"-+	c #F36969",
";+	c #F68D8D",
">+	c #E05454",
",+	c #EEA3A3",
"'+	c #CA6161",
")+	c #EE8F8F",
"!+	c #DB5858",
"~+	c #C04747",
"{+	c #E96363",
"]+	c #F16767",
"^+	c #F0A1A1",
"/+	c #C35353",
"(+	c #C04646",
"_+	c #D85454",
":+	c #E98989",
"<+	c #D97979",
"[+	c #BE4C4C",
"}+	c #BB3838",
"|+	c #E59191",
"1+	c #EB7A7A",
"2+	c #D05656",
"3+	c #E96464",
"4+	c #F16868",
"5+	c #CD5454",
"6+	c #E15454",
"7+	c #E57373",
"8+	c #E38F8F",
"9+	c #BF4747",
"0+	c #AE1616",
"a+	c #EA9C9C",
"b+	c #E96B6B",
"c+	c #C65252",
"d+	c #C34E4E",
"e+	c #E36464",
"f+	c #E99E9E",
"g+	c #A70101",
"h+	c #E88787",
"i+	c #DD1F1F",
"j+	c #DD1B1B",
"k+	c #DE1D1D",
"l+	c #AE1717",
"m+	c #C24D4D",
"n+	c #EF6565",
"o+	c #F38989",
"p+	c #E05A5A",
"q+	c #EEA9A9",
"r+	c #A60000",
"s+	c #EB8E8E",
"t+	c #DB1515",
"u+	c #DB1212",
"v+	c #DA1313",
"w+	c #A50000",
"x+	c #E65959",
"y+	c #ED4E4E",
"z+	c #EB4949",
"A+	c #EA4242",
"B+	c #EE6A6A",
"C+	c #E87B7B",
"D+	c #AC0C0C",
"E+	c #C14E4E",
"F+	c #DF5454",
"G+	c #E05353",
"H+	c #EFAEAE",
"I+	c #BE4A4A",
"J+	c #DB1414",
"K+	c #DA1212",
"L+	c #AA0404",
"M+	c #DD1A1A",
"N+	c #E61F1F",
"O+	c #E51E1E",
"P+	c #E41D1D",
"Q+	c #EA5252",
"R+	c #E67373",
"S+	c #BE4848",
"T+	c #DB1A1A",
"U+	c #DB1111",
"V+	c #DC1313",
"W+	c #A60101",
"X+	c #A90202",
"Y+	c #DB1919",
"Z+	c #E41C1C",
"`+	c #E31B1B",
" @	c #E95050",
".@	c #E57171",
"+@	c #E05959",
"@@	c #BC4545",
"#@	c #A80101",
"$@	c #E27777",
"%@	c #DD2828",
"&@	c #DA1111",
"*@	c #AA0202",
"=@	c #DA1818",
"-@	c #E21A1A",
";@	c #E11919",
">@	c #E74F4F",
",@	c #DF5252",
"'@	c #E26464",
")@	c #E99D9D",
"!@	c #D96060",
"~@	c #DF3D3D",
"{@	c #DA1010",
"]@	c #B80707",
"^@	c #D81616",
"/@	c #E01818",
"(@	c #DF1717",
"_@	c #E64D4D",
":@	c #E47070",
"<@	c #AB0C0C",
"[@	c #CC5353",
"}@	c #E57272",
"|@	c #E38E8E",
"1@	c #B93737",
"2@	c #C84040",
"3@	c #E45B5B",
"4@	c #D90F0F",
"5@	c #CB0D0D",
"6@	c #A80202",
"7@	c #D71414",
"8@	c #DF1616",
"9@	c #DE1515",
"0@	c #E44B4B",
"a@	c #E36E6E",
"b@	c #B11A1A",
"c@	c #D14040",
"d@	c #DD4343",
"e@	c #DC4242",
"f@	c #E57A7A",
"g@	c #D56D6D",
"h@	c #B73131",
"i@	c #B01818",
"j@	c #EA7D7D",
"k@	c #D80F0F",
"l@	c #D91010",
"m@	c #D61313",
"n@	c #DD1414",
"o@	c #E44A4A",
"p@	c #E26E6E",
"q@	c #A70000",
"r@	c #D20808",
"s@	c #D10606",
"t@	c #D00505",
"u@	c #E57979",
"v@	c #B21515",
"w@	c #E47676",
"x@	c #DC2828",
"y@	c #BF0808",
"z@	c #A80000",
"A@	c #D41111",
"B@	c #E24848",
"C@	c #E26D6D",
"D@	c #B90404",
"E@	c #D20707",
"F@	c #D52020",
"G@	c #E07272",
"H@	c #C93D3D",
"I@	c #E45E5E",
"J@	c #D80E0E",
"K@	c #D70F0F",
"L@	c #A90101",
"M@	c #D30F0F",
"N@	c #E14747",
"O@	c #E06C6C",
"P@	c #A80B0B",
"Q@	c #A40000",
"R@	c #D00707",
"S@	c #DF5858",
"T@	c #C83939",
"U@	c #A90404",
"V@	c #E88080",
"W@	c #D91B1B",
"X@	c #C60B0B",
"Y@	c #D10D0D",
"Z@	c #D70C0C",
"`@	c #DF4545",
" #	c #E17373",
".#	c #C30909",
"+#	c #D31515",
"@#	c #E57B7B",
"##	c #A80303",
"$#	c #E66565",
"%#	c #BB0707",
"&#	c #D00C0C",
"*#	c #D70D0D",
"=#	c #D60C0C",
"-#	c #D50A0A",
";#	c #DA2929",
">#	c #D30909",
",#	c #E16161",
"'#	c #C73535",
")#	c #E27070",
"!#	c #DF3C3C",
"~#	c #D81010",
"{#	c #B20404",
"]#	c #CE0A0A",
"^#	c #D50B0B",
"/#	c #D40A0A",
"(#	c #D30808",
"_#	c #D93636",
":#	c #DF6B6B",
"<#	c #B01313",
"[#	c #E98282",
"}#	c #DB2525",
"|#	c #BA0606",
"1#	c #CF0909",
"2#	c #D51E1E",
"3#	c #E67E7E",
"4#	c #B01212",
"5#	c #BC2929",
"6#	c #EA8383",
"7#	c #DA2020",
"8#	c #C50909",
"9#	c #A70202",
"0#	c #C20606",
"a#	c #D51A1A",
"b#	c #BC2727",
"c#	c #C23434",
"d#	c #EA8484",
"e#	c #DB2828",
"f#	c #D50E0E",
"g#	c #BD0707",
"h#	c #BC0505",
"i#	c #D10909",
"j#	c #D40909",
"k#	c #D62222",
"l#	c #E78181",
"m#	c #C23232",
"n#	c #BD2C2C",
"o#	c #E98686",
"p#	c #DF4141",
"q#	c #D70E0E",
"r#	c #CA0A0A",
"s#	c #AB0202",
"t#	c #BA0505",
"u#	c #C60808",
"v#	c #D40B0B",
"w#	c #DB3D3D",
"x#	c #E78383",
"y#	c #BD2A2A",
"z#	c #AF1616",
"A#	c #E27676",
"B#	c #E66F6F",
"C#	c #DA2222",
"D#	c #D60D0D",
"E#	c #D60B0B",
"F#	c #D61D1D",
"G#	c #E46C6C",
"H#	c #B01515",
"I#	c #A60202",
"J#	c #C84141",
"K#	c #E88686",
"L#	c #E46363",
"M#	c #DA2A2A",
"N#	c #D82727",
"O#	c #E26060",
"P#	c #E78484",
"Q#	c #A50202",
"R#	c #910000",
"S#	c #A80707",
"T#	c #C94242",
"U#	c #E37878",
"V#	c #E97F7F",
"W#	c #E35959",
"X#	c #DD3939",
"Y#	c #DA2525",
"Z#	c #D71616",
"`#	c #D60E0E",
" $	c #D61515",
".$	c #D92424",
"+$	c #DB3737",
"@$	c #E15757",
"#$	c #E87E7E",
"$$	c #C94040",
"%$	c #930000",
"&$	c #800000",
"*$	c #A20000",
"=$	c #AE1919",
"-$	c #E88585",
";$	c #D95F5F",
">$	c #C83E3E",
",$	c #A10000",
"'$	c #820000",
")$	c #750000",
"!$	c #940000",
"~$	c #A00101",
"{$	c #A30000",
"]$	c #A00000",
"^$	c #950000",
"/$	c #790000",
"                                                                                                ",
"                                                                                                ",
"                                                                                                ",
"                                        . + @ # $ % @ &                                         ",
"                                * = - ; > , ' ) ) ! ~ { ] - ^ /                                 ",
"                            ( _ : < [ } | 1 2 3 4 5 6 7 8 9 ~ ] 0 a                             ",
"                          b c d e f g h h h h h i j k l m n o p q r s                           ",
"                      t u ~ v w h h x x x x g h h i j k l m n y z A B u C                       ",
"                    D E d F h h g x g G H I _ J K L I M N l n O P Q R q S T                     ",
"                  J U V 6 i h g W X Y Z `              .Y _ ..+.y @.#.$.%.&.*.                  ",
"                K =.-.;.i h g >.,.'.                        )._ !.@.#.~.{.%.].^.                ",
"                /.(._.k i h :.<.[.                              L }.Q ~.|.1.2./.                ",
"              3.4.5.6.k h h 7.8.9.0.                              a.b.c.|.d.e.f.g.              ",
"            h.i.p m 6.i j.g k.l.m.n.0.                              o.p.|.q.r.s.t.u.            ",
"            ` v.w.l k x.0 j.l.l.y.z.A.B.                              C.D.q.r.E.F.u.            ",
"            G.H.n l I.Y J.Y K.L.y.M.N.O.B.                              P.Q.r.R.S.T.U.          ",
"          V.W.X.n l M Y.    Z.`.y.M. +.+++).                            P.@+d.R.#+$+%+          ",
"          - &+O n I.*+        Z.=+M. +-+;+O.).                            g.r.R.>+,+'+          ",
"          ] )+y n !+~+          Z.{+]+ + +N.^+/+                          (+_+R.>+:+<+[+        ",
"        }+|+1+y n 2+              Z.3+]+4+]+z.n.u.                          5+6+>+7+8+9+        ",
"        0+a+b+y O c+                d+{+M.y.y.m.n.*+                        L 6+>+e+f+9+        ",
"        g+h+i+j+k+l+                  m+=+y.y.n+o+9.D                       K >+>+p+q+t         ",
"        r+s+t+u+v+w+                    b x+y+z+A+B+C+D+                    E+F+G+>+H+I+        ",
"        r+s+J+u+K+w+                      L+M+N+O+P+Q+R+D+                  U.F+G+>+H+S+        ",
"        g+h+T+U+V+W+                        X+Y+P+Z+`+ @.@D+                ^.>+G++@q+@@        ",
"        #@$@%@&@u+*@                          X+=@`+-@;@>@.@D+              L >+,@'@)@(         ",
"        r+!@~@{@U+]@                            X+^@;@/@(@_@:@<@            [@G+,@}@|@1@        ",
"          2@3@4@&@5@#@                            6@7@(@8@9@0@a@<@        b@c@d@e@f@g@h@        ",
"          i@j@k@l@l@W+                              6@m@9@n@V+o@p@<@      q@r@s@t@u@v@          ",
"          #@w@x@4@{@y@z@                              X+A@V+u+{@B@C@<@  z@D@E@s@F@G@r+          ",
"            H@I@J@4@K@L@                                #@M@&@l@J@N@O@P@Q@R@E@t@S@T@r+          ",
"            U@V@W@k@l@X@g+                                #@Y@k@J@Z@`@ #.#E@s@+#@###            ",
"            6@T@$#J@k@l@%##@                                #@&#*#=#-#;#>#E@t@,#'#q@            ",
"              6@)#!#J@k@~#{#W+                                #@]#^#/#(#E@s@_#:#g+              ",
"                <#[#}#J@J@4@|#g+                              Q@Q@1#>#r@s@2#3#4#                ",
"                w+5#6#7#*#J@k@8#g+9#                        q@#@0#>#(#E@a#3#b#r+                ",
"                  r+c#d#e#*#J@J@f#g#W+g+                g+g+h#i#j#(#E@k#l#m#q@                  ",
"                    z@n#o#p#=#*#*#J@q#r#|#s#w+w+Q@g+s#t#u#v#/#>#(#E@w#x#y#r+                    ",
"                      q@z#A#B#C#=#Z@*#*#*#*#*#D#=#=#E#^#-#j#>#(#F#G#G@H#q@                      ",
"                          I#J#K#L#M#=#=#=#=#=#E#^#^#-#/#j#>#N#O#P#2@Q#                          ",
"                            R#S#T#U#V#W#X#Y#Z#`#f# $.$+$@$#$$@$$S#%$                            ",
"                                &$*$=$2@!@A#K#s+s+-$A#;$>$=$,$'$                                ",
"                                      )$!$~${$Q@Q@{$]$^$/$                                      ",
"                                                                                                ",
"                                                                                                ",
"                                                                                                ",
"                                                                                                ",
"                                                                                                "};
