/* XPM */
static char * file_xpm[] = {
"48 48 52 1",
" 	c None",
".	c #90938D",
"+	c #888A85",
"@	c #FFFFFF",
"#	c #F8F8F7",
"$	c #F7F7F6",
"%	c #F6F6F6",
"&	c #F6F6F5",
"*	c #F5F5F4",
"=	c #F4F4F4",
"-	c #F5F5F5",
";	c #F4F4F3",
">	c #F3F3F3",
",	c #F3F3F2",
"'	c #999999",
")	c #F2F2F2",
"!	c #F2F2F1",
"~	c #F1F1F1",
"{	c #F1F1F0",
"]	c #F0F0F0",
"^	c #F0F0EF",
"/	c #EFEFEF",
"(	c #EFEFEE",
"_	c #EEEEEE",
":	c #EEEEED",
"<	c #EDEDED",
"[	c #EDEDEC",
"}	c #ECECEC",
"|	c #EBEBEB",
"1	c #ECECEB",
"2	c #EBEBEA",
"3	c #EAEAEA",
"4	c #E9E9E9",
"5	c #EAEAE9",
"6	c #E8E8E8",
"7	c #E7E7E7",
"8	c #E7E7E6",
"9	c #E6E6E5",
"0	c #E6E6E6",
"a	c #E6E6E4",
"b	c #E9E9E8",
"c	c #E5E5E4",
"d	c #E5E5E3",
"e	c #E4E4E2",
"f	c #E4E4E1",
"g	c #E3E3E1",
"h	c #E3E3E0",
"i	c #E3E3DF",
"j	c #E2E2DF",
"k	c #E2E2DE",
"l	c #8C8E8A",
"m	c #8A8B87",
"                                                ",
"    .++++++++++++++++++++++++++++++++++++++.    ",
"    +@@@@@@@@@@@@@@@@@@@@@@@@@@@@@@@@@@@@@@+    ",
"    +@###################################$@+    ",
"    +@#################################$$%@+    ",
"    +@################################$$&&@+    ",
"    +@##############################$$&&&*@+    ",
"    +@############################$$$&&**=@+    ",
"    +@###########################$$&&-**;;@+    ",
"    +@#########################$$$&&**=;>,@+    ",
"    +@###'''''''''''''''''''''''''''''',,)@+    ",
"    +@###'''''''''''''''''''''''''''''',!!@+    ",
"    +@#####################$$&&**=;;,,)!~{@+    ",
"    +@###################$$%&&**;;>,)!!~{]@+    ",
"    +@##################$$&&**=;;,,)!~{]^^@+    ",
"    +@################$$&&&**;;>,)!!~{]^/(@+    ",
"    +@###''''''''''''''''''''''''''''''/(_@+    ",
"    +@###''''''''''''''''''''''''''''''__:@+    ",
"    +@###########$$$&&**=;>,,!!~{]^//(_:<<@+    ",
"    +@##########$$&&-**;;,,)!~{{]^/(__<<[}@+    ",
"    +@########$$%&&**;;>,,!!~{]^//(_:<[}}|@+    ",
"    +@#######$$&&**=;;,,)!~{{]^/(_:<<[}1||@+    ",
"    +@###''''''''''''''''''''''''''''''|23@+    ",
"    +@###''''''''''''''''''''''''''''''334@+    ",
"    +@##$$&&-**;;>,)!!{{]^/(__:<[}}||23544@+    ",
"    +@$$$&&**=;>,,)!~{]^^/(_:<<}}1|2334466@+    ",
"    +@$&&-**;;>,)!~{{]^/(__:<[}}||33544667@+    ",
"    +@&&**=;>,,!!~{]^//(_:<<}}1|2334466677@+    ",
"    +@-**''''''''''''''''''''''''''''''778@+    ",
"    +@*;;''''''''''''''''''''''''''''''889@+    ",
"    +@;;,,)!~{{]^/(_:<<[}1||33444667788099@+    ",
"    +@>,)!!~{]^/(__:<[}}||233446677780999a@+    ",
"    +@,)!~{]^^/(_:<<}}1||3344b667788099acc@+    ",
"    +@!!{{]^/(__:<[}}||335446677780999ccdd@+    ",
"    +@~{]''''''''''''''''''''''''''''''dde@+    ",
"    +@{]^''''''''''''''''''''''''''''''eee@+    ",
"    +@^//(_:<[}}1|233446667788999acdddeeff@+    ",
"    +@/(__<<[}1||33544667778099accddeeefgh@+    ",
"    +@(_:<[}}||233446667788999acdddeeffghh@+    ",
"    +@:<<[}1||33444667788099accddeeefghhij@+    ",
"    +@<[}}||233446677780999acdddeeffhhhijk@+    ",
"    +@}}1||3344b667788099accddeeffghhijjkk@+    ",
"    +@}||335446677780999ccddeeeffhhhijkkkk@+    ",
"    +@|233446667788099acdddeeffghhijjkkkkk@+    ",
"    +@33544667778099accddeeefghhhjjkkkkkkk@+    ",
"    +@@@@@@@@@@@@@@@@@@@@@@@@@@@@@@@@@@@@@@+    ",
"    l++++++++++++++++++++++++++++++++++++++m    ",
"                                                "};
