/* XPM */
static char * font_xpm[] = {
"48 48 171 2",
"  	c None",
". 	c #A1A1A1",
"+ 	c #9C9C9C",
"@ 	c #9B9B9B",
"# 	c #9D9D9D",
"$ 	c #A0A0A0",
"% 	c #BFBFBF",
"& 	c #EBEBEB",
"* 	c #F7F7F7",
"= 	c #F9F9F9",
"- 	c #FAFAFA",
"; 	c #F6F6F6",
"> 	c #E8E8E8",
", 	c #B7B7B7",
"' 	c #9E9E9E",
") 	c #9F9F9F",
"! 	c #DCDCDC",
"~ 	c #FCFCFC",
"{ 	c #EFEFEF",
"] 	c #E9E9E9",
"^ 	c #EAEAEA",
"/ 	c #F0F0F0",
"( 	c #D1D1D1",
"_ 	c #C4C4C4",
": 	c #FBFBFB",
"< 	c #E6E6E6",
"[ 	c #E2E2E2",
"} 	c #E3E3E3",
"| 	c #E4E4E4",
"1 	c #E5E5E5",
"2 	c #B6B6B6",
"3 	c #EDEDED",
"4 	c #D2D2D2",
"5 	c #989898",
"6 	c #9A9A9A",
"7 	c #E1E1E1",
"8 	c #C6C6C6",
"9 	c #DADADA",
"0 	c #E7E7E7",
"a 	c #7F7F7F",
"b 	c #353535",
"c 	c #707070",
"d 	c #1C1C1C",
"e 	c #141414",
"f 	c #606060",
"g 	c #303030",
"h 	c #D8D8D8",
"i 	c #5B5B5B",
"j 	c #000000",
"k 	c #565656",
"l 	c #E0E0E0",
"m 	c #CFCFCF",
"n 	c #F8F8F8",
"o 	c #7A7A7A",
"p 	c #0B0B0B",
"q 	c #C0C0C0",
"r 	c #343434",
"s 	c #202020",
"t 	c #BEBEBE",
"u 	c #060606",
"v 	c #777777",
"w 	c #424242",
"x 	c #030303",
"y 	c #D9D9D9",
"z 	c #3A3A3A",
"A 	c #A6A6A6",
"B 	c #313131",
"C 	c #4E4E4E",
"D 	c #DEDEDE",
"E 	c #080808",
"F 	c #373737",
"G 	c #1B1B1B",
"H 	c #292929",
"I 	c #C3C3C3",
"J 	c #050505",
"K 	c #4C4C4C",
"L 	c #ECECEC",
"M 	c #CECECE",
"N 	c #0E0E0E",
"O 	c #BDBDBD",
"P 	c #BCBCBC",
"Q 	c #7D7D7D",
"R 	c #8D8D8D",
"S 	c #5C5C5C",
"T 	c #0D0D0D",
"U 	c #161616",
"V 	c #898989",
"W 	c #CBCBCB",
"X 	c #525252",
"Y 	c #4B4B4B",
"Z 	c #767676",
"` 	c #EEEEEE",
" .	c #2A2A2A",
"..	c #D7D7D7",
"+.	c #121212",
"@.	c #090909",
"#.	c #B5B5B5",
"$.	c #101010",
"%.	c #686868",
"&.	c #6A6A6A",
"*.	c #D0D0D0",
"=.	c #8C8C8C",
"-.	c #AEAEAE",
";.	c #929292",
">.	c #B4B4B4",
",.	c #B2B2B2",
"'.	c #0F0F0F",
").	c #0C0C0C",
"!.	c #ABABAB",
"~.	c #616161",
"{.	c #484848",
"].	c #3C3C3C",
"^.	c #F1F1F1",
"/.	c #1F1F1F",
"(.	c #212121",
"_.	c #FDFDFD",
":.	c #2C2C2C",
"<.	c #2B2B2B",
"[.	c #3D3D3D",
"}.	c #0A0A0A",
"|.	c #2D2D2D",
"1.	c #F2F2F2",
"2.	c #4F4F4F",
"3.	c #464646",
"4.	c #838383",
"5.	c #F3F3F3",
"6.	c #F4F4F4",
"7.	c #D3D3D3",
"8.	c #B9B9B9",
"9.	c #C2C2C2",
"0.	c #F5F5F5",
"a.	c #AAAAAA",
"b.	c #020202",
"c.	c #C8C8C8",
"d.	c #B1B1B1",
"e.	c #010101",
"f.	c #1E1E1E",
"g.	c #595959",
"h.	c #6E6E6E",
"i.	c #242424",
"j.	c #6D6D6D",
"k.	c #393939",
"l.	c #1D1D1D",
"m.	c #252525",
"n.	c #D5D5D5",
"o.	c #DBDBDB",
"p.	c #535353",
"q.	c #646464",
"r.	c #ACACAC",
"s.	c #494949",
"t.	c #B8B8B8",
"u.	c #262626",
"v.	c #5A5A5A",
"w.	c #919191",
"x.	c #222222",
"y.	c #7B7B7B",
"z.	c #545454",
"A.	c #151515",
"B.	c #383838",
"C.	c #787878",
"D.	c #7C7C7C",
"E.	c #939393",
"F.	c #171717",
"G.	c #323232",
"H.	c #ADADAD",
"I.	c #B0B0B0",
"J.	c #A2A2A2",
"K.	c #DFDFDF",
"L.	c #FEFEFE",
"M.	c #FFFFFF",
"N.	c #C7C7C7",
"                                                                                                ",
"                                                                                                ",
"                                                                                                ",
"                . + @ @ @ @ @ @ @ @ @ @ @ @ @ @ @ @ @ @ @ @ @ @ @ @ @ @ @ @ @ # $               ",
"            # % & * = = = = = = = = = = - - - - - - - - - = = = = = = = = = = ; > , '           ",
"          ) ! ~ { ] > > ] ] ] ] ] ] ] ] ] ^ ^ ^ ^ ^ ^ ^ ] ] ] ] ] ] ] ] ] > > ] / ~ ( )         ",
"        ) _ : < [ [ } } } | | | 1 1 1 1 1 1 1 1 1 1 1 1 1 1 1 1 1 | | | } } } [ [ > : 2         ",
"        ) / 3 [ } } | | | 4 5 6 7 8 6 9 < < < < < < < < < < < < 1 1 1 1 | | | } } [ / > $       ",
"        + : 0 } } | | 1 a b $ $ c d e 1 0 0 0 0 0 0 0 0 0 0 0 < < < < 1 1 1 | | } } ^ ; #       ",
"        ' ~ < | | 1 } f g h < 0 i j k > > > > > > > > > > > 0 0 0 0 l m ! 1 1 1 | | ^ n @       ",
"        ' ~ 0 1 1 1 o p m 0 0 > f j 5 > ] ] ] ] ] ] ] ] ] > > > q r j j j s + 1 1 | ^ n @       ",
"        ' ~ > 1 < t u v 0 > > > w x y ] ] ^ ^ ^ ^ ^ ^ ^ ] ] ] ] z j p A B j p [ < 1 & = @       ",
"        ' ~ > < < C u h > > ] D E F ^ ^ ^ ^ & & & & & ^ ^ ^ ^ ^ G j H > f j j I < < & = @       ",
"        ' ~ ] 0 ( J K > ] ] ^ a j o & & & & & & & & & & & & & & d j H ] f j j % 0 0 L = @       ",
"        ' ~ ^ 0 + j o ] ^ ^ M N j O L L L L L L L L L L L L L & d j H ^ P @ @ ! > 0 3 = @       ",
"        ' ~ ^ > Q j R ^ ^ [ S T U & ( 3 3 3 3 3 3 3 3 3 3 3 L L d j H & ^ ^ ] ] > > 3 = @       ",
"        ' ~ & ] V j w < W X , j Y I Z 3 ` ` ` ` ` ` ` ` ` 3 3 3 d j  .& & & ^ ^ ] > 3 = @       ",
"        ' ~ L ] ..+.j @.F ..#.j $.%.^ ` { L 3 { { { { { { ` ` ` d j  .L &.$.$.*.^ ] 3 - @       ",
"        ' ~ L ^ ^ *.=.-.L 3 > ;.>.{ { { ,.'.).!./ / / { { { { { d j  .3 ~.j j m ^ ^ ` - @       ",
"        ' ~ L ^ & L L 3 3 ` ` { { { / / {.j j ].^.^./ / / / / { /.j (.` i j j *.& ^ { - @       ",
"        ' _.L & L L 3 3 ` { { { / / / ^.:.j j <.^.^.^.^.^.^./ / %.j j [.}.j |.^ L & { - @       ",
"        ' _.3 L L 3 3 ` { { / / ^.^.^.1.<.j j <.1.1.1.1.1.1.^.^.` # 2.r 3.4.[ 3 L & / - @       ",
"        ' _.3 L 3 3 ` { { / / ^.^.1.1.1.<.j j <.5.5.5.5.5.1.1.1.^.^./ / { { ` 3 3 L / - @       ",
"        ' _.` 3 3 ` { { / / ^.1.1.1.5.5.<.j j <.6.6.6.7.8.9.} 1.1.1.^./ / { { ` 3 3 / - @       ",
"        ' _.` 3 ` { { / / ^.1.1.5.5.6.6.<.j j <.0.a. .j j j b.Y c.1.1.^./ / { { ` 3 / : @       ",
"        ' _.{ ` ` { / / ^.1.1.5.5.6.6.0.<.j j  .c j j j j j j j p d.1.1.^./ / { ` ` ^.: @       ",
"        ' _.{ ` { { / ^.1.1.5.5.6.0.0.0.<.j j e.j j f.g.C @.j j j +.l 1.1.^./ { { ` ^.: @       ",
"        ' _./ ` { / ^.^.1.5.5.6.0.0.; ; :.j j j j h.5.* * y i.j j j j.5.1.^.^./ { ` 1.: @       ",
"        ' _./ { / / ^.1.5.5.6.0.0.; ; * :.j j j k.* n n * * t j j j l.1.1.1.^./ { { 1.: @       ",
"        ' _./ { / ^.1.1.5.6.0.0.; * * n :.j j j . = = n n n * m.j j j n.5.1.^.^./ { 1.: @       ",
"        ' _.^.{ / ^.1.5.5.6.0.; ; * n n :.j j j o.- - = = n n p.j j j % 5.1.1.^./ { 5.: @       ",
"        ' _.^./ / ^.1.5.6.0.0.; * n n = :.j j j 3 : - - = = n q.j j j r.6.5.1.^./ { 5.: @       ",
"        ' _.^./ ^.1.1.5.6.0.; ; * n = = :.j j j 9 : : : - = = s.j j j O 6.5.1.^.^./ 5.: @       ",
"        ' _.^./ ^.1.1.5.6.0.; * n n = - :.j j j t.~ ~ : : - = u.j j j D 6.5.1.1.^./ 5.: @       ",
"        ' _.^./ ^.1.5.5.6.0.; * n n = - :.j j j v._.~ ~ : - q j j j (.0.6.5.1.1.^./ 5.: @       ",
"        ' _.^./ ^.1.5.6.6.0.; * n = = - :.j j j e.w.~ ~ : h x.j j j y.0.6.5.5.1.^./ 5.: @       ",
"        ' _.^./ ^.1.5.6.6.0.; * n = = - :.j j J j j <.~.z.p j j j A.1 0.6.5.5.1.^./ 5.: @       ",
"        ' _.^./ ^.1.5.5.6.0.; * n n = - B.j j b C.j j j j j j j }.2 ; 0.6.5.1.1.^./ 5.: @       ",
"        # _.^./ ^.1.1.5.6.0.; * * n = - D.j j Q ~ E.F.j j j j G.8 * ; 0.6.5.1.1.^./ 5.= '       ",
"        ) ; 6./ ^.^.1.5.6.0.0.; * n = = n H.I.- : : 6.O # J.M n * ; 0.0.6.5.1.^.^./ ; { J.      ",
"        . ( ~ ^./ ^.1.5.6.6.0.; * * n = = - - : : : - - = = n * * ; 0.6.6.5.1.^./ ^._.9.        ",
"          ) ^ _.0.5.5.5.6.0.; ; * n n n = = = - - - = = = n n n * ; ; 0.6.5.5.5.; _.K..         ",
"            ' *.* _.L.L.L.L.L.L.L.L.L.M.M.M.M.M.M.M.M.M.M.L.L.L.L.L.L.L.L.L.L._.6.N.)           ",
"              $ $ # ) ) ) ) ) ) ) ) ' ' ' ' ' ' ' ' ' ' ' ' ' ' ) ) ) ) ) ) ) # ) '             ",
"                                                                                                ",
"                                                                                                ",
"                                                                                                ",
"                                                                                                "};
