/* XPM */
static char * json_xpm[] = {
"48 48 548 2",
"  	c None",
". 	c #EBEBEA",
"+ 	c #ECECEB",
"@ 	c #EDECEC",
"# 	c #EEEDED",
"$ 	c #E9E9E8",
"% 	c #EBEAEA",
"& 	c #ECEAEA",
"* 	c #B7B6B6",
"= 	c #E8E8E7",
"- 	c #EAEAE9",
"; 	c #EBE9E9",
"> 	c #B4B2B2",
", 	c #939292",
"' 	c #EDEDEC",
") 	c #EEEEED",
"! 	c #B3B2B1",
"~ 	c #919090",
"{ 	c #9A9998",
"] 	c #EAEAE8",
"^ 	c #B2B1B0",
"/ 	c #908E8D",
"( 	c #989796",
"_ 	c #999898",
": 	c #EAEAEA",
"< 	c #B0B0AE",
"[ 	c #8D8C8B",
"} 	c #969594",
"| 	c #9C9B9A",
"1 	c #BABAB9",
"2 	c #EFEEEE",
"3 	c #B0AFAE",
"4 	c #8A8988",
"5 	c #979695",
"6 	c #9B9A99",
"7 	c #BBBABA",
"8 	c #BBB9B9",
"9 	c #878685",
"0 	c #949393",
"a 	c #989797",
"b 	c #9D9C9B",
"c 	c #9D9C9C",
"d 	c #B9B9B8",
"e 	c #F0EFEF",
"f 	c #DBDAD9",
"g 	c #959493",
"h 	c #898887",
"i 	c #929191",
"j 	c #969595",
"k 	c #9E9D9C",
"l 	c #9F9E9E",
"m 	c #BAB9B8",
"n 	c #EEEDEC",
"o 	c #D1D0CF",
"p 	c #8E8D8C",
"q 	c #959494",
"r 	c #999897",
"s 	c #9F9E9D",
"t 	c #B4B3B3",
"u 	c #E1E1E0",
"v 	c #CDCDCC",
"w 	c #C8C7C7",
"x 	c #C9C8C8",
"y 	c #CAC9C9",
"z 	c #CBCAC9",
"A 	c #CBCBCA",
"B 	c #EEEFED",
"C 	c #EFEFEE",
"D 	c #EDEEEC",
"E 	c #EBEBEC",
"F 	c #ECECEC",
"G 	c #EDECED",
"H 	c #EDEDED",
"I 	c #EEEDEE",
"J 	c #EDEDF0",
"K 	c #EBECED",
"L 	c #EDEDEE",
"M 	c #EEEDEF",
"N 	c #EEEEEF",
"O 	c #EFEEF0",
"P 	c #EEEEF1",
"Q 	c #C4BF6B",
"R 	c #BFBA61",
"S 	c #BFBA5F",
"T 	c #C9C57F",
"U 	c #CAC682",
"V 	c #CBC785",
"W 	c #C3BE6B",
"X 	c #BEB95B",
"Y 	c #C1BC64",
"Z 	c #BDB967",
"` 	c #BDB964",
" .	c #CCC779",
"..	c #CECA7E",
"+.	c #CCC778",
"@.	c #CBC777",
"#.	c #CCC777",
"$.	c #CBC776",
"%.	c #CBC778",
"&.	c #CCC87A",
"*.	c #C6C271",
"=.	c #B9B45D",
"-.	c #B6B15F",
";.	c #CECA80",
">.	c #C9C57A",
",.	c #C5C075",
"'.	c #C6C176",
").	c #C6C175",
"!.	c #C4BF71",
"~.	c #C2BD71",
"{.	c #C7C276",
"].	c #C3BE70",
"^.	c #C1BC6D",
"/.	c #C5C074",
"(.	c #C3BE72",
"_.	c #BFBA6B",
":.	c #C7C374",
"<.	c #C5C175",
"[.	c #C2BD6F",
"}.	c #C1BD70",
"|.	c #C0BB6B",
"1.	c #C7C375",
"2.	c #C6C276",
"3.	c #C4BF72",
"4.	c #C3BE71",
"5.	c #C7C377",
"6.	c #C3BF72",
"7.	c #D0CC82",
"8.	c #B3AD5B",
"9.	c #B9B467",
"0.	c #BAB669",
"a.	c #ACA657",
"b.	c #ACA658",
"c.	c #ACA758",
"d.	c #AAA453",
"e.	c #DBD9B3",
"f.	c #C6C4AD",
"g.	c #918A47",
"h.	c #ACA653",
"i.	c #BAB573",
"j.	c #E3E0C2",
"k.	c #F4F3E7",
"l.	c #EBEADE",
"m.	c #C3BFA0",
"n.	c #989252",
"o.	c #ABA655",
"p.	c #A9A352",
"q.	c #C8C58F",
"r.	c #E9E7CE",
"s.	c #F5F4E9",
"t.	c #E5E4D4",
"u.	c #BFBB98",
"v.	c #989250",
"w.	c #AAA454",
"x.	c #AAA452",
"y.	c #C6C28A",
"z.	c #E5E4D0",
"A.	c #969160",
"B.	c #A49E4E",
"C.	c #ADA758",
"D.	c #AEA95B",
"E.	c #E6E4CA",
"F.	c #AAA582",
"G.	c #9D974C",
"H.	c #B0AA5C",
"I.	c #AAA55A",
"J.	c #A7A256",
"K.	c #A7A156",
"L.	c #A7A257",
"M.	c #A6A155",
"N.	c #F5F4EA",
"O.	c #E7E6E7",
"P.	c #7C753D",
"Q.	c #B4AF69",
"R.	c #F8F8F1",
"S.	c #E5E4E1",
"T.	c #C0BD9C",
"U.	c #DCDABC",
"V.	c #FFFFFF",
"W.	c #C8C6BD",
"X.	c #868042",
"Y.	c #A6A050",
"Z.	c #D5D3AE",
"`.	c #E4E3E0",
" +	c #D0CEB3",
".+	c #EAE9D7",
"++	c #D3D1C9",
"@+	c #888249",
"#+	c #A29C4B",
"$+	c #DDDBBF",
"%+	c #D5D3CD",
"&+	c #817B40",
"*+	c #A8A252",
"=+	c #B0AA66",
"-+	c #BBB8AC",
";+	c #857E3C",
">+	c #ADA85B",
",+	c #A8A358",
"'+	c #A09A52",
")+	c #A19B53",
"!+	c #A09A51",
"~+	c #A19B52",
"{+	c #F1F0E3",
"]+	c #787138",
"^+	c #C2BE8D",
"/+	c #999577",
"(+	c #817A2C",
"_+	c #96903D",
":+	c #D8D5B4",
"<+	c #E2E1DA",
"[+	c #7B743C",
"}+	c #B5B175",
"|+	c #D6D4CB",
"1+	c #827B43",
"2+	c #9A9345",
"3+	c #9B9548",
"4+	c #D2CFAD",
"5+	c #A8A48E",
"6+	c #878036",
"7+	c #ACA892",
"8+	c #88813A",
"9+	c #ACA765",
"0+	c #BCB8A9",
"a+	c #847D3D",
"b+	c #A49E55",
"c+	c #9A944F",
"d+	c #9A9550",
"e+	c #99944E",
"f+	c #F0EFE3",
"g+	c #E6E5E1",
"h+	c #77713A",
"i+	c #ADA86E",
"j+	c #FEFEFD",
"k+	c #F1F1EF",
"l+	c #C1BEA5",
"m+	c #ACA879",
"n+	c #979153",
"o+	c #958F4D",
"p+	c #938C43",
"q+	c #CAC7A3",
"r+	c #959071",
"s+	c #8C8540",
"t+	c #9D9752",
"u+	c #97914A",
"v+	c #A29D5D",
"w+	c #FDFDFB",
"x+	c #D3D1C8",
"y+	c #756E31",
"z+	c #DCDABE",
"A+	c #F5F4F3",
"B+	c #DBD9D0",
"C+	c #F9F8F9",
"D+	c #868056",
"E+	c #9C9757",
"F+	c #BCB9A9",
"G+	c #7F783A",
"H+	c #938D4B",
"I+	c #948E4C",
"J+	c #948E4D",
"K+	c #8E8844",
"L+	c #908A45",
"M+	c #948E4B",
"N+	c #938E4B",
"O+	c #EFEEE2",
"P+	c #E6E5E2",
"Q+	c #78723F",
"R+	c #908A43",
"S+	c #B0AB7B",
"T+	c #EBE9DB",
"U+	c #EDECE8",
"V+	c #ABA788",
"W+	c #807937",
"X+	c #D4D1B4",
"Y+	c #88835D",
"Z+	c #8D8644",
"`+	c #958F4C",
" @	c #928C4A",
".@	c #979051",
"+@	c #F6F6EF",
"@@	c #E5E4E0",
"#@	c #746D35",
"$@	c #D9D7BC",
"%@	c #F2F2F1",
"&@	c #89835C",
"*@	c #FBFAF6",
"=@	c #D6D4CA",
"-@	c #827C4C",
";@	c #FEFEFE",
">@	c #7B7438",
",@	c #96914D",
"'@	c #8C8648",
")@	c #8D8749",
"!@	c #8B8445",
"~@	c #B3AE83",
"{@	c #A39F75",
"]@	c #837C3F",
"^@	c #8E8748",
"/@	c #EDECE0",
"(@	c #E7E6E3",
"_@	c #756F3C",
":@	c #958F52",
"<@	c #958F57",
"[@	c #867F40",
"}@	c #9D9761",
"|@	c #BAB690",
"1@	c #F3F2EB",
"2@	c #FEFEFF",
"3@	c #807A51",
"4@	c #C0BD9D",
"5@	c #8E8967",
"6@	c #837C3D",
"7@	c #8F884A",
"8@	c #938D52",
"9@	c #FAFAF6",
"0@	c #DBDAD3",
"a@	c #6E672F",
"b@	c #D6D4BB",
"c@	c #F7F7F8",
"d@	c #756F3D",
"e@	c #B7B38B",
"f@	c #B9B6A3",
"g@	c #F8F8F6",
"h@	c #BEBAAA",
"i@	c #777036",
"j@	c #8F894A",
"k@	c #857F45",
"l@	c #868045",
"m@	c #837D41",
"n@	c #EFEEE5",
"o@	c #E4E3E1",
"p@	c #6A632D",
"q@	c #847D40",
"r@	c #F2F2EB",
"s@	c #E7E6E1",
"t@	c #6C6530",
"u@	c #C2BE9E",
"v@	c #F5F5F4",
"w@	c #7C764B",
"x@	c #787231",
"y@	c #726B25",
"z@	c #B6B38F",
"A@	c #8F8968",
"B@	c #9C976C",
"C@	c #C5C2B2",
"D@	c #6E672E",
"E@	c #80793A",
"F@	c #797231",
"G@	c #B3AF8A",
"H@	c #B8B5A1",
"I@	c #6D6529",
"J@	c #D4D1BB",
"K@	c #F8F7F8",
"L@	c #7A7447",
"M@	c #817A3B",
"N@	c #DDDBCB",
"O@	c #BBB8A7",
"P@	c #726B33",
"Q@	c #898247",
"R@	c #868046",
"S@	c #7F7841",
"T@	c #807942",
"U@	c #797237",
"V@	c #CAC7B0",
"W@	c #AFAB92",
"X@	c #BDB99D",
"Y@	c #C5C2B3",
"Z@	c #6A632C",
"`@	c #A19C72",
" #	c #D7D6CC",
".#	c #928C65",
"+#	c #A5A078",
"@#	c #EEEDE5",
"##	c #F6F6F5",
"$#	c #7C764C",
"%#	c #7B743A",
"&#	c #DBD9C9",
"*#	c #C6C3B3",
"=#	c #A39E79",
"-#	c #C0BB9F",
";#	c #FFFFFE",
">#	c #F0EFEC",
",#	c #7E784E",
"'#	c #756D31",
")#	c #D3D1BC",
"!#	c #FCFCFD",
"~#	c #7A7449",
"{#	c #918B5B",
"]#	c #FAF9F6",
"^#	c #BEBBAA",
"/#	c #6D6631",
"(#	c #79723E",
"_#	c #7A733F",
":#	c #77703A",
"<#	c #837C4C",
"[#	c #D8D6C7",
"}#	c #FCFCFB",
"|#	c #FAFAF9",
"1#	c #D2CFC2",
"2#	c #7B754A",
"3#	c #766F3A",
"4#	c #756E37",
"5#	c #A8A482",
"6#	c #EDECE4",
"7#	c #F8F7F5",
"8#	c #E0DED5",
"9#	c #918C69",
"0#	c #726B36",
"a#	c #78703B",
"b#	c #7E7845",
"c#	c #C5C2AB",
"d#	c #F4F3EF",
"e#	c #FEFDFE",
"f#	c #D3D1C4",
"g#	c #868058",
"h#	c #736C35",
"i#	c #BDBAA0",
"j#	c #E8E6E0",
"k#	c #746E40",
"l#	c #79723D",
"m#	c #716A33",
"n#	c #AAA685",
"o#	c #AAA68D",
"p#	c #7A733E",
"q#	c #726A39",
"r#	c #736C3B",
"s#	c #746C3B",
"t#	c #706837",
"u#	c #716937",
"v#	c #807A4D",
"w#	c #7F794C",
"x#	c #6E6735",
"y#	c #706937",
"z#	c #746D3C",
"A#	c #736B3B",
"B#	c #6D6532",
"C#	c #746D3D",
"D#	c #827C50",
"E#	c #80794D",
"F#	c #716938",
"G#	c #6E6633",
"H#	c #6D6531",
"I#	c #787142",
"J#	c #837C52",
"K#	c #7C7548",
"L#	c #6E6634",
"M#	c #6F6734",
"N#	c #726B3A",
"O#	c #776F3F",
"P#	c #7A7345",
"Q#	c #706836",
"R#	c #7E784B",
"S#	c #746C3C",
"T#	c #736C3A",
"U#	c #716A38",
"V#	c #6D6538",
"W#	c #6A6335",
"X#	c #6A6234",
"Y#	c #676030",
"Z#	c #676031",
"`#	c #6A6334",
" $	c #6B6335",
".$	c #696233",
"+$	c #675F30",
"@$	c #696132",
"#$	c #686031",
"$$	c #686132",
"%$	c #6C6537",
"&$	c #6C6538",
"*$	c #686032",
"=$	c #827B54",
"-$	c #6A6239",
";$	c #665E34",
">$	c #625A2F",
",$	c #6A633A",
"'$	c #6C653D",
")$	c #6C643C",
"!$	c #6C643D",
"~$	c #6B643C",
"{$	c #6D653E",
"]$	c #665F34",
"^$	c #675F35",
"/$	c #706942",
"($	c #D0CECA",
"_$	c #CFCDCA",
":$	c #D0CECB",
"<$	c #D1D0CC",
"[$	c #D3D1CE",
"}$	c #D4D3CF",
"|$	c #D5D3CF",
"1$	c #D5D4CF",
"2$	c #D6D4D0",
"3$	c #D6D5D0",
"4$	c #D6D5D1",
"5$	c #D7D5D1",
"6$	c #D7D6D1",
"7$	c #D5D4D0",
"8$	c #D4D2CE",
"9$	c #D5D3D0",
"0$	c #DEDDDF",
"a$	c #DAD9DA",
"b$	c #DCDBDC",
"c$	c #DEDDDE",
"d$	c #E0DFE0",
"e$	c #E2E1E2",
"f$	c #E3E2E3",
"g$	c #E4E3E4",
"h$	c #E5E4E5",
"i$	c #E5E5E5",
"j$	c #E6E5E6",
"k$	c #E4E4E5",
"l$	c #E4E4E4",
"m$	c #E1E0E1",
"n$	c #DFDEDF",
"o$	c #D5D4D4",
"p$	c #D4D3D3",
"q$	c #D7D6D6",
"r$	c #D8D7D7",
"s$	c #DAD9D9",
"t$	c #DBDADA",
"u$	c #DDDCDC",
"v$	c #DEDDDD",
"w$	c #DFDEDE",
"x$	c #E0DFDF",
"y$	c #E1E0E0",
"z$	c #E2E1E1",
"A$	c #E0E0DF",
"B$	c #DCDBDB",
"C$	c #D9D8D8",
"D$	c #D3D2D2",
"E$	c #D1D1D1",
"F$	c #D6D5D5",
"G$	c #D0CFCF",
"H$	c #CFCECE",
"I$	c #D1D0D0",
"J$	c #D2D1D1",
"K$	c #CCCBCB",
"L$	c #CECDCD",
"M$	c #CBCACA",
"N$	c #CDCCCC",
"O$	c #A4A3A3",
"P$	c #DCDCDC",
"Q$	c #D8D8D8",
"R$	c #8F8D8D",
"S$	c #929090",
"T$	c #949292",
"U$	c #959393",
"V$	c #969494",
"W$	c #807E7E",
"                                                                                                ",
"                                                                                                ",
"                                                                                                ",
"                        . . + + + + + + + + + @ @ @ @ @ #                                       ",
"                    + $ % + + + + + + + + @ @ @ @ @ @ # & *                                     ",
"                    = - . + + + + + + @ @ @ @ @ @ @ @ # ; > ,                                   ",
"                  . $ . + + + + + + @ @ @ @ ' ' ' ' ' ) . ! ~ {                                 ",
"                  ] - . + + + + + @ @ @ @ ' ' ' ' ' ' ) . ^ / ( _                               ",
"                  : - + + + + + + @ @ @ ' ' ' ' # # # ) . < [ } { | 1                           ",
"                  . % + + + + + @ @ @ ' ' ' # # # # # 2 + 3 4 , 5 6 6 7                         ",
"                  . . + + + + + @ @ @ ' ' # # # # # # 2 # 8 9 ~ 0 a b c d                       ",
"                  . . + + + + + @ @ ' ' ' # # # # # # # e f g h i j 6 k l m                     ",
"                  . . + + + + + @ @ ' ' ' # # # # # # # # n o | p ~ q r c s t                   ",
"                  . . + + + + + @ @ ' ' ' # # # # # # # # # ) u v w x y z A o                   ",
"                  . . + + + + + @ @ ' ' ' # # # # # # # # # # B C 2 2 2 ) D )                   ",
"                  . . + + + + + @ @ ' ' ' # # # # # # # # # ' ' ' @ @ @ + + +                   ",
"                  . . + + + + + @ @ @ ' ' ' # # # # # # # # ' ' ' @ @ + + + +                   ",
"                  E % F F F F F @ G G H H H H # I I I I # H H H G G G F F F +                   ",
"                  J K L L L L L L M M M N N N N O O O N N N N N M M M L L L P                   ",
"            Q R S T U U U U U U U U U U U U U U U U U U U U U U U U U U U U V W X Y             ",
"          Z `  ...+.+.+.@.#.+.+.+.@.$.@.+.%.%.+.+.+.@.$.@.+.+.+.+.@.@.+.+.+.@.&...*.=.          ",
"          -.;.>.,.'.'.).!.~.{.'.].^./.(._.:.{.'.<.^.[.,.}.|.1.2.'.3.4.3.5.'.<.4.6.7.3.8.        ",
"          9.0.a.b.c.b.d.e.f.g.h.i.j.k.l.m.n.o.a.p.q.r.s.t.u.v.w.x.y.z.A.B.C.D.E.F.G.(.H.        ",
"          I.J.K.L.L.M.K.N.O.P.Q.R.S.T.U.V.W.X.Y.Z.V.`. +.+V.++@+#+$+V.%+&+*+=+V.-+;+>+,+        ",
"          '+)+)+)+)+!+~+{+S.]+^+V./+(+_+:+<+[+}+V.|+1+2+3+4+V.5+6+U.V.V.7+8+9+V.0+a+b+)+        ",
"          c+d+d+d+d+e+c+f+g+h+i+j+k+l+m+n+o+p+q+V.r+s+t+u+v+w+x+y+z+A+B+C+D+E+V.F+G+t+d+        ",
"          H+I+J+K+L+M+N+O+P+Q+R+S+T+V.V.U+V+W+X+V.Y+Z+`+ @.@+@@@#@$@%@&@*@=@-@;@F+>@,@I+        ",
"          '@)@!@~@{@]@^@/@(@_@:@<@[@}@|@1@2@3@4@V.5@6@7@!@8@9@0@a@b@c@d@e@V.f@g@h@i@j@)@        ",
"          k@l@m@n@o@p@q@r@s@t@u@v@w@x@y@z@V.A@B@V.C@D@E@F@G@V.H@I@J@K@L@M@N@V.;@O@P@Q@R@        ",
"          S@T@U@V@V.W@X@V.Y@Z@`@V. #.#+#@###$#%#&#V.*#=#-#;#>#,#'#)#!#~#U@{#]#V.^#/#1+T@        ",
"          (#_#:#<#[#}#|#1#2#3#4#5#6#7#g@8#9#0#a#b#c#d#e#g@f#g#0#h#i#j#k#l#m#n#d#o#/#_#p#        ",
"          q#r#s#t#u#v#w#x#y#z#A#B#C#D#E#F#G#z#r#u#H#I#J#K#L#M#z#N#O#P#q#r#A#Q#R#S#T#r#U#        ",
"          V#W#V#V#X#Y#Z#`# $W#W# $.$+$Z#X# $W#W# $W#@$+$#$`# $W# $.$$$ $ $ $`#$$%$&$*$=$        ",
"            -$;$>$,$'$)$'$!$~$!$)$!$!$!$!$!$!$!$!$!$!$!$!$!$!$!$!$!$!$!$~$!${$]$>$^$/$          ",
"                  ($_$:$<$[$}$|$1$2$3$4$4$4$5$5$6$6$6$6$5$5$4$4$3$2$7$|$}$8$9$                  ",
"                  0$a$b$c$d$e$f$g$g$h$h$i$j$j$j$j$j$j$j$j$j$i$h$h$k$l$g$e$m$n$                  ",
"                  o$p$q$r$s$t$u$v$w$x$y$y$y$u z$z$z$z$z$u y$y$y$A$x$w$u$B$s$C$                  ",
"                  D$E$p$F$q$C$C$t$B$u$v$w$x$x$x$x$x$x$x$x$x$w$v$v$u$t$s$C$r$F$                  ",
"                  G$H$I$D$p$o$q$r$C$s$t$t$B$B$u$u$u$u$u$B$B$B$t$s$C$r$q$F$o$J$                  ",
"                  C$K$L$G$I$J$p$o$F$q$r$r$C$C$C$C$s$s$C$C$C$r$r$q$F$o$p$D$I$o$                  ",
"                    C$M$N$L$G$I$I$D$p$o$o$F$F$F$q$q$q$F$F$F$F$o$p$D$D$I$G$J$o$                  ",
"                    O$F$p$p$F$q$r$C$s$t$t$B$P$u$u$u$u$u$P$B$B$t$s$C$Q$q$C$I$                    ",
"                        R$S$S$i i , T$U$U$U$q q q V$q q V$q U$U$0 0 T$q W$                      ",
"                                                                                                ",
"                                                                                                ",
"                                                                                                ",
"                                                                                                ",
"                                                                                                "};
