/* XPM */
static char * map_xpm[] = {
"48 48 758 2",
"  	c None",
". 	c #234C8A",
"+ 	c #254F8C",
"@ 	c #224C8A",
"# 	c #234E8A",
"$ 	c #2E5690",
"% 	c #345C95",
"& 	c #305991",
"* 	c #254F8B",
"= 	c #224B89",
"- 	c #234D89",
"; 	c #224D89",
"> 	c #3A6099",
", 	c #6D8DB8",
"' 	c #94AED0",
") 	c #ABC1DD",
"! 	c #BACDE5",
"~ 	c #B8CCE5",
"{ 	c #B7CAE4",
"] 	c #B7CBE4",
"^ 	c #BBCEE5",
"/ 	c #AFC5E0",
"( 	c #99B3D4",
"_ 	c #7595BF",
": 	c #446A9F",
"< 	c #224C89",
"[ 	c #244D89",
"} 	c #224C88",
"| 	c #234E89",
"1 	c #5E7EAF",
"2 	c #9DB6D5",
"3 	c #B3C8E2",
"4 	c #9EB8D8",
"5 	c #8DABCD",
"6 	c #80A3CF",
"7 	c #789EC5",
"8 	c #80A2B4",
"9 	c #87A8AA",
"0 	c #779DC7",
"a 	c #769CCC",
"b 	c #7DA2CF",
"c 	c #88A9D3",
"d 	c #9AB5D8",
"e 	c #B1C6E1",
"f 	c #A6BDDB",
"g 	c #6D8DB9",
"h 	c #26518C",
"i 	c #244E89",
"j 	c #5074A7",
"k 	c #A4BBD9",
"l 	c #A9C0DD",
"m 	c #88A7C2",
"n 	c #84A283",
"o 	c #92AA51",
"p 	c #90A95F",
"q 	c #94AC4E",
"r 	c #AABE33",
"s 	c #B7CA3B",
"t 	c #BED140",
"u 	c #B6CA45",
"v 	c #8AAA9B",
"w 	c #779DCD",
"x 	c #759BCC",
"y 	c #7299CA",
"z 	c #7197C8",
"A 	c #80A2CE",
"B 	c #A2BBDB",
"C 	c #ACC2DE",
"D 	c #6485B4",
"E 	c #234D88",
"F 	c #27508B",
"G 	c #83A1C7",
"H 	c #ADC3DE",
"I 	c #81A3CD",
"J 	c #88A46A",
"K 	c #91A950",
"L 	c #87A47B",
"M 	c #81A198",
"N 	c #9AAF33",
"O 	c #9DB029",
"P 	c #ABBE33",
"Q 	c #B8CB3C",
"R 	c #C0D341",
"S 	c #BCCF3E",
"T 	c #85A7B5",
"U 	c #7A9FCF",
"V 	c #789ECE",
"W 	c #6F96C8",
"X 	c #6C93C6",
"Y 	c #7A9DCB",
"Z 	c #A7BEDC",
"` 	c #96B0D2",
" .	c #315A92",
"..	c #244E88",
"+.	c #325A94",
"@.	c #9DB6D6",
"#.	c #99B4D6",
"$.	c #6991C4",
"%.	c #77999C",
"&.	c #8EA759",
"*.	c #809F93",
"=.	c #95AC48",
"-.	c #8CA774",
";.	c #80A1B5",
">.	c #9EB129",
",.	c #ACBF33",
"'.	c #B9CC3C",
").	c #C2D543",
"!.	c #ACC467",
"~.	c #87A8A3",
"{.	c #7DA2D1",
"].	c #7BA0CF",
"^.	c #749BCB",
"/.	c #759BC0",
"(.	c #80A3A0",
"_.	c #7096BA",
":.	c #6790C3",
"<.	c #8CABD1",
"[.	c #A9BFDB",
"}.	c #446AA0",
"|.	c #244C8A",
"1.	c #365E96",
"2.	c #A2B9D8",
"3.	c #87A7CE",
"4.	c #76989D",
"5.	c #99B25E",
"6.	c #82A179",
"7.	c #7D9D94",
"8.	c #7B9EA7",
"9.	c #769BC9",
"0.	c #80A2AE",
"a.	c #8BA884",
"b.	c #A9BD40",
"c.	c #A1BC84",
"d.	c #8FB0BF",
"e.	c #8AAAAD",
"f.	c #88A9B2",
"g.	c #80A4D3",
"h.	c #87A8A8",
"i.	c #B4C841",
"j.	c #AEC244",
"k.	c #B0C238",
"l.	c #90AC6F",
"m.	c #7096A6",
"n.	c #7A9CC7",
"o.	c #A8BEDB",
"p.	c #4B6FA4",
"q.	c #2D5691",
"r.	c #9EB6D6",
"s.	c #80A1CB",
"t.	c #88A571",
"u.	c #ABBF34",
"v.	c #86A585",
"w.	c #6B94C4",
"x.	c #7399CA",
"y.	c #769CCD",
"z.	c #7AA0CF",
"A.	c #87A79E",
"B.	c #9EB12E",
"C.	c #8BABBC",
"D.	c #87ABD7",
"E.	c #89ACD8",
"F.	c #88ABD8",
"G.	c #85A9D6",
"H.	c #89A8AB",
"I.	c #7FA3D2",
"J.	c #8EADA7",
"K.	c #B3C84C",
"L.	c #A5BE60",
"M.	c #94B07B",
"N.	c #B1C437",
"O.	c #98B261",
"P.	c #A4B93E",
"Q.	c #8CA867",
"R.	c #7096C3",
"S.	c #A3BAD9",
"T.	c #3F679D",
"U.	c #244E8A",
"V.	c #8DA9CD",
"W.	c #84A4CC",
"X.	c #84A170",
"Y.	c #9AB24D",
"Z.	c #7297A6",
"`.	c #8AA989",
" +	c #9CB66F",
".+	c #7A9FBC",
"++	c #80A3D1",
"@+	c #87A8B1",
"#+	c #86AAD6",
"$+	c #8AADD9",
"%+	c #8DAFDA",
"&+	c #8BADD9",
"*+	c #8CABB0",
"=+	c #8EAB8B",
"-+	c #86A7B1",
";+	c #9AB78E",
">+	c #AAC262",
",+	c #9CB874",
"'+	c #89A995",
")+	c #B0C33C",
"!+	c #AEC135",
"~+	c #ABBE32",
"{+	c #A8BB30",
"]+	c #84A16E",
"^+	c #7297C5",
"/+	c #9AB3D4",
"(+	c #2A558F",
"_+	c #254D8A",
":+	c #6689B6",
"<+	c #94B0D3",
"[+	c #72958A",
"}+	c #A6B92F",
"|+	c #98B151",
"1+	c #7296A7",
"2+	c #6E95B6",
"3+	c #A8BE4D",
"4+	c #B6C93A",
"5+	c #A7C05F",
"6+	c #779ECB",
"7+	c #82A6D4",
"8+	c #8EACA1",
"9+	c #8EAB8C",
"0+	c #91AC6D",
"a+	c #7FA3C9",
"b+	c #96B38F",
"c+	c #89A99E",
"d+	c #ADC24B",
"e+	c #B2C537",
"f+	c #A5B82E",
"g+	c #759782",
"h+	c #80A0CA",
"i+	c #7D9CC5",
"j+	c #244D8A",
"k+	c #325B95",
"l+	c #A0B8D7",
"m+	c #678DA4",
"n+	c #9FB334",
"o+	c #AABD32",
"p+	c #ABBE38",
"q+	c #9FB757",
"r+	c #B3C638",
"s+	c #BACC3F",
"t+	c #90AE93",
"u+	c #7EA3D1",
"v+	c #81A6D3",
"w+	c #85A8D5",
"x+	c #88ABD7",
"y+	c #83A6CE",
"z+	c #83A6CA",
"A+	c #B7CC51",
"B+	c #B5C83A",
"C+	c #AFC235",
"D+	c #9EB231",
"E+	c #6187A3",
"F+	c #94AFD2",
"G+	c #496FA5",
"H+	c #224E89",
"I+	c #7A99C2",
"J+	c #7A9BC5",
"K+	c #8FA749",
"L+	c #A3B62D",
"M+	c #ADC034",
"N+	c #B0C336",
"O+	c #ADC243",
"P+	c #94B17C",
"Q+	c #799DBD",
"R+	c #7FA0A5",
"S+	c #799ECE",
"T+	c #7CA1D0",
"U+	c #7FA4D2",
"V+	c #84A8D5",
"W+	c #85A8D6",
"X+	c #87A9C4",
"Y+	c #B7CD59",
"Z+	c #BFD241",
"`+	c #A1B42C",
" @	c #8CA64C",
".@	c #638BBD",
"+@	c #8BA7CC",
"@@	c #224D8A",
"#@	c #315994",
"$@	c #9EB6D5",
"%@	c #6C8F84",
"&@	c #A0B32B",
"*@	c #A9BC31",
"=@	c #A5BC52",
"-@	c #8EAC86",
";@	c #7097C9",
">@	c #739ACB",
",@	c #80A5D3",
"'@	c #81A5D3",
")@	c #83A7CA",
"!@	c #9EBB91",
"~@	c #BBD050",
"{@	c #B0C75E",
"]@	c #A7C067",
"^@	c #ADC450",
"/@	c #B4C73E",
"(@	c #9EB12A",
"_@	c #648A8F",
":@	c #8AA8CE",
"<@	c #496FA4",
"[@	c #6588B6",
"}@	c #7D9EC8",
"|@	c #8EA644",
"1@	c #ACBF34",
"2@	c #96B064",
"3@	c #6A92BD",
"4@	c #6B93C6",
"5@	c #6E95C8",
"6@	c #7198CA",
"7@	c #7BA0D0",
"8@	c #92B2A7",
"9@	c #C4D744",
"0@	c #ACC46A",
"a@	c #789DC7",
"b@	c #7399C9",
"c@	c #99B577",
"d@	c #98B471",
"e@	c #96B16B",
"f@	c #A4B72E",
"g@	c #89A24D",
"h@	c #678DBE",
"i@	c #7898C2",
"j@	c #214C88",
"k@	c #90ABCE",
"l@	c #6B8E97",
"m@	c #9FB22A",
"n@	c #A2B52C",
"o@	c #A5B82F",
"p@	c #95AF5D",
"q@	c #628BC0",
"r@	c #668EC2",
"s@	c #6C94C6",
"t@	c #7298CA",
"u@	c #799FCE",
"v@	c #7EA3C3",
"w@	c #9DB988",
"x@	c #8FAF9C",
"y@	c #8EAD96",
"z@	c #84A5A3",
"A@	c #6D96C3",
"B@	c #6891BE",
"C@	c #82A286",
"D@	c #92AC60",
"E@	c #A7BA30",
"F@	c #9DB02A",
"G@	c #5680A2",
"H@	c #91ACCF",
"I@	c #28538D",
"J@	c #2F5892",
"K@	c #99B2D3",
"L@	c #779566",
"M@	c #98B04C",
"N@	c #658CAF",
"O@	c #608ABF",
"P@	c #638DC1",
"Q@	c #668FC3",
"R@	c #6A92C5",
"S@	c #7198C9",
"T@	c #799FC4",
"U@	c #B2C95A",
"V@	c #91AE7F",
"W@	c #80A295",
"X@	c #82A28C",
"Y@	c #6C93AC",
"Z@	c #82A279",
"`@	c #A4B72D",
" #	c #6E8F77",
".#	c #7D9DC6",
"+#	c #486EA3",
"@#	c #4F74A7",
"##	c #81A0C8",
"$#	c #90A73D",
"%#	c #98AD35",
"&#	c #829E62",
"*#	c #91AB4E",
"=#	c #688E9D",
"-#	c #5B85BC",
";#	c #5E88BE",
">#	c #618BC0",
",#	c #648DC1",
"'#	c #678FC3",
")#	c #6991C5",
"!#	c #6D95C7",
"~#	c #7298C9",
"{#	c #AAC268",
"]#	c #BFD240",
"^#	c #BDD03F",
"/#	c #BBCE3D",
"(#	c #B8CB3B",
"_#	c #B2C538",
":#	c #AFC236",
"<#	c #A6BA36",
"[#	c #9AAF34",
"}#	c #95AB38",
"|#	c #809B58",
"1#	c #698EBD",
"2#	c #6184B3",
"3#	c #214C8A",
"4#	c #7395B8",
"5#	c #9CAF2A",
"6#	c #859F4F",
"7#	c #4F7BAD",
"8#	c #4F7BB4",
"9#	c #5782AF",
"0#	c #5B84B0",
"a#	c #5883BA",
"b#	c #5C86BC",
"c#	c #5F88BE",
"d#	c #6891C4",
"e#	c #6D94C7",
"f#	c #6E95C7",
"g#	c #91B089",
"h#	c #BBCE3E",
"i#	c #B4C739",
"j#	c #93AD57",
"k#	c #86A265",
"l#	c #A2B52D",
"m#	c #9BAF31",
"n#	c #61878F",
"o#	c #678B81",
"p#	c #849E50",
"q#	c #5A83B6",
"r#	c #7092BD",
"s#	c #234C89",
"t#	c #6E8FBA",
"u#	c #719398",
"v#	c #6B8D76",
"w#	c #4B78B0",
"x#	c #527DAB",
"y#	c #507CB5",
"z#	c #537FB7",
"A#	c #5681B9",
"B#	c #5984BB",
"C#	c #618ABF",
"D#	c #638CC1",
"E#	c #658EC2",
"F#	c #6890C4",
"G#	c #6B93C3",
"H#	c #B2C84E",
"I#	c #A7BA33",
"J#	c #6E928B",
"K#	c #9EB232",
"L#	c #98AC32",
"M#	c #89A249",
"N#	c #4573AD",
"O#	c #4E7AB1",
"P#	c #7B9AC3",
"Q#	c #214B89",
"R#	c #7293BD",
"S#	c #6187AC",
"T#	c #97AC31",
"U#	c #87A149",
"V#	c #7B985F",
"W#	c #6D907A",
"X#	c #4E7AB4",
"Y#	c #517DB5",
"Z#	c #5682B9",
"`#	c #5984BA",
" $	c #5B86BC",
".$	c #5D88BD",
"+$	c #6089BF",
"@$	c #6991BF",
"#$	c #B4C947",
"$$	c #BACD3D",
"%$	c #90A94E",
"&$	c #7A996C",
"*$	c #769663",
"=$	c #4270AC",
"-$	c #4975AE",
";$	c #7D9DC5",
">$	c #214B87",
",$	c #7292BD",
"'$	c #5880B5",
")$	c #4F7996",
"!$	c #859F4D",
"~$	c #89A24A",
"{$	c #4E7AAD",
"]$	c #4E7BB4",
"^$	c #5A85BB",
"/$	c #5C87BD",
"($	c #769AA1",
"_$	c #A8BB31",
":$	c #A2B52E",
"<$	c #62888E",
"[$	c #9BAF2C",
"}$	c #6A8D77",
"|$	c #4472AC",
"1$	c #406FAB",
"2$	c #7C9CC5",
"3$	c #204988",
"4$	c #214C89",
"5$	c #6A8CB9",
"6$	c #5A82B5",
"7$	c #3D6CA9",
"8$	c #4A76A3",
"9$	c #85A04E",
"0$	c #5C8491",
"a$	c #567FA1",
"b$	c #93AB4A",
"c$	c #749580",
"d$	c #6C9191",
"e$	c #5882B4",
"f$	c #5782B9",
"g$	c #5D87BD",
"h$	c #5F88BD",
"i$	c #A9C04D",
"j$	c #8AA34C",
"k$	c #8BA344",
"l$	c #618682",
"m$	c #3D6DAA",
"n$	c #4673AD",
"o$	c #7595C1",
"p$	c #204B87",
"q$	c #5E82B2",
"r$	c #5F86B8",
"s$	c #3A6AA8",
"t$	c #4674A9",
"u$	c #70916F",
"v$	c #8CA64A",
"w$	c #729487",
"x$	c #5581B8",
"y$	c #6E939F",
"z$	c #B0C33D",
"A$	c #AFC337",
"B$	c #587F8C",
"C$	c #3E6DAA",
"D$	c #3B6BA8",
"E$	c #4A76AE",
"F$	c #6A8DBA",
"G$	c #4E73A7",
"H$	c #698EBC",
"I$	c #3868A6",
"J$	c #4372AD",
"K$	c #8DA545",
"L$	c #A5B937",
"M$	c #82A16C",
"N$	c #527EB6",
"O$	c #5480B8",
"P$	c #729691",
"Q$	c #7D9D82",
"R$	c #6F9392",
"S$	c #638BA0",
"T$	c #82A171",
"U$	c #8EA53F",
"V$	c #3869A7",
"W$	c #537CB2",
"X$	c #5B7FB0",
"Y$	c #376098",
"Z$	c #7899C3",
"`$	c #3566A5",
" %	c #567E8D",
".%	c #A9BC32",
"+%	c #799A77",
"@%	c #547FAE",
"#%	c #517DB6",
"$%	c #527EB7",
"%%	c #6B8F8C",
"&%	c #99AE2E",
"*%	c #4F7993",
"=%	c #3C6BA9",
"-%	c #3969A7",
";%	c #3667A5",
">%	c #5F86B7",
",%	c #476FA5",
"'%	c #224A88",
")%	c #224B88",
"!%	c #7F9EC6",
"~%	c #3A6AA7",
"{%	c #3666A5",
"]%	c #3B6AA8",
"^%	c #688B6F",
"/%	c #A2B73D",
"(%	c #77987A",
"_%	c #517CB0",
":%	c #4D7AB3",
"<%	c #4C79B3",
"[%	c #537DA7",
"}%	c #9FB53B",
"|%	c #759460",
"1%	c #3465A4",
"2%	c #7193BF",
"3%	c #2F5893",
"4%	c #6084B4",
"5%	c #557EB3",
"6%	c #6B8D69",
"7%	c #5D8598",
"8%	c #4B78B2",
"9%	c #4A77B1",
"0%	c #4977B1",
"a%	c #4876B0",
"b%	c #4775B0",
"c%	c #94AC45",
"d%	c #5D837B",
"e%	c #426FAA",
"f%	c #698CBA",
"g%	c #214B88",
"h%	c #39629C",
"i%	c #7294C0",
"j%	c #3565A4",
"k%	c #3D6B9F",
"l%	c #94AA33",
"m%	c #92AB4A",
"n%	c #4876AD",
"o%	c #4775AF",
"p%	c #4674AF",
"q%	c #4573AE",
"r%	c #779767",
"s%	c #5B8179",
"t%	c #4870A7",
"u%	c #6D90BD",
"v%	c #4773AD",
"w%	c #577E7C",
"x%	c #9AAE2C",
"y%	c #A1B42B",
"z%	c #688C7B",
"A%	c #4271AD",
"B%	c #4371AD",
"C%	c #4170AC",
"D%	c #7C9A5B",
"E%	c #61866F",
"F%	c #3A69A6",
"G%	c #6C8FBD",
"H%	c #25508D",
"I%	c #1F4983",
"J%	c #3C649D",
"K%	c #6E91BE",
"L%	c #3566A4",
"M%	c #547B80",
"N%	c #9CB02A",
"O%	c #6A8D73",
"P%	c #3F6EAA",
"Q%	c #3F6EAB",
"R%	c #3D6DA9",
"S%	c #3C6CA9",
"T%	c #87A04A",
"U%	c #86A043",
"V%	c #426F93",
"W%	c #5981B4",
"X%	c #4A71A8",
"Y%	c #214A88",
"Z%	c #5F84B5",
"`%	c #547DB2",
" &	c #8AA33F",
".&	c #97AC35",
"+&	c #467398",
"@&	c #7D9851",
"#&	c #93AA33",
"$&	c #39689E",
"%&	c #4270AA",
"&&	c #6489B9",
"*&	c #29548E",
"=&	c #7194BF",
"-&	c #4370AB",
";&	c #7E9A4D",
">&	c #3767A5",
",&	c #3768A6",
"'&	c #3767A6",
")&	c #587F7A",
"!&	c #8CA43D",
"~&	c #3F6D97",
"{&	c #3969A6",
"]&	c #688CBB",
"^&	c #335D96",
"/&	c #1F477E",
"(&	c #1F467D",
"_&	c #39629A",
":&	c #3E6CA8",
"<&	c #708F5E",
"[&	c #6F905E",
"}&	c #3868A0",
"|&	c #65886A",
"1&	c #6187B8",
"2&	c #456EA5",
"3&	c #214985",
"4&	c #1F4984",
"5&	c #426BA2",
"6&	c #6D90BE",
"7&	c #3E6DA9",
"8&	c #7A9751",
"9&	c #46728F",
"0&	c #98AC2E",
"a&	c #7B9851",
"b&	c #3566A2",
"c&	c #4C75AA",
"d&	c #204A86",
"e&	c #1F4985",
"f&	c #4169A0",
"g&	c #4672AC",
"h&	c #72915B",
"i&	c #95AA33",
"j&	c #3C6B9A",
"k&	c #507A83",
"l&	c #3767A0",
"m&	c #3D6CA8",
"n&	c #6288B9",
"o&	c #4A72A8",
"p&	c #204A87",
"q&	c #1E4881",
"r&	c #345E96",
"s&	c #6A8DBB",
"t&	c #567FB3",
"u&	c #527A85",
"v&	c #567D7C",
"w&	c #4B77AE",
"x&	c #648ABA",
"y&	c #3F689E",
"z&	c #204986",
"A&	c #1C4176",
"B&	c #27518B",
"C&	c #557BAF",
"D&	c #698DBC",
"E&	c #4C77AF",
"F&	c #4572AB",
"G&	c #5E85B7",
"H&	c #577EB1",
"I&	c #2C5690",
"J&	c #1E4680",
"K&	c #204985",
"L&	c #335B95",
"M&	c #587FB1",
"N&	c #537DB2",
"O&	c #416FAA",
"P&	c #4D78AF",
"Q&	c #5B81B4",
"R&	c #39629B",
"S&	c #193869",
"T&	c #1A3A6A",
"U&	c #204A85",
"V&	c #2C558E",
"W&	c #5D83B5",
"X&	c #668BBA",
"Y&	c #5D84B7",
"Z&	c #517BB1",
"`&	c #4F7AB0",
" *	c #507AB0",
".*	c #5D84B6",
"+*	c #4973A7",
"@*	c #305893",
"#*	c #1C3F72",
"$*	c #1E467C",
"%*	c #254E89",
"&*	c #315C95",
"**	c #3D679D",
"=*	c #456EA4",
"-*	c #436CA2",
";*	c #3D67A0",
">*	c #355D95",
",*	c #27518C",
"'*	c #214A87",
")*	c #1F4881",
"!*	c #183662",
"~*	c #1A3D6F",
"{*	c #1C4075",
"]*	c #1C4379",
"^*	c #1B4277",
"/*	c #1B3E70",
"                                                                                                ",
"                                                                                                ",
"                                                                                                ",
"                                    . + @ # $ % & * = * -                                       ",
"                              ; - > , ' ) ! ~ { ] ^ / ( _ : < [                                 ",
"                          } | 1 2 3 4 5 6 7 8 9 0 a b c d e f g h i                             ",
"                        . j k l m n o p q r s t u v w x y z A B C D E                           ",
"                      F G H I J K L M N O P Q R S T U V x y W X Y Z `  ...                      ",
"                  . +.@.#.$.%.&.*.=.-.;.>.,.'.).!.~.{.].w ^./.(._.:.<.[.}.|.                    ",
"                  1.2.3.4.5.6.7.8.9.0.a.>.b.c.d.e.f.g.{.U h.i.j.k.l.m.n.o.p.#                   ",
"                q.r.s.t.u.v.w.W x.y.z.A.B.C.D.E.F.G.H.I.J.K.L.M.N.O.P.Q.R.S.T.;                 ",
"              U.V.W.X.Y.Z.:.`. +.+w ].++@+#+$+%+&+*+=+-+;+>+,+'+)+!+~+{+]+^+/+(+                ",
"            _+:+<+[+}+|+1+2+3+4+5+6+].I.7+#+$+%+&+8+9+0+a+b+c+d+e+!+P {+f+g+h+i+j+              ",
"            k+l+m+n+}+o+p+q+r+4+s+t+z.u+v+w+D.E.x+G.y+z+A+S '.B+e+C+P {+f+D+E+F+G+H+            ",
"          . I+J+K+L+}+o+M+N+O+P+Q+R+S+T+U+7+V+W+V+7+X+Y+Z+S '.B+e+C+P {+f+`+ @.@+@@@            ",
"          #@$@%@&@L+}+*@M+N+=@-@;@>@w U T+I.,@'@'@)@!@~@{@]@^@/@e+!+P {+f+`+(@_@:@<@            ",
"        - [@}@|@&@L+}+*@1@2@3@4@5@6@^.w U 7@{.{.{.8@9@0@a@b@c@d@e@!+P {+f@`+>.g@h@i@@@          ",
"        j@k@l@O m@n@o@*@p@q@r@$.s@W t@^.y.V S+U u@v@w@x@y@z@A@_.B@C@D@E@f@`+>.F@G@H@I@          ",
"        J@K@L@O m@n@f+M@N@O@P@Q@R@s@W S@x.^.x a x T@U@t S '.V@W@X@Y@Z@E@`@&@O O  #.#+#          ",
"        @###$#O %#&#*#=#-#;#>#,#'#)#X !#W S@6@t@~#{#]#^#/#(#B+_#:#1@<#}+L+[#}#O |#1#2##         ",
"      3#2#4#5#6#7#8#9#0#a#b#c#>#,#Q@d#R@X e#!#f#g#t ^#h#'.s i#N.!+P j#k#l#m#n#o#p#q#r#s#        ",
"      ; t#u#O v#w#x#y#z#A#B#b#c#C#D#E#'#F#)#R@G#H#S /#'.s B+r+N+M+o+I#J#K#m@L#M#N#O#P#j@        ",
"      Q#R#S#T#U#V#W#X#Y#z#Z#`# $.$+$>#D#,#E#Q@@$#$$$'.s 4+r+N.C+,.*@}+%$&$>.O *$=$-$;$>$        ",
"      ; ,$'$)$!$F@~${$]$Y#z#A#a#^$/$;#+$C#>#q@($(#s s B+i#e+N+M+~+_$o@:$<$[$}$|$1$N#2$3$        ",
"      4$5$6$7$1$8$9$0$a$b$c$d$e$f$`#^$b#g$.$;#h$i$B+i#r+e+N+!+,.*@E@f@`+j$k$l$1$m$n$o$p$        ",
"      < q$r$s$m$1$t$u$v$L+}+_$w$z#x$f$a#B#^$^$-#y$z$_#N.A$!+1@o+{+o@L+&@O O B$C$D$E$F$Q#        ",
"      < G$H$I$D$C$1$J$K$n@f@}+L$M$N$z#O$x$A#Z#f$Z#P$Q$R$S$T$o+*@}+f@`+m@O U$C$D$V$W$X$3#        ",
"        Y$Z$`$I$D$m$ %>.&@L+f+E@.%+%@%Y##%N$$%z#$%$%N$#%y#%%*@E@f+l#&@>.&%*%=%-%;%>%,%'%        ",
"        )%!%~%{%I$]%^%O m@`+L+f+E@_$/%(%_%]$8#8#8#8#X#:%<%[%}%f+L+`+m@O |%D$-%;%1%2%3%          ",
"        4$4%5%1%`$I$6%O O m@`+L+f+}+{+*@7%8%8%8%8%8%9%0%a%b%c%L+`+m@O O d%I${%1%e%f%g%          ",
"          h%i%1%1%j%k%l%O O m@`+L+f@o@m%n%o%b%b%b%o%p%p%q%J$r%`+&@>.O O s%`$1%1%6$t%g%          ",
"          4$u%v%1%1%1%w%x%O O m@y%n@L+z%A%B%J$J$J$B%A%=$C%1$D%&@>.O O O E%1%1%F%G%H%            ",
"          I%J%K%L%1%1%1%M%N%O O m@&@`+O%P%Q%Q%Q%Q%Q%P%C$R%S%T%>.O O O U%V%1%1%W%X%<             ",
"            Y%Z%`%1%1%1%1% &O O O >..&+&]%D$D$D$D$D$]%s$~%V$@&O O O #&$&1%1%%&&&|               ",
"              *&=&-&1%1%1% &O O O ;&`$;%>&,&,&I$,&,&'&;%{%j%)&O O O !&~&1%{&]&^&/&              ",
"              (&_&2%:&1%1%<&O O O [&1%1%1%1%1%1%1%1%1%1%1%1%}&&%O O |&1%;%1&2&3&                ",
"                4&5&6&7&1%8&O O T#9&1%1%1%1%1%1%1%1%1%1%1%1%1% &0&a&b&I$>%c&d&                  ",
"                  e&f&6&g&h&O i&j&1%1%1%1%1%1%1%1%1%1%1%1%1%1%k&l&1%m&n&o&p&                    ",
"                    q&r&s&t&u&v&1%1%1%1%1%1%1%1%1%1%1%1%1%1%1%1%L%w&x&y&z&                      ",
"                      A&B&C&D&E&{%1%1%1%1%1%1%1%1%1%1%1%1%1%1%F&G&H&I&J&                        ",
"                          K&L&M&]&N&O&L%1%1%1%1%1%1%1%1%m&P&>%Q&R&z&S&                          ",
"                            T&U&V&,%W&X&Y&5%Z&`& *N&6$n&.*+*@*d&#*                              ",
"                                  $*d&%*&***5&=*-*;*>*,*'*)*!*                                  ",
"                                          ~*{*]*^*/*                                            ",
"                                                                                                ",
"                                                                                                ",
"                                                                                                ",
"                                                                                                "};
