/* XPM */
static char * object_xpm[] = {
"48 48 805 2",
"  	c None",
". 	c #313638",
"+ 	c #2E3536",
"@ 	c #2E3436",
"# 	c #2D3435",
"$ 	c #2F3537",
"% 	c #313739",
"& 	c #262B2C",
"* 	c #212527",
"= 	c #212627",
"- 	c #272C2D",
"; 	c #2F3435",
"> 	c #2E3336",
", 	c #33393B",
"' 	c #34393B",
") 	c #303638",
"! 	c #292F30",
"~ 	c #1B1F20",
"{ 	c #151718",
"] 	c #141718",
"^ 	c #24292B",
"/ 	c #383D3F",
"( 	c #363C3E",
"_ 	c #2C3234",
": 	c #252A2C",
"< 	c #1F2324",
"[ 	c #181C1D",
"} 	c #121415",
"| 	c #0C0D0E",
"1 	c #1B1E20",
"2 	c #3B4142",
"3 	c #292E30",
"4 	c #222728",
"5 	c #1C2021",
"6 	c #16191A",
"7 	c #101212",
"8 	c #090A0B",
"9 	c #313535",
"0 	c #3B4141",
"a 	c #3A4042",
"b 	c #353B3D",
"c 	c #2D3234",
"d 	c #262B2D",
"e 	c #202425",
"f 	c #191D1E",
"g 	c #131616",
"h 	c #0D0E0F",
"i 	c #0C0E0E",
"j 	c #2F3536",
"k 	c #3C4143",
"l 	c #2A2F31",
"m 	c #24282A",
"n 	c #1D2122",
"o 	c #171A1B",
"p 	c #101313",
"q 	c #121515",
"r 	c #2F3436",
"s 	c #32383A",
"t 	c #272C2E",
"u 	c #202426",
"v 	c #2C3233",
"w 	c #3D382B",
"x 	c #2E3537",
"y 	c #343A3B",
"z 	c #2D3335",
"A 	c #413F36",
"B 	c #675435",
"C 	c #78551F",
"D 	c #6F4709",
"E 	c #3B3A33",
"F 	c #584729",
"G 	c #725321",
"H 	c #8C611A",
"I 	c #9F722B",
"J 	c #A37733",
"K 	c #A27732",
"L 	c #7E5413",
"M 	c #744108",
"N 	c #A40000",
"O 	c #323636",
"P 	c #5A4D34",
"Q 	c #725930",
"R 	c #87642B",
"S 	c #9B6C23",
"T 	c #9E6C1D",
"U 	c #996718",
"V 	c #966416",
"W 	c #966517",
"X 	c #A1742E",
"Y 	c #9E732E",
"Z 	c #744A0B",
"` 	c #951302",
" .	c #A30101",
"..	c #83100F",
"+.	c #553D1B",
"@.	c #4E3D1F",
"#.	c #685536",
"$.	c #6C5D42",
"%.	c #786545",
"&.	c #7D643D",
"*.	c #84683D",
"=.	c #8C6E3F",
"-.	c #94733E",
";.	c #80663C",
">.	c #7B6643",
",.	c #82683E",
"'.	c #906D37",
").	c #AB7C34",
"!.	c #A8792F",
"~.	c #936A2C",
"{.	c #906A2C",
"].	c #946C2E",
"^.	c #94661C",
"/.	c #956416",
"(.	c #98661A",
"_.	c #A27631",
":.	c #8F641F",
"<.	c #7E3D0A",
"[.	c #E72625",
"}.	c #EF2929",
"|.	c #E32222",
"1.	c #B90C0C",
"2.	c #931603",
"3.	c #845918",
"4.	c #C89A52",
"5.	c #CD9E57",
"6.	c #CD9A4D",
"7.	c #CE9846",
"8.	c #D09A48",
"9.	c #CF9949",
"0.	c #97815E",
"a.	c #D4D0C8",
"b.	c #EEEEEC",
"c.	c #E9E8E5",
"d.	c #BBAE98",
"e.	c #876A39",
"f.	c #8B6A36",
"g.	c #C0B095",
"h.	c #EBE9E5",
"i.	c #DAD2C2",
"j.	c #A1793D",
"k.	c #9C6D24",
"l.	c #7A500F",
"m.	c #C56337",
"n.	c #ED503C",
"o.	c #EF2C2A",
"p.	c #C11010",
"q.	c #A30000",
"r.	c #AF0606",
"s.	c #DA1E1E",
"t.	c #ED2828",
"u.	c #EC2727",
"v.	c #863D0D",
"w.	c #B1833C",
"x.	c #CB9D56",
"y.	c #CF9F57",
"z.	c #CF9848",
"A.	c #D29C4A",
"B.	c #D59F4D",
"C.	c #AD8A54",
"D.	c #E3E1DD",
"E.	c #C6BBA7",
"F.	c #C8BCA7",
"G.	c #E6E1D8",
"H.	c #9B6E27",
"I.	c #A1742F",
"J.	c #936721",
"K.	c #8E551C",
"L.	c #EC7F52",
"M.	c #EC714C",
"N.	c #EF342E",
"O.	c #B00606",
"P.	c #B20808",
"Q.	c #EA2626",
"R.	c #ED4436",
"S.	c #D8633E",
"T.	c #7F5513",
"U.	c #C89951",
"V.	c #CE9F58",
"W.	c #CF9B4D",
"X.	c #D7A14F",
"Y.	c #DBA452",
"Z.	c #BAB09E",
"`.	c #C2AA84",
" +	c #9B6B20",
".+	c #A27530",
"++	c #764C0B",
"@+	c #704709",
"#+	c #DA7747",
"$+	c #EE2B2A",
"%+	c #D21919",
"&+	c #A40101",
"*+	c #E32323",
"=+	c #EC6244",
"-+	c #AB622D",
";+	c #9E702B",
">+	c #CA9B54",
",+	c #CE9F57",
"'+	c #D59E4C",
")+	c #E0A856",
"!+	c #DAD8D2",
"~+	c #DFD7C8",
"{+	c #885D18",
"]+	c #AD632E",
"^+	c #EE503C",
"/+	c #E72525",
"(+	c #BD0E0E",
"_+	c #ED5D42",
":+	c #835015",
"<+	c #BA8A43",
"[+	c #CB9B55",
"}+	c #CD9B4F",
"|+	c #D09948",
"1+	c #D69F4D",
"2+	c #DCA553",
"3+	c #E3AB58",
"4+	c #EBEBE8",
"5+	c #EBEAE7",
"6+	c #9D6F26",
"7+	c #9A6D27",
"8+	c #845015",
"9+	c #ED6D4A",
"0+	c #D41A1A",
"a+	c #EE3830",
"b+	c #EC8053",
"c+	c #DD7849",
"d+	c #7B5110",
"e+	c #C4964F",
"f+	c #CB9648",
"g+	c #CF9947",
"h+	c #D59E4D",
"i+	c #E1A957",
"j+	c #EDEDEB",
"k+	c #B3B3B2",
"l+	c #2B2B2B",
"m+	c #121212",
"n+	c #575756",
"o+	c #E2E2E0",
"p+	c #E0E0DE",
"q+	c #565655",
"r+	c #171717",
"s+	c #282828",
"t+	c #EDEDEA",
"u+	c #99691D",
"v+	c #A37732",
"w+	c #754C0C",
"x+	c #DF794B",
"y+	c #EC754D",
"z+	c #DD1F1F",
"A+	c #ED553E",
"B+	c #C06B38",
"C+	c #8E621E",
"D+	c #C4954F",
"E+	c #C99A53",
"F+	c #C79242",
"G+	c #CD9746",
"H+	c #D39C4B",
"I+	c #D8A14F",
"J+	c #E2DDD5",
"K+	c #ECECEA",
"L+	c #181818",
"M+	c #8D8D8D",
"N+	c #575757",
"O+	c #000000",
"P+	c #535352",
"Q+	c #525251",
"R+	c #8D8D8C",
"S+	c #191919",
"T+	c #E1D9CC",
"U+	c #976518",
"V+	c #815614",
"W+	c #C16C39",
"X+	c #EC6A48",
"Y+	c #D71C1C",
"Z+	c #ED5E42",
"`+	c #A8612A",
" @	c #9D702B",
".@	c #C2934D",
"+@	c #C6964E",
"@@	c #C58F3F",
"#@	c #CA9543",
"$@	c #CF9948",
"%@	c #D49D4C",
"&@	c #D7A04E",
"*@	c #DFCAAA",
"=@	c #EAEAE8",
"-@	c #030303",
";@	c #787877",
">@	c #5F5F5E",
",@	c #0E0E0E",
"'@	c #0D0D0D",
")@	c #777776",
"!@	c #C7B28F",
"~@	c #8B611D",
"{@	c #A9612B",
"]@	c #EB4435",
"^@	c #B10707",
"/@	c #C71313",
"(@	c #EE533D",
"_@	c #93571E",
":@	c #A77B35",
"<@	c #C0924C",
"[@	c #C19046",
"}@	c #C28C3C",
"|@	c #C69140",
"1@	c #CB9544",
"2@	c #CF9847",
"3@	c #D19B49",
"4@	c #D7A861",
"5@	c #ECEBE8",
"6@	c #363636",
"7@	c #333333",
"8@	c #545453",
"9@	c #ECEAE7",
"0@	c #A37834",
"a@	c #9E7027",
"b@	c #956925",
"c@	c #92551C",
"d@	c #D7402E",
"e@	c #A70101",
"f@	c #E22B26",
"g@	c #EC7A50",
"h@	c #855115",
"i@	c #AE813B",
"j@	c #BD8F4A",
"k@	c #BD8B40",
"l@	c #BE8938",
"m@	c #C28D3C",
"n@	c #C99443",
"o@	c #CC9645",
"p@	c #DABA8A",
"q@	c #E6E6E3",
"r@	c #6A6A6A",
"s@	c #2D2D2C",
"t@	c #4B4B4A",
"u@	c #C1B4A1",
"v@	c #C3B49B",
"w@	c #554F45",
"x@	c #2F2E2C",
"y@	c #6D6D6C",
"z@	c #E7E6E4",
"A@	c #BA9D6E",
"B@	c #9A6E2A",
"C@	c #793B07",
"D@	c #A50000",
"E@	c #A80202",
"F@	c #CE2A20",
"G@	c #E26D47",
"H@	c #784B0E",
"I@	c #B1843D",
"J@	c #BA8C47",
"K@	c #B9873C",
"L@	c #BA8535",
"M@	c #C18C3B",
"N@	c #C48F3E",
"O@	c #C5903F",
"P@	c #C6903F",
"Q@	c #D0AA70",
"R@	c #E2D4BC",
"S@	c #E6DDCD",
"T@	c #DDBA82",
"U@	c #E4B264",
"V@	c #E2AF60",
"W@	c #D5AD6D",
"X@	c #DCC9A9",
"Y@	c #D9CBB4",
"Z@	c #B28E56",
"`@	c #9B6C22",
" #	c #9F742E",
".#	c #724308",
"+#	c #A20909",
"@#	c #71470C",
"##	c #B2843E",
"$#	c #B78A44",
"%#	c #B48336",
"&#	c #B58131",
"*#	c #B98434",
"=#	c #BC8737",
"-#	c #BE8939",
";#	c #C08B3A",
">#	c #BF8A3A",
",#	c #BB8736",
"'#	c #C18D3B",
")#	c #E3B265",
"!#	c #E8B86C",
"~#	c #E8B86B",
"{#	c #DEA956",
"]#	c #B47C24",
"^#	c #9E6B1A",
"/#	c #A27630",
"(#	c #6F480C",
"_#	c #97413E",
":#	c #8B8681",
"<#	c #71480A",
"[#	c #AF823D",
"}#	c #B38641",
"|#	c #B07D30",
"1#	c #B07C2D",
"2#	c #B47F30",
"3#	c #B78232",
"4#	c #B98535",
"5#	c #B78334",
"6#	c #B7802E",
"7#	c #D29C49",
"8#	c #E6B467",
"9#	c #E9B96E",
"0#	c #E3B160",
"a#	c #C78E33",
"b#	c #A56E15",
"c#	c #70480A",
"d#	c #8A8C86",
"e#	c #888A85",
"f#	c #9FA19D",
"g#	c #734C10",
"h#	c #AC7F3A",
"i#	c #AF833E",
"j#	c #AB792D",
"k#	c #AC7829",
"l#	c #AE7B2B",
"m#	c #B17D2D",
"n#	c #B37F2F",
"o#	c #B48030",
"p#	c #B47F2F",
"q#	c #B67F26",
"r#	c #C0872B",
"s#	c #DDA955",
"t#	c #E8B66B",
"u#	c #E7B669",
"v#	c #D49A3E",
"w#	c #BA7C1B",
"x#	c #A26B15",
"y#	c #976415",
"z#	c #744D12",
"A#	c #9FA09C",
"B#	c #A1A29F",
"C#	c #EBEBE9",
"D#	c #785218",
"E#	c #A67B35",
"F#	c #AB7F3A",
"G#	c #A67529",
"H#	c #A67324",
"I#	c #A97627",
"J#	c #AD792A",
"K#	c #AE7A2B",
"L#	c #C58A2D",
"M#	c #D3983D",
"N#	c #DEA955",
"O#	c #E9B96D",
"P#	c #D5993C",
"Q#	c #CB8B28",
"R#	c #BE8427",
"S#	c #A46C14",
"T#	c #9A6A1F",
"U#	c #A17531",
"V#	c #79541A",
"W#	c #A0A29E",
"X#	c #898A86",
"Y#	c #8B8D87",
"Z#	c #E4E4E2",
"`#	c #83622E",
" $	c #9E722E",
".$	c #A87B37",
"+$	c #A37228",
"@$	c #A16E20",
"#$	c #A47122",
"$$	c #A77425",
"%$	c #A87526",
"&$	c #A97526",
"*$	c #B77A19",
"=$	c #D09234",
"-$	c #DCA652",
";$	c #DBA54F",
">$	c #E8B86D",
",$	c #D09436",
"'$	c #D09332",
")$	c #D09334",
"!$	c #AF7212",
"~$	c #9B6B21",
"{$	c #9D712D",
"]$	c #846330",
"^$	c #E3E4E1",
"/$	c #8A8C87",
"($	c #888B85",
"_$	c #AFB0AC",
":$	c #816537",
"<$	c #976C28",
"[$	c #9F7127",
"}$	c #9C691B",
"|$	c #A06D1F",
"1$	c #A16F20",
"2$	c #A27021",
"3$	c #B28A4C",
"4$	c #B47718",
"5$	c #C78825",
"6$	c #D09435",
"7$	c #D89F46",
"8$	c #CD902E",
"9$	c #CA8B26",
"0$	c #C68725",
"a$	c #AF7313",
"b$	c #9F722D",
"c$	c #9D6E25",
"d$	c #966C27",
"e$	c #816638",
"f$	c #C5C6C3",
"g$	c #D1D2CF",
"h$	c #7B6745",
"i$	c #8D6220",
"j$	c #9F712A",
"k$	c #9A681A",
"l$	c #9B691B",
"m$	c #6A4713",
"n$	c #57544E",
"o$	c #402E13",
"p$	c #9A640E",
"q$	c #B47714",
"r$	c #C98C2A",
"s$	c #D9A14A",
"t$	c #E4B365",
"u$	c #E5B263",
"v$	c #C5841D",
"w$	c #B77914",
"x$	c #99630E",
"y$	c #3E2C11",
"z$	c #595652",
"A$	c #66440F",
"B$	c #7B6847",
"C$	c #D3D3D1",
"D$	c #D2D3D0",
"E$	c #A5A6A1",
"F$	c #82765F",
"G$	c #825816",
"H$	c #825713",
"I$	c #231705",
"J$	c #0A0601",
"K$	c #4C3207",
"L$	c #BF8222",
"M$	c #C98C2B",
"N$	c #C88A27",
"O$	c #BF801B",
"P$	c #AB6F0F",
"Q$	c #4E3207",
"R$	c #090601",
"S$	c #835713",
"T$	c #805616",
"U$	c #817760",
"V$	c #A5A6A2",
"W$	c #CACBC8",
"X$	c #87877F",
"Y$	c #72490B",
"Z$	c #9A691E",
"`$	c #201505",
" %	c #080501",
".%	c #452D06",
"+%	c #6F480A",
"@%	c #774D0A",
"#%	c #553707",
"$%	c #0A0701",
"%%	c #201605",
"&%	c #724A0B",
"*%	c #6E4609",
"=%	c #888881",
"-%	c #CACAC7",
";%	c #898B86",
">%	c #CBCCC8",
",%	c #E5E5E3",
"'%	c #999B97",
")%	c #704A0F",
"!%	c #906522",
"~%	c #A0732D",
"{%	c #0B0702",
"]%	c #8A8B86",
"^%	c #BDBEBA",
"/%	c #785010",
"(%	c #9C6D23",
"_%	c #5B3C0D",
":%	c #020100",
"<%	c #282726",
"[%	c #5C3D0D",
"}%	c #A17631",
"|%	c #764E0F",
"1%	c #BEBFBC",
"2%	c #D1D2CE",
"3%	c #898C87",
"4%	c #A8AAA6",
"5%	c #8F918C",
"6%	c #6F4708",
"7%	c #8B6120",
"8%	c #815613",
"9%	c #422C0A",
"0%	c #221705",
"a%	c #0D0902",
"b%	c #15100A",
"c%	c #282827",
"d%	c #5D5D5D",
"e%	c #A3A3A2",
"f%	c #A2A2A1",
"g%	c #89601F",
"h%	c #6F4608",
"i%	c #888B86",
"j%	c #A7A9A5",
"k%	c #B4B5B2",
"l%	c #CDCECA",
"m%	c #956B29",
"n%	c #9E712B",
"o%	c #C0A57C",
"p%	c #EBE9E4",
"q%	c #EAE8E3",
"r%	c #DDD4C3",
"s%	c #BEA379",
"t%	c #CDCDCB",
"u%	c #B4B5B1",
"v%	c #898B87",
"w%	c #8B8C87",
"x%	c #ABACA8",
"y%	c #BDBEBB",
"z%	c #70480C",
"A%	c #946A29",
"B%	c #8A8D87",
"C%	c #D3D4D1",
"D%	c #B8B9B5",
"E%	c #505759",
"F%	c #895F1E",
"G%	c #9E7028",
"H%	c #885F1E",
"I%	c #3363A3",
"J%	c #D3D4D0",
"K%	c #8B8D88",
"L%	c #BABBB7",
"M%	c #A7A8A4",
"N%	c #878984",
"O%	c #3465A4",
"P%	c #4F7EB6",
"Q%	c #717E86",
"R%	c #704A11",
"S%	c #754C0E",
"T%	c #8B611E",
"U%	c #8C621F",
"V%	c #6F490F",
"W%	c #5E625D",
"X%	c #466484",
"Y%	c #34619C",
"Z%	c #3363A0",
"`%	c #868883",
" &	c #A7A9A4",
".&	c #838780",
"+&	c #3366A4",
"@&	c #4A7AB3",
"#&	c #729FCF",
"$&	c #7294B6",
"%&	c #70654D",
"&&	c #6F490D",
"*&	c #6F470A",
"=&	c #7C5213",
"-&	c #865D1B",
";&	c #926623",
">&	c #986C29",
",&	c #9B6F2C",
"'&	c #9E722F",
")&	c #875D1C",
"!&	c #7C5313",
"~&	c #68593B",
"{&	c #596F81",
"]&	c #536F8A",
"^&	c #506982",
"/&	c #415A76",
"(&	c #34629D",
"_&	c #848681",
":&	c #32619E",
"<&	c #3668A6",
"[&	c #6E9BCC",
"}&	c #7196BB",
"|&	c #71736C",
"1&	c #6F4F1C",
"2&	c #6E4E19",
"3&	c #686558",
"4&	c #5E778E",
"5&	c #597796",
"6&	c #55728E",
"7&	c #526D87",
"8&	c #4E677E",
"9&	c #4B6076",
"0&	c #37567C",
"a&	c #3464A4",
"b&	c #3466A4",
"c&	c #4979B2",
"d&	c #729ECE",
"e&	c #6D98C4",
"f&	c #688FB8",
"g&	c #667C91",
"h&	c #656A67",
"i&	c #665B41",
"j&	c #68532E",
"k&	c #684F23",
"l&	c #684A1A",
"m&	c #66491D",
"n&	c #69542F",
"o&	c #6F5E3E",
"p&	c #6D6551",
"q&	c #6A7274",
"r&	c #677E93",
"s&	c #6284A7",
"t&	c #5E7FA2",
"u&	c #5B7A9B",
"v&	c #577592",
"w&	c #546F8A",
"x&	c #4C647B",
"y&	c #495E73",
"z&	c #3D536B",
"A&	c #3566A4",
"B&	c #4B7AB4",
"C&	c #719ECD",
"D&	c #6D97C3",
"E&	c #6890B9",
"F&	c #6388AE",
"G&	c #5E80A3",
"H&	c #597998",
"I&	c #506A83",
"J&	c #3F5976",
"K&	c #32547C",
"L&	c #3464A3",
"M&	c #4878B1",
"N&	c #6A95C3",
"O&	c #6A94BE",
"P&	c #678DB7",
"Q&	c #6488AE",
"R&	c #6083A6",
"S&	c #5D7D9E",
"T&	c #597797",
"U&	c #55728F",
"V&	c #4E667E",
"W&	c #4B6177",
"X&	c #475C6E",
"Y&	c #3F566E",
"Z&	c #31609E",
"`&	c #3768A5",
" *	c #6A98CA",
".*	c #6D96C2",
"+*	c #688FB7",
"@*	c #6387AE",
"#*	c #5A7997",
"$*	c #55708D",
"%*	c #47617C",
"&*	c #365170",
"**	c #325784",
"=*	c #294C7B",
"-*	c #21426A",
";*	c #3465A2",
">*	c #39669E",
",*	c #557EAC",
"'*	c #648BB2",
")*	c #6285AA",
"!*	c #5B7B9A",
"~*	c #4C657B",
"{*	c #45596B",
"]*	c #385D88",
"^*	c #3363A2",
"/*	c #3465A3",
"(*	c #3A6BA8",
"_*	c #5C8ABF",
":*	c #6E9AC9",
"<*	c #6C95C2",
"[*	c #678EB7",
"}*	c #6287AC",
"|*	c #5D7FA1",
"1*	c #527292",
"2*	c #436282",
"3*	c #355271",
"4*	c #32547F",
"5*	c #315C92",
"6*	c #315E97",
"7*	c #386192",
"8*	c #486C96",
"9*	c #537598",
"0*	c #587796",
"a*	c #56738F",
"b*	c #526C87",
"c*	c #4F677F",
"d*	c #4A6177",
"e*	c #42576F",
"f*	c #3A5D88",
"g*	c #3566A3",
"h*	c #32649E",
"i*	c #3364A2",
"j*	c #3B679F",
"k*	c #3C6698",
"l*	c #3A6291",
"m*	c #355B8B",
"n*	c #335A8B",
"o*	c #335D92",
"p*	c #305F97",
"q*	c #2F5D97",
"r*	c #34619B",
"s*	c #335E93",
"t*	c #335989",
"u*	c #375B85",
"v*	c #3A5B84",
"w*	c #395B84",
"x*	c #345B8B",
"y*	c #33639F",
"z*	c #3465A1",
"A*	c #31619C",
"B*	c #32609B",
"C*	c #315F9C",
"D*	c #32619C",
"                                      . + @ @ @ @ @ #                                           ",
"                                  $ % $ @ @ @ @ & * = - @ ;                                     ",
"                              > , ' ) @ @ @ @ @ ! = ~ { ] ^ @                                   ",
"                            $ / ( , @ @ @ @ @ @ _ : < [ } | 1 @                                 ",
"                          ) 2 / ' ) @ @ @ @ @ @ @ 3 4 5 6 7 8 < 9   ; ;                         ",
"                        @ 0 a b % @ @ @ @ @ @ @ @ c d e f g h i @ @ @ @ @                       ",
"                      j ( k / ' ) @ @ @ @ @ @ @ @ @ l m n o p q @ @ @ @ r                       ",
"                      + 2 a b s @ @ @ @ @ @ @ @ @ @ @ t * 5 u v @ @ w                           ",
"                x @ @ @ 2 / y ) @ @ @ @ @ @ @ @ @ @ @ z _ @ @ A B C D D                         ",
"              + @ @ @ @ , ' % @ @ @ @ @ @ @ @ @ @ @ @ E F G H I J K L D M N N N N               ",
"                @ @ @ @ @ @ @ @ @ @ @ @ @ O A P Q R S T U V V W X J Y Z D ` N N N N N           ",
"            N N  ...+.@.#.$.%.&.*.=.-.;.>.,.'.).!.~.{.].^./.V V (._.J :.D <.[.}.|.1.N N         ",
"        N N N N N 2.D 3.4.5.6.7.8.9.0.a.b.c.d.e.f.g.h.b.i.j.V V V k.J _.l.D m.n.o.}.p.N N       ",
"      q.N r.s.t.u.v.D w.x.y.z.A.B.C.D.b.b.b.b.E.F.b.b.b.b.G.H.V V W I.J J.D K.L.M.N.t.O.N       ",
"    N N P.Q.}.R.S.D T.U.V.W.A.X.Y.Z.b.b.b.b.b.b.b.b.b.b.b.b.`.V V V  +J .+++@+#+L.M.$+%+N N     ",
"    N &+*+$+=+L.-+D ;+>+,+z.'+Y.)+!+b.b.b.b.b.b.b.b.b.b.b.b.~+V V V W _.J {+D ]+L.L.^+/+N N     ",
"    N (+}._+L.L.:+D <+[+}+|+1+2+3+4+b.b.b.b.b.b.b.b.b.b.b.b.5+V V V V 6+J 7+D 8+L.L.9+}.N q.    ",
"  N N 0+a+b+L.c+D d+e+>+f+g+h+Y.i+j+b.k+l+m+n+o+p+q+r+s+k+b.t+V V V V u+J v+w+D x+L.y+u.N N     ",
"  N N z+A+L.L.B+D C+D+E+F+G+H+I+2+J+K+L+M+N+O+P+Q+N+R+O+S+j+T+V V V V U+J J V+D W+L.X+s.N q.    ",
"  N N Y+Z+L.L.`+D  @.@+@@@#@$@%@&@*@=@-@;@>@O+,@'@>@)@O+-@=@!@V V V V V X J ~@D {@L.]@^@N       ",
"    N /@(@L.L._@D :@<@[@}@|@1@2@3@4@5@Q+O+O+O+6@7@O+O+O+8@9@0@V V V V V a@J b@D c@d@O.N N       ",
"    N e@f@g@L.h@D i@j@k@l@m@|@n@1@o@p@q@r@s@t@u@v@w@x@y@z@A@V V V V V V k.J B@D C@N N N         ",
"    D@N E@F@G@H@D I@J@K@L@l@M@N@O@P@O@Q@R@S@T@U@V@W@X@Y@Z@V V V V V V V `@J  #D .#N             ",
"      N N N +#@#D ##$#%#&#*#=#-#;#;#>#-#,#'#)#!#~#{#]#^#V V V V V V V V  +J /#D (#              ",
"          _#:#D <#[#}#|#1#2#3#*#L@L@4#5#6#7#8#9#9#0#a#b#/.V V V V V V V u+J v+c#D d#            ",
"          e#f#g#D h#i#j#k#l#m#n#o#o#p#q#r#s#t#9#9#u#v#w#x#y#V V V V V V u+J v+D z#A#e#          ",
"        e#B#C#D#D E#F#G#H#I#k#J#K#l#]#L#M#N#O#9#9#O#P#Q#R#S#V V V V V V T#J U#D V#=@W#X#        ",
"      e#Y#Z#b.`#D  $.$+$@$#$H#$$%$&$*$=$-$;$>$9#9#!#,$'$)$!$V V V V V V ~$J {$D ]$b.^$/$e#      ",
"      ($_$b.b.:$D <$J [$}$T |$1$2$3$4$5$6$7$8#9#9#U@8$9$0$a$b$V V V V V c$J d$D e$b.b._$($      ",
"      e#f$b.g$h$D i$J j$V U k$l$m$n$o$p$q$r$s$t$u$v#v$w$x$y$z$A$/.V V V j$J i$D B$C$b.f$e#      ",
"      e#D$b.E$F$D G$J /#V V H$I$O+O+O+J$K$p$L$M$N$O$P$Q$R$O+O+O+I$S$V W _.J T$D U$V$b.g$e#      ",
"      e#W$=@e#X$D Y$U#J Z$V `$O+O+O+O+O+O+ %.%+%@%#%$%O+O+O+O+O+O+%%V Z$J U#&%*%=%e#=@-%e#      ",
"    ;%e#>%,%'%e#)%D !%J ~%V $%O+O+O+O+O+O+O+O+O+O+O+O+O+O+O+O+O+O+{%V ~%J !%D )%e#'%,%>%e#]%    ",
"    d#D$b.b.^%e#  D /%_.J (%_%:%O+O+O+O+O+O+O+<%<%O+O+O+O+O+O+O+:%[%(%J }%|%D   ;%1%b.b.2%;%    ",
"  3%4%b.b.C#5%($  6%D 7%J v+T#8%9%0%a%b%c%d%e%K+K+f%d%c%b%a%0%9%H$T#J J g%D h%  i%5%C#b.b.j%d#  ",
"  ($k%b.b.l%e#      D <#m%J v+k.V V V V n%o%~+p%q%r%s%n%V V V V k.v+J m%<#*%      e#t%b.b.u%v%  ",
"  w%x%b.b.y%e#        D z%m%J J X ~$U+V V V V V V V V V V U+~$X J J A%z%D         e#1%b.b.j%B%  ",
"    /$C%b.D%e#        E%D <#F%}%J J v+X G%k.(%~$~$(%k.G%X v+J J _.H%<#D E%I%      e#D%b.J%;%    ",
"    i%K%L%M%N%      O%P%Q%R%D S%T%Y J J J J J J J J J J J J Y U%S%D V%W%X%Y%Z%    `% &L%/$d#    ",
"      X#N%`%.&    +&@&#&#&$&%&&&D *&=&-&;&>&,&'&'&,&>&;&)&!&*&D (#~&{&]&^&/&(&    _&`%e#($      ",
"                :&<&[&#&#&#&#&}&|&1&D D D D D D D D D D D D 2&3&4&5&6&7&8&9&0&a&                ",
"                b&c&#&#&#&#&#&d&e&f&g&h&i&j&k&l&m&n&o&p&q&r&s&t&u&v&w&^&x&y&z&O%                ",
"                A&B&#&#&#&#&C&D&E&F&G&H&6&I&J&K&L&M&N&O&P&Q&R&S&T&U&7&V&W&X&Y&O%                ",
"                Z&`& *#&#&d&.*+*@*G&#*$*%*&***=*-*;*>*,*'*)*G&!*v&w&I&~*y&{*]*^*                ",
"                  /*(*_*:*<*[*}*|*1*2*3*4*5*        6*Y%7*8*9*0*a*b*c*d*e*f*g*                  ",
"                    h*O%i*j*k*l*m*n*o*p*                q*r*s*t*u*v*w*x*y*z*                    ",
"                          A*B*C*                                  B*D*                          ",
"                                                                                                "};
