/* XPM */
static char * package_xpm[] = {
"48 48 374 2",
"  	c None",
". 	c #A1670D",
"+ 	c #9F680C",
"@ 	c #A0670D",
"# 	c #A2680E",
"$ 	c #A3680E",
"% 	c #A3690E",
"& 	c #A2680C",
"* 	c #A3680C",
"= 	c #A0680C",
"- 	c #A0670C",
"; 	c #A46C15",
"> 	c #C08E42",
", 	c #E6C287",
"' 	c #E2BC81",
") 	c #E3BD81",
"! 	c #E3BE84",
"~ 	c #E5C089",
"{ 	c #E6C48E",
"] 	c #E7C592",
"^ 	c #E8C797",
"/ 	c #E8CA9C",
"( 	c #EACEA0",
"_ 	c #EBD0A6",
": 	c #EDD2AA",
"< 	c #EDD5AF",
"[ 	c #EFD7B4",
"} 	c #F2DCBB",
"| 	c #F4E3C8",
"1 	c #F2E2C8",
"2 	c #EFE0C6",
"3 	c #AC7826",
"4 	c #A46A0E",
"5 	c #A56D18",
"6 	c #A36C13",
"7 	c #C09450",
"8 	c #E2C69A",
"9 	c #E1BC7F",
"0 	c #AF7B2A",
"a 	c #A77320",
"b 	c #AA7420",
"c 	c #AD7621",
"d 	c #B07821",
"e 	c #B37A22",
"f 	c #B67D22",
"g 	c #B87F23",
"h 	c #BB8124",
"i 	c #BD8324",
"j 	c #C08526",
"k 	c #C38526",
"l 	c #C78927",
"m 	c #C98A28",
"n 	c #CA8A25",
"o 	c #CC881E",
"p 	c #CF8A1E",
"q 	c #D18C1F",
"r 	c #CDA563",
"s 	c #E2C79B",
"t 	c #CC881D",
"u 	c #AE7112",
"v 	c #A1680D",
"w 	c #A1680E",
"x 	c #A46F16",
"y 	c #B17F2F",
"z 	c #F0DCBD",
"A 	c #F8E8CF",
"B 	c #DEB87C",
"C 	c #C4974E",
"D 	c #A36D18",
"E 	c #A66F18",
"F 	c #A97119",
"G 	c #AF7923",
"H 	c #B5802D",
"I 	c #B2771A",
"J 	c #B5791A",
"K 	c #B87B1B",
"L 	c #BA7D1B",
"M 	c #BE801E",
"N 	c #C58B32",
"O 	c #C48623",
"P 	c #C6841D",
"Q 	c #C9861D",
"R 	c #D58C21",
"S 	c #E1C89E",
"T 	c #D9AC63",
"U 	c #DD9422",
"V 	c #D08A1E",
"W 	c #A86C0F",
"X 	c #A26A0D",
"Y 	c #A36B13",
"Z 	c #AF7E2E",
"` 	c #F3E1C5",
" .	c #E8CEA5",
"..	c #DEB87A",
"+.	c #A6701B",
"@.	c #A36F1B",
"#.	c #BB9F73",
"$.	c #EAE3DA",
"%.	c #FAFAFA",
"&.	c #F0F0F0",
"*.	c #E2DFDC",
"=.	c #C3AF8F",
"-.	c #B28A4C",
";.	c #D7C6AA",
">.	c #F5F4F2",
",.	c #F4F4F4",
"'.	c #EAE9E9",
").	c #D5CBBC",
"!.	c #C29B5F",
"~.	c #D48E1F",
"{.	c #D49637",
"].	c #EAD7B8",
"^.	c #D99934",
"/.	c #D79021",
"(.	c #CF8B1F",
"_.	c #A76B0F",
":.	c #A97520",
"<.	c #F1DDBF",
"[.	c #F6E6CD",
"}.	c #DEB77A",
"|.	c #B8883B",
"1.	c #9C6817",
"2.	c #BCAA8E",
"3.	c #EAEAEA",
"4.	c #F1F1F1",
"5.	c #F3F3F3",
"6.	c #ECECEC",
"7.	c #E3E3E3",
"8.	c #C6C6C6",
"9.	c #E2E2E1",
"0.	c #F7F7F7",
"a.	c #E0E0E0",
"b.	c #D5D5D5",
"c.	c #BA9C6E",
"d.	c #D79020",
"e.	c #D6AC69",
"f.	c #DFC396",
"g.	c #D78F22",
"h.	c #D28C20",
"i.	c #C8861D",
"j.	c #A36A0E",
"k.	c #A7711C",
"l.	c #ECD7B5",
"m.	c #E2C18F",
"n.	c #E2BD83",
"o.	c #BA8C44",
"p.	c #B6883E",
"q.	c #A27C3E",
"r.	c #CFC8BB",
"s.	c #D3CBC0",
"t.	c #D3CEC3",
"u.	c #D1CCC3",
"v.	c #CFCAC3",
"w.	c #BEB9B2",
"x.	c #BEBAB3",
"y.	c #D6D2CE",
"z.	c #D7D2CE",
"A.	c #D7D3CC",
"B.	c #D5D1CB",
"C.	c #D1CDC8",
"D.	c #CDCAC2",
"E.	c #C9C5BC",
"F.	c #C7BFB3",
"G.	c #B68537",
"H.	c #CE963C",
"I.	c #D1983C",
"J.	c #D3993C",
"K.	c #D49A3F",
"L.	c #EDDABD",
"M.	c #D6AB67",
"N.	c #D18C20",
"O.	c #CC881F",
"P.	c #C1811C",
"Q.	c #A3690D",
"R.	c #A46E16",
"S.	c #E8D1AC",
"T.	c #EEDAB8",
"U.	c #C59E5E",
"V.	c #F1D4A6",
"W.	c #EFCE9B",
"X.	c #EECE9C",
"Y.	c #EECE9D",
"Z.	c #E8C999",
"`.	c #E1C395",
" +	c #DBBE91",
".+	c #D5BA90",
"++	c #CFB590",
"@+	c #CEB692",
"#+	c #D2BD99",
"$+	c #D4C0A0",
"%+	c #D6C2A4",
"&+	c #D6C4A8",
"*+	c #D5C3AB",
"=+	c #D1C3AC",
"-+	c #D6C8B2",
";+	c #DCCFBC",
">+	c #E4D8C7",
",+	c #EBDFCE",
"'+	c #F1E5D3",
")+	c #F8EBD8",
"!+	c #F8ECD9",
"~+	c #FAEFDE",
"{+	c #F3E6CF",
"]+	c #B57816",
"^+	c #C8851D",
"/+	c #C6851E",
"(+	c #BB7D1A",
"_+	c #A1680C",
":+	c #A36E16",
"<+	c #E3C89F",
"[+	c #ECD6B4",
"}+	c #C19653",
"|+	c #DCBE90",
"1+	c #F0D8B3",
"2+	c #F1D19E",
"3+	c #F0D09D",
"4+	c #F0D09C",
"5+	c #F0CF9B",
"6+	c #F0CF9A",
"7+	c #F0CE99",
"8+	c #F0CE98",
"9+	c #EFCD97",
"0+	c #EFCD96",
"a+	c #EFCC95",
"b+	c #EFCC94",
"c+	c #EFCB93",
"d+	c #EFCB92",
"e+	c #EECA91",
"f+	c #EECA90",
"g+	c #EEC98F",
"h+	c #EEC98E",
"i+	c #EEC88D",
"j+	c #EEC88E",
"k+	c #F1DCBB",
"l+	c #CDA76C",
"m+	c #A2690D",
"n+	c #B07414",
"o+	c #BC7E1B",
"p+	c #B47818",
"q+	c #A1690D",
"r+	c #A46B13",
"s+	c #CEAB71",
"t+	c #BD914C",
"u+	c #A46C13",
"v+	c #A36A12",
"w+	c #F3E1C4",
"x+	c #F0D1A0",
"y+	c #EEC88C",
"z+	c #EDC78B",
"A+	c #EDC78A",
"B+	c #EDC689",
"C+	c #EDC688",
"D+	c #EDC587",
"E+	c #EDC990",
"F+	c #F3E0C4",
"G+	c #BC8D42",
"H+	c #A1690E",
"I+	c #A1670C",
"J+	c #AA6F12",
"K+	c #AC7114",
"L+	c #A46C14",
"M+	c #A7721D",
"N+	c #F2DEC1",
"O+	c #F1D4A5",
"P+	c #EDC586",
"Q+	c #ECC485",
"R+	c #ECC484",
"S+	c #ECC383",
"T+	c #ECC382",
"U+	c #ECC281",
"V+	c #EFCD9A",
"W+	c #F2DCBC",
"X+	c #A9721B",
"Y+	c #A56C13",
"Z+	c #F2D9B3",
"`+	c #ECC280",
" @	c #EBC17F",
".@	c #EBC17E",
"+@	c #EBC07D",
"@@	c #EBC07C",
"#@	c #EBBF7B",
"$@	c #EBBF7A",
"%@	c #F0D4A9",
"&@	c #E7CB9F",
"*@	c #A36A11",
"=@	c #C19550",
"-@	c #F2DFC2",
";@	c #EECB91",
">@	c #EABE79",
",@	c #EABE78",
"'@	c #EABD77",
")@	c #EABD76",
"!@	c #EABC75",
"~@	c #EBBE77",
"{@	c #F2DDBB",
"]@	c #D1AA6B",
"^@	c #A46C12",
"/@	c #A9731E",
"(@	c #F4E3CA",
"_@	c #B48334",
":@	c #DFBF8F",
"<@	c #C18429",
"[@	c #C68D39",
"}@	c #D5AD72",
"|@	c #E1C292",
"1@	c #C58A30",
"2@	c #C9933F",
"3@	c #D7B175",
"4@	c #E2C495",
"5@	c #C99037",
"6@	c #CD9846",
"7@	c #D9B479",
"8@	c #A2680D",
"9@	c #E5C699",
"0@	c #CE953F",
"a@	c #D19C4D",
"b@	c #DCB67D",
"c@	c #E7C99B",
"d@	c #D29B46",
"e@	c #D5A253",
"f@	c #DFBA81",
"g@	c #E9CC9F",
"h@	c #D6A14E",
"i@	c #D9A85A",
"j@	c #E1BE85",
"k@	c #A2690E",
"l@	c #EBCEA2",
"m@	c #DBA655",
"n@	c #DEAC61",
"o@	c #E4C089",
"p@	c #EDD1A5",
"q@	c #DFAC5C",
"r@	c #E1B267",
"s@	c #E7C48E",
"t@	c #EFD3A8",
"u@	c #E3B164",
"v@	c #E5B66E",
"w@	c #E9C791",
"x@	c #F1D6AB",
"y@	c #E7B76B",
"z@	c #E9BC75",
"A@	c #EBCA95",
"B@	c #F3D8AD",
"C@	c #EABA6F",
"D@	c #EBBF79",
"E@	c #EDCC97",
"F@	c #F3D7AD",
"G@	c #EDCB96",
"H@	c #A26A0F",
"I@	c #EFD0A0",
"J@	c #EDC382",
"K@	c #ECC07B",
"L@	c #ECBF7A",
"M@	c #EEC688",
"N@	c #E5BF84",
"O@	c #A26A12",
"P@	c #976311",
"Q@	c #B9883B",
"R@	c #E6C48D",
"S@	c #EAC996",
"T@	c #EAC995",
"U@	c #EAC994",
"V@	c #EAC894",
"W@	c #EAC893",
"X@	c #E9C792",
"Y@	c #E9C790",
"Z@	c #E9C690",
"`@	c #E3BD83",
" #	c #B17B28",
".#	c #98630F",
"+#	c #A46B11",
"@#	c #A26A11",
"##	c #A26911",
"$#	c #A26B13",
"                                                                                                ",
"                                                                                                ",
"                                                                                                ",
"                                                                                                ",
"                                                                                                ",
"                                                                                                ",
"                                                                                                ",
"                                                                                                ",
"                                                                                                ",
"                          . + @ @ @ @ @ . # # # # $ % & * * * * = -                             ",
"                      ; > , ' ' ' ) ! ~ { ] ^ / ( _ : < [ } | | 1 2 3 4                         ",
"                5 6 7 8 9 0 a a a b c d e f g h i j k l m n o p q r s t u v w                   ",
"              x y z A B C D D D D E F G H I J K L M N O P Q o p q R S T U V W X                 ",
"            Y Z ` A  ...+.D D D @.#.$.%.&.*.=.-.;.>.,.'.).!.o p q ~.{.].^./.(._.                ",
"            :.<.A [.}.|.D D D 1.2.3.4.5.6.7.8.9.4.0.5.3.a.b.c.Q q ~.d.e.f.g.h.i.j.              ",
"          k.l.A A m.n.o.o.o.p.q.r.s.t.u.v.w.x.y.z.A.B.C.D.E.F.G.H.I.J.K.L.M.N.O.P.Q.            ",
"        R.S.A T.U.V.W.X.X.X.Y.Z.`. +.+++@+#+$+%+&+*+=+-+;+>+,+'+)+!+!+!+~+{+]+^+/+(+_+          ",
"      :+<+[+}+Y |+1+2+2+2+2+2+2+3+4+5+6+6+7+8+9+0+a+a+b+c+d+e+e+f+g+h+i+j+k+l+m+n+o+p+q+        ",
"    r+s+t+u+v+7 w+x+4+5+6+6+7+8+9+0+a+a+b+c+d+d+e+f+g+h+i+i+y+z+A+B+B+C+D+E+F+G+H+I+J+K+.       ",
"  - - L+    M+N+O+9+0+0+a+b+c+d+d+e+f+g+h+h+i+y+z+A+B+B+C+D+P+P+Q+R+S+T+U+U+V+W+X+  _+v - -     ",
"- -       Y+8 Z+d+d+e+f+g+g+h+i+y+z+A+A+B+C+D+P+P+Q+R+S+T+U+U+`+ @.@+@+@@@#@$@%@&@*@      - -   ",
"          =@-@;@i+y+z+z+A+B+C+D+P+P+Q+R+S+T+T+U+`+ @.@+@+@@@#@$@$@>@,@'@)@!@!@~@{@]@^@          ",
"        /@(@(@(@(@(@(@(@(@(@(@(@(@(@(@(@(@(@(@(@(@(@(@(@(@(@(@(@(@(@(@(@(@(@(@(@(@(@_@          ",
"        - - - - - - - - - - - - - - - - - - - - - - - - - - - - - - - - - - - - - - - -         ",
"              _+:@<@<@<@<@<@<@<@<@<@<@<@<@<@<@<@<@<@<@<@<@<@<@<@<@<@<@<@<@[@}@_+                ",
"              _+|@1@1@1@1@1@1@1@1@1@1@1@1@1@1@1@1@1@1@1@1@1@1@1@1@1@1@1@1@2@3@_+                ",
"              v 4@5@5@5@5@5@5@5@5@5@5@5@5@5@5@5@5@5@5@5@5@5@5@5@5@5@5@5@5@6@7@8@                ",
"              q+9@0@0@0@0@0@0@0@0@0@0@0@0@0@0@0@0@0@0@0@0@0@0@0@0@0@0@0@0@a@b@8@                ",
"              m+c@d@d@d@d@d@d@d@d@d@d@d@d@d@d@d@d@d@d@d@d@d@d@d@d@d@d@d@d@e@f@8@                ",
"              m+g@h@h@h@h@h@h@h@h@h@h@h@h@h@h@h@h@h@h@h@h@h@h@h@h@h@h@h@h@i@j@8@                ",
"              k@l@m@m@m@m@m@m@m@m@m@m@m@m@m@m@m@m@m@m@m@m@m@m@m@m@m@m@m@m@n@o@m+                ",
"              # p@q@q@q@q@q@q@q@q@q@q@q@q@q@q@q@q@q@q@q@q@q@q@q@q@q@q@q@q@r@s@H+                ",
"              k@t@u@u@u@u@u@u@u@u@u@u@u@u@u@u@u@u@u@u@u@u@u@u@u@u@u@u@u@u@v@w@H+                ",
"              k@x@y@y@y@y@y@y@y@y@y@y@y@y@y@y@y@y@y@y@y@y@y@y@y@y@y@y@y@y@z@A@H+                ",
"              k@B@C@C@C@C@C@C@C@C@C@C@C@C@C@C@C@C@C@C@C@C@C@C@C@C@C@C@C@C@D@E@H+                ",
"              k@F@C@C@C@C@C@C@C@C@C@C@C@C@C@C@C@C@C@C@C@C@C@C@C@C@C@C@C@C@D@G@H+                ",
"              H@I@J@K@K@K@K@K@K@K@K@K@L@L@L@L@L@L@L@L@L@L@L@L@L@L@L@L@L@L@M@N@O@                ",
"              P@Q@R@S@S@T@T@U@U@U@U@V@V@W@W@W@W@X@X@X@X@w@w@w@w@Y@Y@Z@Z@Z@`@ #                  ",
"                .#Y +#+#*@*@*@@#@#@#####################@#@#@#*@*@*@*@+#+#$#                    ",
"                                                                                                ",
"                                                                                                ",
"                                                                                                ",
"                                                                                                ",
"                                                                                                ",
"                                                                                                ",
"                                                                                                ",
"                                                                                                ",
"                                                                                                "};
