/* XPM */
static char * particles_xpm[] = {
"48 48 447 2",
"  	c None",
". 	c #585A57",
"+ 	c #585955",
"@ 	c #575955",
"# 	c #585A56",
"$ 	c #595B58",
"% 	c #7D817B",
"& 	c #B5B9B1",
"* 	c #B5B8B2",
"= 	c #7D817A",
"- 	c #5A5B56",
"; 	c #585956",
"> 	c #A3A69F",
", 	c #B5B8B1",
"' 	c #575A56",
") 	c #5A5D59",
"! 	c #595C57",
"~ 	c #B9BCB5",
"{ 	c #A5A7A2",
"] 	c #A6AAA4",
"^ 	c #B5B9B2",
"/ 	c #5B5D57",
"( 	c #767975",
"_ 	c #A8AAA4",
": 	c #B5B8B0",
"< 	c #ACAFA8",
"[ 	c #B1B3AD",
"} 	c #AAACA5",
"| 	c #555753",
"1 	c #5B5D59",
"2 	c #5A5C58",
"3 	c #696B66",
"4 	c #B3B6AF",
"5 	c #BABDB6",
"6 	c #B9BBB5",
"7 	c #B8BBB4",
"8 	c #B6B9B2",
"9 	c #B4B7B0",
"0 	c #B3B6B0",
"a 	c #AFB3AC",
"b 	c #6B6D69",
"c 	c #595B57",
"d 	c #5A5C59",
"e 	c #5C5E5A",
"f 	c #A2A69F",
"g 	c #5D5E5C",
"h 	c #7C7E79",
"i 	c #B7BAB3",
"j 	c #B8BAB3",
"k 	c #B8BBB5",
"l 	c #737671",
"m 	c #626460",
"n 	c #B1B4AD",
"o 	c #BABCB5",
"p 	c #AFB2AB",
"q 	c #676A64",
"r 	c #BABCB6",
"s 	c #5B5E58",
"t 	c #575953",
"u 	c #696A65",
"v 	c #B8BCB5",
"w 	c #B9BCB4",
"x 	c #B4B8B1",
"y 	c #AEB2AA",
"z 	c #B2B5AE",
"A 	c #A2A6A0",
"B 	c #B9BDB5",
"C 	c #B6BAB3",
"D 	c #929590",
"E 	c #B6B9B3",
"F 	c #B0B3AD",
"G 	c #575954",
"H 	c #9EA19B",
"I 	c #B4B6B0",
"J 	c #5A5C56",
"K 	c #B7B9B3",
"L 	c #AFB2AC",
"M 	c #B0B2AC",
"N 	c #81847F",
"O 	c #575956",
"P 	c #5C5E5B",
"Q 	c #595A59",
"R 	c #AEB1AA",
"S 	c #ABAEA7",
"T 	c #9C9F9A",
"U 	c #5C5D5D",
"V 	c #5A5D58",
"W 	c #8A8C88",
"X 	c #B9BCB6",
"Y 	c #9A9D99",
"Z 	c #A8ABA4",
"` 	c #A5A8A2",
" .	c #A4A6A1",
"..	c #B7B9B2",
"+.	c #838483",
"@.	c #5C5D5F",
"#.	c #5D5F5F",
"$.	c #5D5E5D",
"%.	c #5C5D59",
"&.	c #8E918B",
"*.	c #8E908B",
"=.	c #848784",
"-.	c #B2B5AF",
";.	c #B6B8B2",
">.	c #AEB1AB",
",.	c #AAADA6",
"'.	c #A7AAA3",
").	c #A5A7A1",
"!.	c #A2A59E",
"~.	c #9FA29C",
"{.	c #A4A6A0",
"].	c #9D9F9B",
"^.	c #5F6162",
"/.	c #595C58",
"(.	c #ADAFA8",
"_.	c #ABADA7",
":.	c #ACAFA9",
"<.	c #B0B3AC",
"[.	c #B7BBB4",
"}.	c #B7BBB5",
"|.	c #B6BBB6",
"1.	c #B6BBB7",
"2.	c #B5BBB7",
"3.	c #B4B9B7",
"4.	c #B3BAB6",
"5.	c #B2B8B6",
"6.	c #B2B8B5",
"7.	c #B1B7B4",
"8.	c #B0B5B3",
"9.	c #AEB4B2",
"0.	c #ADB3B0",
"a.	c #ACB2AD",
"b.	c #ABB0AB",
"c.	c #A9AEA8",
"d.	c #A8ACA5",
"e.	c #A2A59F",
"f.	c #A0A39C",
"g.	c #9DA09A",
"h.	c #9B9E98",
"i.	c #999B95",
"j.	c #969994",
"k.	c #959892",
"l.	c #959992",
"m.	c #999C99",
"n.	c #606265",
"o.	c #565854",
"p.	c #9C9F99",
"q.	c #A8ABA5",
"r.	c #A4A7A1",
"s.	c #A6A9A3",
"t.	c #A9ACA6",
"u.	c #ABAFA8",
"v.	c #ABAFAC",
"w.	c #ABB1AD",
"x.	c #ABB2AF",
"y.	c #ABB3B1",
"z.	c #ABB3B2",
"A.	c #ACB3B5",
"B.	c #ACB4B5",
"C.	c #ACB4B7",
"D.	c #ACB5B8",
"E.	c #ACB5B7",
"F.	c #ABB4B7",
"G.	c #AAB4B6",
"H.	c #A9B3B5",
"I.	c #A9B1B4",
"J.	c #A7B0B2",
"K.	c #A5ADAF",
"L.	c #A4ACAE",
"M.	c #A1A9AA",
"N.	c #A0A7A7",
"O.	c #9FA5A4",
"P.	c #9CA3A1",
"Q.	c #9BA09C",
"R.	c #989B95",
"S.	c #969993",
"T.	c #949791",
"U.	c #92948E",
"V.	c #8F928C",
"W.	c #8D8F8A",
"X.	c #B5B7B1",
"Y.	c #616268",
"Z.	c #5C5D5C",
"`.	c #A6A9A2",
" +	c #B3B5AF",
".+	c #A3A59E",
"++	c #A1A39D",
"@+	c #A1A4A0",
"#+	c #A0A6A3",
"$+	c #A1A8A6",
"%+	c #A2AAA9",
"&+	c #A3ACAD",
"*+	c #A5ADAE",
"=+	c #A5AFB1",
"-+	c #A8B1B4",
";+	c #A9B2B6",
">+	c #ABB4B9",
",+	c #ACB6BB",
"'+	c #AEB8BC",
")+	c #AFB9BD",
"!+	c #B0B9BD",
"~+	c #AFB9BE",
"{+	c #AEB7BB",
"]+	c #ABB5B9",
"^+	c #A9B3B7",
"/+	c #A7B1B6",
"(+	c #A4ADB2",
"_+	c #A1ABAE",
":+	c #9EA8AA",
"<+	c #9CA4A6",
"[+	c #99A0A2",
"}+	c #969E9E",
"|+	c #939A9A",
"1+	c #929795",
"2+	c #909491",
"3+	c #8D8F89",
"4+	c #8A8D87",
"5+	c #888A85",
"6+	c #858882",
"7+	c #999B9A",
"8+	c #808282",
"9+	c #636467",
"0+	c #636466",
"a+	c #8E8F8E",
"b+	c #8E918F",
"c+	c #696A73",
"d+	c #888B8E",
"e+	c #989B96",
"f+	c #A0A6A1",
"g+	c #ACB3AF",
"h+	c #A8AFAF",
"i+	c #9CA2A3",
"j+	c #9DA5A8",
"k+	c #A0A9AB",
"l+	c #A2ACB0",
"m+	c #A4AFB2",
"n+	c #A9B2B7",
"o+	c #ADB6B9",
"p+	c #B0BABE",
"q+	c #B4BCC1",
"r+	c #B7C0C3",
"s+	c #C3CACE",
"t+	c #CCD3D7",
"u+	c #CED5D9",
"v+	c #CBD2D6",
"w+	c #B8C0C3",
"x+	c #B3BBBF",
"y+	c #AFB7BC",
"z+	c #AAB2B8",
"A+	c #A8B1B5",
"B+	c #A8B2B7",
"C+	c #9DA6AA",
"D+	c #98A1A4",
"E+	c #949C9F",
"F+	c #909899",
"G+	c #8E9494",
"H+	c #8E9394",
"I+	c #A1A5A2",
"J+	c #8B8D88",
"K+	c #898B86",
"L+	c #B4B7B1",
"M+	c #63656B",
"N+	c #6B6C77",
"O+	c #8D8F93",
"P+	c #B1B4AE",
"Q+	c #AEB3B0",
"R+	c #9496A1",
"S+	c #ABB2B2",
"T+	c #A2ABAC",
"U+	c #99A1A4",
"V+	c #9BA5A9",
"W+	c #9FA8AC",
"X+	c #A3ADB1",
"Y+	c #A9B1B7",
"Z+	c #AEB6BB",
"`+	c #B4BDC1",
" @	c #BBC2C5",
".@	c #C6CCCF",
"+@	c #D6DBDD",
"@@	c #E4E7E9",
"#@	c #F8FAFB",
"$@	c #E7E9EA",
"%@	c #D9DCDE",
"&@	c #C8CDD0",
"*@	c #BCC3C6",
"=@	c #B5BCC0",
"-@	c #B4BCC0",
";@	c #BDC6CA",
">@	c #B1B9BE",
",@	c #B4BDC2",
"'@	c #9FA9AD",
")@	c #929C9F",
"!@	c #8F979B",
"~@	c #969FA0",
"{@	c #ADB6B5",
"]@	c #A1A5A6",
"^@	c #9FA1A2",
"/@	c #9B9D9C",
"(@	c #717181",
"_@	c #85868B",
":@	c #828287",
"<@	c #66666F",
"[@	c #686878",
"}@	c #757488",
"|@	c #77778D",
"1@	c #79788F",
"2@	c #797790",
"3@	c #8D8D9E",
"4@	c #AFB8BA",
"5@	c #98A2A4",
"6@	c #959EA1",
"7@	c #98A1A6",
"8@	c #9DA6AB",
"9@	c #A7B0B5",
"0@	c #BBC5C9",
"a@	c #C1CACD",
"b@	c #BAC3C6",
"c@	c #B7BFC3",
"d@	c #D0D5D8",
"e@	c #EAEEF2",
"f@	c #DBE0E3",
"g@	c #C7CDD0",
"h@	c #BAC0C3",
"i@	c #B3BBBE",
"j@	c #BDC6C9",
"k@	c #9F9EB7",
"l@	c #928FBA",
"m@	c #9C9FB1",
"n@	c #B3BCBD",
"o@	c #B3BABC",
"p@	c #A9AFAF",
"q@	c #9292A0",
"r@	c #7E7D99",
"s@	c #787790",
"t@	c #797890",
"u@	c #77768B",
"v@	c #707182",
"w@	c #7B7894",
"x@	c #9497A6",
"y@	c #B1B9B9",
"z@	c #A7B0B1",
"A@	c #A3ACAE",
"B@	c #B5BDC0",
"C@	c #A1A4B9",
"D@	c #A09FC6",
"E@	c #B9C3C7",
"F@	c #AAB2B7",
"G@	c #C4CCD2",
"H@	c #CDD5DC",
"I@	c #AAB2B6",
"J@	c #B8C2C5",
"K@	c #B3BABE",
"L@	c #9F9EC1",
"M@	c #8683A8",
"N@	c #7A769B",
"O@	c #8B89AD",
"P@	c #8E8BB0",
"Q@	c #8B88AC",
"R@	c #8482A2",
"S@	c #7D7A99",
"T@	c #8D8AAB",
"U@	c #9A9BAA",
"V@	c #9EA2AB",
"W@	c #9C9FB0",
"X@	c #9996BF",
"Y@	c #8A87B1",
"Z@	c #9D99CB",
"`@	c #A2A3BF",
" #	c #AAAFB8",
".#	c #B1BABD",
"+#	c #BEC6CB",
"@#	c #E2E9F1",
"##	c #B1B8BB",
"$#	c #A9AEB6",
"%#	c #A3A3C1",
"&#	c #9D9ACE",
"*#	c #8480A7",
"=#	c #9D98CC",
"-#	c #A6A1DA",
";#	c #AAA6E4",
">#	c #F5F5FC",
",#	c #B1B1E1",
"'#	c #9C99CE",
")#	c #6288B1",
"!#	c #C0D1E3",
"~#	c #ACC2DA",
"{#	c #5F84A9",
"]#	c #98B6D5",
"^#	c #D8E3EF",
"/#	c #6E99C8",
"(#	c #709ACB",
"_#	c #8CB1D8",
":#	c #FFFFFF",
"<#	c #E4EDF6",
"[#	c #C8DAEC",
"}#	c #ACC7E3",
"|#	c #90B3D9",
"1#	c #76A2D1",
"2#	c #729FCE",
"3#	c #73A0D0",
"4#	c #DEE8F4",
"5#	c #B2CBE5",
"6#	c #73A0CF",
"7#	c #AFC9E4",
"8#	c #73A0D1",
"9#	c #729ECF",
"0#	c #729FCF",
"a#	c #97B8DC",
"b#	c #72A0CF",
"c#	c #95B7DB",
"d#	c #F4F7FB",
"e#	c #CBDCED",
"f#	c #CDDDEE",
"g#	c #86ADD6",
"h#	c #77A3D0",
"i#	c #F0F4FA",
"j#	c #91B4DA",
"k#	c #739ED0",
"l#	c #739FD0",
"m#	c #E0EAF5",
"n#	c #B2CBE4",
"o#	c #729FD0",
"p#	c #739FD1",
"q#	c #AFC9E3",
"r#	c #F3F7FB",
"s#	c #739FCF",
"t#	c #BAD0E7",
"u#	c #98B9DC",
"v#	c #78A3D1",
"w#	c #BDD2E9",
"x#	c #E6EEF6",
"y#	c #92B5D9",
"z#	c #EDF3F9",
"A#	c #DEE9F3",
"B#	c #77A2D1",
"C#	c #E2EBF5",
"D#	c #74A0D1",
"E#	c #F0F5FA",
"F#	c #99B8DC",
"G#	c #F6F9FC",
"H#	c #C0D5EA",
"I#	c #8BB0D8",
"J#	c #F2F7FB",
"K#	c #D9E5F3",
"L#	c #A9C5E2",
"M#	c #E3EBF5",
"N#	c #DBE7F2",
"                                                                                                ",
"                                                                                                ",
"                                                                                                ",
"                                                                                                ",
"                                                                                                ",
"                                                                                                ",
"                                                                                                ",
"                                                                                                ",
"                                                                                                ",
"                                                  . + @ #                                       ",
"                                                $ % & * = -                                     ",
"                                                ; & > > , '                                     ",
"                                            ) ! # ~ { ] ^ @                                     ",
"                                        / ( _ : ~ , < [ } |                                     ",
"                    1 @ 1           2 3 4 5 6 7 8 , 9 0 7 a b c   d @ d                         ",
"                  e f 5 f g       2 h ~ 5 5 5 5 5 5 5 ~ i j k l m n o p q                       ",
"                  @ r 5 5 @ @ s t u ~ 5 5 5 5 5 5 5 5 5 5 5 v ~ w x y z p 1                     ",
"                  s A r B k 5 C D x 5 5 5 5 5 5 5 5 5 5 5 5 5 ~ E 4 F p ~ G                     ",
"                    | H 5 5 5 5 5 5 5 5 5 5 5 5 5 5 5 5 5 5 5 5 7 , z n I |                     ",
"                    J K 5 5 5 5 5 5 5 5 5 5 5 5 5 5 5 5 5 5 5 5 7 , z L j M N c                 ",
"            # 2 O P Q 5 5 5 5 5 5 5 5 5 5 5 5 5 5 5 5 5 5 5 5 ~ 8 4 F R S R i T U               ",
"          V W 8 X C Y ~ 5 5 5 5 5 5 5 5 5 5 5 5 5 5 5 5 5 5 7 8 4 F R S Z `  ...+.@.#.$.        ",
"  %.&.*.d =.k -.4 ;.7 ~ 5 5 5 5 5 5 5 5 5 5 5 5 5 5 5 ~ i , 4 n >.< ,.'.).!.~.{.i 7 ;.].^.      ",
"/.Z z 4 I i (._.:.>.<.z 4 , 8 i [.}.|.1.2.3.4.5.6.7.8.9.0.a.b.c.d.'.).e.f.g.h.i.j.k.l.:.m.n.    ",
"o.7 p.p._.q.e.r.s.Z t._.u.v.w.x.y.z.A.B.C.D.E.E.F.G.H.I.J.K.L.M.N.O.P.Q.Y R.S.T.U.V.W.V.X.Y.    ",
"Z.`.p p  +E .+g.~.++@+#+$+%+&+*+=+-+;+>+,+'+)+!+~+)+{+]+^+/+(+_+:+<+[+}+|+1+2+&.3+4+5+6+5 7+8+9+",
"  0+a+b+c+d+, ~.e+f+g+h+i+j+k+l+m+n+o+p+q+r+s+t+u+v+s+w+x+y+z+A+B+C+D+E+F+G+H+I+++J+K+Z 5 5 L+M+",
"          N+O+P+~ Q+R+S+T+U+V+W+X+Y+Z+`+ @.@+@@@#@$@%@&@*@=@-@;@>@,@'@)@!@~@{@]@^@x 0 /@(@_@:@<@",
"            [@}@|@1@2@3@4@5@6@7@8@9@0@a@b@c@.@d@e@f@g@h@i@c@j@k@l@m@C.n@o@p@q@r@s@t@u@v@        ",
"                      w@x@y@z@A@^+B@C@D@B@E@)+F@G@H@I@'+J@K@L@M@  N@O@P@Q@R@                    ",
"                        S@T@U@V@W@X@Y@  Z@`@ #.#+#@###$#%#&#                                    ",
"                              *#            =#-#;#>#,#'#                                        ",
"                                                )#!#~#{#                                        ",
"                                                  ]#^#/#(#                                      ",
"                                                  _#:#<#[#}#|#1#2#                              ",
"                                                3#4#5#|#}#[#<#:#1#                              ",
"                                              6#7#4#8#    9#0#<#|#                              ",
"                                            2#a#:#a#2#      9#[#}#                              ",
"                                      b#0#0#c#d#e#f#b#        }#[#9#                            ",
"                                      g#:#:#:#c#h#i#j#        |#<#0#k#                          ",
"                                    l#m#n#0#o#0#p#q#r#s#      1#:#4#t#u#v#o#                    ",
"                                    w#x#3#      y#z#A#B#      b#v#u#t#C#:#D#                    ",
"                                    E#F#        G#H#                2#I#J#o#                    ",
"                                                K#                    L#M#                      ",
"                                                                        N#                      ",
"                                                                                                ",
"                                                                                                ",
"                                                                                                "};
