/* XPM */
static char * place_xpm[] = {
"24 24 302 2",
"  	c None",
". 	c #D09E46",
"+ 	c #D09D46",
"@ 	c #D1A04C",
"# 	c #D1A04D",
"$ 	c #CE9C45",
"% 	c #CC983C",
"& 	c #9E6A18",
"* 	c #925C06",
"= 	c #C48620",
"- 	c #DCB874",
"; 	c #DCB86F",
"> 	c #E4C98A",
", 	c #E5CA8A",
"' 	c #E4C884",
") 	c #E2C378",
"! 	c #E2C47B",
"~ 	c #E2C480",
"{ 	c #DCB66C",
"] 	c #D9B169",
"^ 	c #C28218",
"/ 	c #B07E2E",
"( 	c #AA7827",
"_ 	c #9E6814",
": 	c #C88C2C",
"< 	c #D7AD5B",
"[ 	c #E4C782",
"} 	c #DAB25F",
"| 	c #D8AE5D",
"1 	c #D19E49",
"2 	c #D9B266",
"3 	c #DCB666",
"4 	c #DEBC66",
"5 	c #DCB85D",
"6 	c #DDBB63",
"7 	c #E5C985",
"8 	c #C79A48",
"9 	c #C9994A",
"0 	c #B27E2A",
"a 	c #A67220",
"b 	c #D7AC5F",
"c 	c #E0C071",
"d 	c #DEBB6B",
"e 	c #D2A24E",
"f 	c #D4A452",
"g 	c #E2C47E",
"h 	c #DDB95F",
"i 	c #DDBA5F",
"j 	c #BD9239",
"k 	c #C99B4E",
"l 	c #CF9A47",
"m 	c #BE8E3E",
"n 	c #DFBD79",
"o 	c #DCB75C",
"p 	c #DCB76A",
"q 	c #C4821C",
"r 	c #C28018",
"s 	c #E1C17E",
"t 	c #DDBB61",
"u 	c #BA8E36",
"v 	c #C29449",
"w 	c #DDA959",
"x 	c #BF8A2E",
"y 	c #D7B872",
"z 	c #E8D09E",
"A 	c #DBB66C",
"B 	c #DEBD67",
"C 	c #E3C77E",
"D 	c #D9AF65",
"E 	c #CA9232",
"F 	c #CA9032",
"G 	c #DCB470",
"H 	c #E7CF90",
"I 	c #C0953E",
"J 	c #C49851",
"K 	c #E0AF62",
"L 	c #B67E23",
"M 	c #C29940",
"N 	c #DEBB62",
"O 	c #DFBD71",
"P 	c #D09C42",
"Q 	c #DAB268",
"R 	c #DBB569",
"S 	c #E4C881",
"T 	c #E9D49A",
"U 	c #E4C887",
"V 	c #E2C485",
"W 	c #E4C888",
"X 	c #E5CC8A",
"Y 	c #C59B45",
"Z 	c #CDA461",
"` 	c #E1B36B",
" .	c #B37B21",
"..	c #BA8F37",
"+.	c #BEA96A",
"@.	c #B2A26C",
"#.	c #D8BC72",
"$.	c #D8AE60",
"%.	c #C4841E",
"&.	c #D09C44",
"*.	c #DCB871",
"=.	c #E1C277",
"-.	c #E0BF67",
";.	c #DCBA61",
">.	c #CA9F49",
",.	c #D3AB6C",
"'.	c #E3B874",
").	c #B67E24",
"!.	c #B98E36",
"~.	c #BEAB6C",
"{.	c #70828C",
"].	c #7090B8",
"^.	c #859398",
"/.	c #ABA489",
"(.	c #D09E48",
"_.	c #E0BE7C",
":.	c #E0C476",
"<.	c #C99F4A",
"[.	c #D7B275",
"}.	c #E4BB7A",
"|.	c #B98126",
"1.	c #B88D36",
"2.	c #DCBD67",
"3.	c #8E8F79",
"4.	c #446B9E",
"5.	c #85A7CD",
"6.	c #5D87BA",
"7.	c #6F8496",
"8.	c #D8B064",
"9.	c #D8B065",
"0.	c #BEB187",
"a.	c #BFAC8B",
"b.	c #E1BB7E",
"c.	c #BD8429",
"d.	c #B98D35",
"e.	c #DABC67",
"f.	c #E1C36B",
"g.	c #CFB66B",
"h.	c #577590",
"i.	c #4371AA",
"j.	c #3B6BA7",
"k.	c #707F83",
"l.	c #DBB76D",
"m.	c #BDA77D",
"n.	c #D0D1CD",
"o.	c #C5C5C2",
"p.	c #A1824B",
"q.	c #B68C35",
"r.	c #D8BB66",
"s.	c #E2C46D",
"t.	c #B5A872",
"u.	c #77817A",
"v.	c #737D79",
"w.	c #355B8B",
"x.	c #A39A6F",
"y.	c #DFBF78",
"z.	c #90928A",
"A.	c #C8C8C5",
"B.	c #DBDCDA",
"C.	c #A8A9A4",
"D.	c #AC9A69",
"E.	c #D6BA67",
"F.	c #E3C66F",
"G.	c #D69C57",
"H.	c #D29955",
"I.	c #DFC26B",
"J.	c #B7A870",
"K.	c #E1C26A",
"L.	c #E1C37E",
"M.	c #8A8C86",
"N.	c #BFC0BB",
"O.	c #D8D8D6",
"P.	c #A4A59F",
"Q.	c #ADA175",
"R.	c #D7BB69",
"S.	c #E2C66F",
"T.	c #E3C771",
"U.	c #C7693B",
"V.	c #C94944",
"W.	c #C32621",
"X.	c #CB8248",
"Y.	c #E2C46C",
"Z.	c #E0BF78",
"`.	c #B7B8B5",
" +	c #D0D1CE",
".+	c #A6A59A",
"++	c #B0A274",
"@+	c #C6B75D",
"#+	c #BEBB56",
"$+	c #D5C367",
"%+	c #E4C972",
"&+	c #D79F5B",
"*+	c #CA4C47",
"=+	c #E85D5D",
"-+	c #D51110",
";+	c #B62414",
">+	c #CD894C",
",+	c #E3C672",
"'+	c #DCB76C",
")+	c #0E0E0E",
"!+	c #414141",
"~+	c #6C6C6A",
"{+	c #B0B1AD",
"]+	c #B8B29B",
"^+	c #BFAC70",
"/+	c #BBB654",
"(+	c #99C550",
"_+	c #7CC72F",
":+	c #88C030",
"<+	c #BFBD59",
"[+	c #D8A15D",
"}+	c #C62824",
"|+	c #DF1616",
"1+	c #D70E0E",
"2+	c #C12C19",
"3+	c #D19F59",
"4+	c #E6CD83",
"5+	c #D9B165",
"6+	c #525352",
"7+	c #989997",
"8+	c #828381",
"9+	c #73664C",
"0+	c #DCC081",
"a+	c #DDC06B",
"b+	c #9BB842",
"c+	c #94DB4F",
"d+	c #85DD2F",
"e+	c #76D21D",
"f+	c #96B839",
"g+	c #E6CC77",
"h+	c #C95E37",
"i+	c #BD0706",
"j+	c #BF351F",
"k+	c #B62314",
"l+	c #C45E35",
"m+	c #DEBD6F",
"n+	c #C88E2C",
"o+	c #303030",
"p+	c #545655",
"q+	c #4F514F",
"r+	c #585A58",
"s+	c #47381E",
"t+	c #DBBA72",
"u+	c #E2C570",
"v+	c #95B83B",
"w+	c #7FD22D",
"x+	c #7ED924",
"y+	c #75D11A",
"z+	c #90B636",
"A+	c #E5CC77",
"B+	c #D7A560",
"C+	c #C67141",
"D+	c #DBBD6C",
"E+	c #DAB566",
"F+	c #DBAB79",
"G+	c #EAD29C",
"H+	c #141414",
"I+	c #1E2021",
"J+	c #2E3131",
"K+	c #2E3232",
"L+	c #2B2D2D",
"M+	c #101212",
"N+	c #D9B570",
"O+	c #E9D392",
"P+	c #B9B852",
"Q+	c #88B12E",
"R+	c #5CAB0E",
"S+	c #60AC11",
"T+	c #8BAD33",
"U+	c #E5CC76",
"V+	c #E5CB75",
"W+	c #E2C772",
"X+	c #E4C974",
"Y+	c #E8D18D",
"Z+	c #D1AB62",
"`+	c #020202",
" @	c #141516",
".@	c #1E2121",
"+@	c #1A1C1D",
"@@	c #131616",
"#@	c #121414",
"$@	c #B87814",
"%@	c #CFAA63",
"&@	c #E4C982",
"*@	c #DCC97D",
"=@	c #B1B854",
"-@	c #9EB242",
";@	c #9DB13F",
">@	c #E5CA76",
",@	c #E6CD7D",
"'@	c #E9D28C",
")@	c #DCB86A",
"!@	c #E4C688",
"~@	c #CE9A40",
"{@	c #D8B165",
"]@	c #DAB66B",
"^@	c #E0C07A",
"/@	c #DFC07A",
"(@	c #DEBD75",
"_@	c #D0A85B",
":@	c #CAA051",
"<@	c #B67A18",
"                                                ",
"                                                ",
"                  . + @ # $ %           & *     ",
"            = - ; > , ' ) ! ~ { ] ^   / ( _     ",
"          : < [ } | 1 2 3 4 5 6 7 8 9 0 a       ",
"          b c d e       f g h i j k l m         ",
"          n o p q       r s t u v w x y z       ",
"          A B C D E   F G H I J K L M N O P     ",
"          Q R S T U V W X Y Z `  ...+.@.#.$.    ",
"            %.&.*.=.-.;.>.,.'.).!.~.{.].^./.(.  ",
"                  _.:.<.[.}.|.1.2.3.4.5.6.7.8.  ",
"                  9.0.a.b.c.d.e.f.g.h.i.j.k.l.  ",
"                  m.n.o.p.q.r.s.s.t.u.v.w.x.y.  ",
"                z.A.B.C.D.E.F.F.F.G.H.I.J.K.L.  ",
"              M.N.O.P.Q.R.S.T.T.U.V.W.X.Y.f.Z.  ",
"              `. +.+++@+#+$+%+&+*+=+-+;+>+,+'+  ",
"        )+!+~+{+]+^+/+(+_+:+<+[+}+|+1+2+3+4+5+  ",
"        6+7+8+9+0+a+b+c+d+e+f+g+h+i+j+k+l+m+n+  ",
"      o+p+q+r+s+t+u+v+w+x+y+z+A+B+C+D+E+F+G+    ",
"    H+I+J+K+L+M+N+O+P+Q+R+S+T+U+V+W+X+Y+Z+      ",
"  `+ @.@+@@@#@  $@%@&@*@=@-@;@>@,@'@)@!@        ",
"                    ~@{@]@^@/@(@_@:@<@          ",
"                                                ",
"                                                "};
