/* XPM */
static char * script_xpm[] = {
"48 48 468 2",
"  	c None",
". 	c #3E4462",
"+ 	c #3F4561",
"@ 	c #3E4561",
"# 	c #6A738A",
"$ 	c #96A3B8",
"% 	c #414966",
"& 	c #6B738B",
"* 	c #DAE0E8",
"= 	c #B5C2D3",
"- 	c #98A5BA",
"; 	c #424966",
"> 	c #DAE1E9",
", 	c #B3C1D2",
"' 	c #325584",
") 	c #728AAB",
"! 	c #9AA7BB",
"~ 	c #3E4563",
"{ 	c #DBE1E9",
"] 	c #B6C2D3",
"^ 	c #96A8C0",
"/ 	c #647FA2",
"( 	c #305383",
"_ 	c #718AAA",
": 	c #9AA7BC",
"< 	c #6B748B",
"[ 	c #DCE1E9",
"} 	c #98A9C1",
"| 	c #98AAC1",
"1 	c #97A9C1",
"2 	c #8B9FBA",
"3 	c #90A2BC",
"4 	c #6883A4",
"5 	c #9AA6BB",
"6 	c #B6C3D3",
"7 	c #99AAC2",
"8 	c #99ABC2",
"9 	c #9AABC2",
"0 	c #647EA2",
"a 	c #395988",
"b 	c #627CA1",
"c 	c #424A66",
"d 	c #6C748B",
"e 	c #DCE2E9",
"f 	c #B7C3D4",
"g 	c #9AABC3",
"h 	c #9BABC3",
"i 	c #9BACC3",
"j 	c #9CACC3",
"k 	c #45638F",
"l 	c #3C5C8A",
"m 	c #3D5C8A",
"n 	c #5E789F",
"o 	c #98A4BA",
"p 	c #6C758C",
"q 	c #DDE2EA",
"r 	c #B7C3D3",
"s 	c #9CACC4",
"t 	c #9DADC4",
"u 	c #9EADC4",
"v 	c #9EAEC5",
"w 	c #6D85A7",
"x 	c #4C6994",
"y 	c #41608D",
"z 	c #415F8D",
"A 	c #5B769D",
"B 	c #96A2B8",
"C 	c #434A67",
"D 	c #6D758C",
"E 	c #B8C3D4",
"F 	c #9FAEC5",
"G 	c #9FAFC5",
"H 	c #A0AFC6",
"I 	c #A1B0C6",
"J 	c #59729A",
"K 	c #44618F",
"L 	c #46628F",
"M 	c #5A749C",
"N 	c #939FB6",
"O 	c #B8C4D4",
"P 	c #A1B0C7",
"Q 	c #A2B0C7",
"R 	c #9CABC3",
"S 	c #6F85A8",
"T 	c #4E6994",
"U 	c #486491",
"V 	c #496591",
"W 	c #4A6592",
"X 	c #5A739B",
"Y 	c #919CB4",
"Z 	c #404563",
"` 	c #6E758C",
" .	c #DEE3EA",
"..	c #B9C4D5",
"+.	c #A2B1C7",
"@.	c #A3B1C7",
"#.	c #A3B1C8",
"$.	c #96A6C0",
"%.	c #4A6692",
"&.	c #4B6693",
"*.	c #4C6793",
"=.	c #4D6894",
"-.	c #4E6894",
";.	c #5E769E",
">.	c #A3ACC0",
",.	c #454C69",
"'.	c #404763",
").	c #6E768C",
"!.	c #A4B2C8",
"~.	c #A5B2C9",
"{.	c #A5B3C9",
"].	c #9AA9C2",
"^.	c #546D97",
"/.	c #4F6995",
"(.	c #506A95",
"_.	c #516A96",
":.	c #526B97",
"<.	c #8294B4",
"[.	c #ADB9CE",
"}.	c #B2BACB",
"|.	c #DEE3EB",
"1.	c #A6B3C9",
"2.	c #A7B4CA",
"3.	c #A8B4CA",
"4.	c #657BA2",
"5.	c #536B97",
"6.	c #536C98",
"7.	c #556D98",
"8.	c #556D99",
"9.	c #6B80A6",
"0.	c #ABB6CC",
"a.	c #AEB6C8",
"b.	c #6F768C",
"c.	c #DFE3EB",
"d.	c #BAC4D5",
"e.	c #A8B5CA",
"f.	c #A9B5CB",
"g.	c #94A3BF",
"h.	c #8294B3",
"i.	c #5C739D",
"j.	c #5E759E",
"k.	c #59719B",
"l.	c #586F9A",
"m.	c #59709B",
"n.	c #7A8BAE",
"o.	c #ACB8CD",
"p.	c #ADB8CD",
"q.	c #AFB9CF",
"r.	c #ADB5C7",
"s.	c #464D69",
"t.	c #BBC5D6",
"u.	c #A8B5CB",
"v.	c #AAB6CB",
"w.	c #AAB6CC",
"x.	c #697FA5",
"y.	c #6478A1",
"z.	c #A1AEC7",
"A.	c #9DAAC4",
"B.	c #6C80A6",
"C.	c #909FBD",
"D.	c #AEB9CE",
"E.	c #AFB9CE",
"F.	c #AFBACF",
"G.	c #9BA9C3",
"H.	c #8792AD",
"I.	c #444B67",
"J.	c #71768D",
"K.	c #ABB7CC",
"L.	c #ACB7CD",
"M.	c #ABB7CD",
"N.	c #657AA2",
"O.	c #5C729D",
"P.	c #6A7EA5",
"Q.	c #B0BACF",
"R.	c #9CA9C3",
"S.	c #7083A9",
"T.	c #6477A1",
"U.	c #6679A2",
"V.	c #7682A1",
"W.	c #E0E4EB",
"X.	c #BCC6D6",
"Y.	c #ADB8CE",
"Z.	c #A8B4CB",
"`.	c #6378A1",
" +	c #60759F",
".+	c #8191B3",
"++	c #B1BBD0",
"@+	c #8392B4",
"#+	c #6779A3",
"$+	c #677AA3",
"%+	c #697BA4",
"&+	c #707D9E",
"*+	c #E0E5EC",
"=+	c #BCC6D7",
"-+	c #9EABC4",
";+	c #7688AC",
">+	c #8090B2",
",+	c #6377A1",
"'+	c #9AA7C2",
")+	c #B2BBD0",
"!+	c #B3BCD1",
"~+	c #7A8AAF",
"{+	c #6A7CA5",
"]+	c #6B7DA6",
"^+	c #6C7DA6",
"/+	c #6D7EA6",
"(+	c #6D7EA7",
"_+	c #6B7799",
":+	c #404764",
"<+	c #71778D",
"[+	c #BDC6D7",
"}+	c #6F80A8",
"|+	c #6A7DA5",
"1+	c #8291B3",
"2+	c #8796B6",
"3+	c #B4BDD1",
"4+	c #7B8AAF",
"5+	c #6E7FA7",
"6+	c #6F7FA8",
"7+	c #7080A8",
"8+	c #7180A9",
"9+	c #7281A9",
"0+	c #646D90",
"a+	c #414863",
"b+	c #B7BECD",
"c+	c #8391B4",
"d+	c #919EBC",
"e+	c #B2BCD1",
"f+	c #B4BCD1",
"g+	c #B5BED2",
"h+	c #B6BED2",
"i+	c #8694B6",
"j+	c #7281AA",
"k+	c #7382AA",
"l+	c #7482AA",
"m+	c #7483AB",
"n+	c #6E7BA1",
"o+	c #505A75",
"p+	c #3B415A",
"q+	c #404761",
"r+	c #434966",
"s+	c #687696",
"t+	c #A2AEC7",
"u+	c #B2BCD0",
"v+	c #A7B1C9",
"w+	c #7D8DB1",
"x+	c #A1ACC6",
"y+	c #8794B6",
"z+	c #B6BFD3",
"A+	c #B7BFD3",
"B+	c #7583AB",
"C+	c #7684AC",
"D+	c #7785AC",
"E+	c #707DA1",
"F+	c #525B76",
"G+	c #454D68",
"H+	c #424865",
"I+	c #414762",
"J+	c #586689",
"K+	c #B4BDD2",
"L+	c #B5BDD2",
"M+	c #7081A8",
"N+	c #818EB3",
"O+	c #B8C0D4",
"P+	c #7C89AF",
"Q+	c #7885AD",
"R+	c #7886AD",
"S+	c #7986AE",
"T+	c #7B87AE",
"U+	c #737FA3",
"V+	c #545D77",
"W+	c #464E69",
"X+	c #434965",
"Y+	c #8991A7",
"Z+	c #8896B7",
"`+	c #8594B5",
" @	c #A3AEC7",
".@	c #929EBD",
"+@	c #818FB2",
"@@	c #909CBC",
"#@	c #BAC1D5",
"$@	c #A2ACC7",
"%@	c #7A87AE",
"&@	c #7B88AF",
"*@	c #7C88AF",
"=@	c #7D89B0",
"-@	c #7681A4",
";@	c #565E78",
">@	c #434863",
",@	c #525F81",
"'@	c #6B7CA4",
")@	c #8594B6",
"!@	c #8493B5",
"~@	c #7383AA",
"{@	c #8A97B8",
"]@	c #8592B5",
"^@	c #828FB3",
"/@	c #A9B1CB",
"(@	c #BBC2D6",
"_@	c #BCC2D6",
":@	c #8A95B8",
"<@	c #7E8AB0",
"[@	c #7F8AB1",
"}@	c #808BB2",
"|@	c #7882A6",
"1@	c #575F79",
"2@	c #484F69",
"3@	c #535E7E",
"4@	c #7987AD",
"5@	c #929EBC",
"6@	c #7381AA",
"7@	c #7584AC",
"8@	c #949FBE",
"9@	c #7C8AB0",
"0@	c #8691B6",
"a@	c #AFB7CE",
"b@	c #B0B7CE",
"c@	c #BDC3D7",
"d@	c #BBC1D5",
"e@	c #7F8AB0",
"f@	c #818BB2",
"g@	c #818CB2",
"h@	c #838DB3",
"i@	c #7A84A8",
"j@	c #59617A",
"k@	c #414763",
"l@	c #545C7C",
"m@	c #727FA7",
"n@	c #96A0BF",
"o@	c #BEC4D7",
"p@	c #BFC4D8",
"q@	c #BFC5D8",
"r@	c #AEB5CE",
"s@	c #828CB3",
"t@	c #838DB4",
"u@	c #848EB4",
"v@	c #868FB5",
"w@	c #7D85A9",
"x@	c #5B627B",
"y@	c #495069",
"z@	c #424763",
"A@	c #545C7A",
"B@	c #7581A8",
"C@	c #838EB4",
"D@	c #979FC0",
"E@	c #B0B7CF",
"F@	c #C1C6D9",
"G@	c #A8AFCA",
"H@	c #858EB4",
"I@	c #8890B6",
"J@	c #8891B6",
"K@	c #8087AB",
"L@	c #5D637C",
"M@	c #49506A",
"N@	c #424965",
"O@	c #555C79",
"P@	c #7884A9",
"Q@	c #9DA5C3",
"R@	c #C2C7DA",
"S@	c #C3C7DA",
"T@	c #A6ACC8",
"U@	c #8991B7",
"V@	c #8A92B8",
"W@	c #8B93B8",
"X@	c #8389AC",
"Y@	c #5E647D",
"Z@	c #4A506A",
"`@	c #555C78",
" #	c #7A83A8",
".#	c #8790B6",
"+#	c #A1A7C6",
"@#	c #C4C8DB",
"##	c #A7ADC9",
"$#	c #8C93B8",
"%#	c #8D94B9",
"&#	c #8E94BA",
"*#	c #858BAE",
"=#	c #60647E",
"-#	c #4B506B",
";#	c #424863",
">#	c #7C84A7",
",#	c #8A92B7",
"'#	c #A9AFCB",
")#	c #C6C9DC",
"!#	c #AEB3CD",
"~#	c #9096BB",
"{#	c #9196BB",
"]#	c #878DAF",
"^#	c #62667F",
"/#	c #4B516B",
"(#	c #444965",
"_#	c #575C78",
":#	c #7E85A6",
"<#	c #A0A6C5",
"[#	c #C4C7DB",
"}#	c #C7CADD",
"|#	c #C8CADD",
"1#	c #C8CBDD",
"2#	c #B7BAD3",
"3#	c #9398BD",
"4#	c #8A8EB0",
"5#	c #646780",
"6#	c #4C516C",
"7#	c #434864",
"8#	c #585D77",
"9#	c #7E83A5",
"0#	c #8E95BA",
"a#	c #9197BC",
"b#	c #A2A6C6",
"c#	c #C9CBDE",
"d#	c #CACCDE",
"e#	c #C4C6DB",
"f#	c #8C90B2",
"g#	c #656881",
"h#	c #4C526B",
"i#	c #5A5E78",
"j#	c #7F83A3",
"k#	c #9499BD",
"l#	c #9599BE",
"m#	c #979CBF",
"n#	c #A0A4C5",
"o#	c #A0A3C4",
"p#	c #CCCDDF",
"q#	c #BEBFD0",
"r#	c #6C6F85",
"s#	c #5C5F79",
"t#	c #7E81A0",
"u#	c #979BBF",
"v#	c #989CC0",
"w#	c #999CC0",
"x#	c #9A9DC1",
"y#	c #9B9EC1",
"z#	c #B6B7D2",
"A#	c #BFBFD0",
"B#	c #8B8C98",
"C#	c #5E6279",
"D#	c #404560",
"E#	c #5E607B",
"F#	c #7D809C",
"G#	c #9C9EC2",
"H#	c #9D9FC3",
"I#	c #9E9FC3",
"J#	c #9EA0C3",
"K#	c #9D9EBC",
"L#	c #8C8D98",
"M#	c #66697F",
"N#	c #3F445F",
"O#	c #61627C",
"P#	c #7D7E9A",
"Q#	c #9FA0C4",
"R#	c #A1A2C5",
"S#	c #9A9ABA",
"T#	c #828393",
"U#	c #666980",
"V#	c #3E435E",
"W#	c #62637D",
"X#	c #7D7D97",
"Y#	c #9696B7",
"Z#	c #828392",
"`#	c #676A80",
" $	c #65657E",
".$	c #6D6D82",
"+$	c #52576F",
"@$	c #3D425C",
"#$	c #414662",
"$$	c #3A4059",
"%$	c #3E425C",
"&$	c #393D56",
"                                                                                                ",
"                                                                                                ",
"                                                                                                ",
"                                              . +                                               ",
"                                            @ # $ %                                             ",
"                                          @ & * = - ;                                           ",
"                                        @ & > , ' ) ! ;                                         ",
"                                      ~ & { ] ^ / ( _ : ;                                       ",
"                                    ~ < [ ] } | 1 2 3 4 5 ;                                     ",
"                                  ~ < [ 6 7 8 9 9 8 0 a b 5 c                                   ",
"                                ~ d e f g h i j j i k l m n o c                                 ",
"                              ~ p q r j s t t t u v w x y z A B C                               ",
"                            ~ D q E t u v v F G H H H I J K L M N C                             ",
"                          ~ D q O F F G H H I I P Q R S T U V W X Y C                           ",
"                        Z `  ...H H I I P Q +.@.#.#.$.%.&.*.*.=.-.;.>.,.                        ",
"                      '.). ...P Q Q +.@.#.!.!.!.~.{.].^././.(._.:.<.[.}.,.                      ",
"                    '.).|...@.#.#.!.!.~.{.{.1.1.2.2.3.1.4.5.6.7.8.9.0.[.a.,.                    ",
"                  '.b.c.d.!.!.~.{.1.1.2.2.2.3.e.f.f.g.h.i.j.k.l.m.n.o.p.q.r.s.                  ",
"                '.b.c.t.{.1.1.2.2.3.e.u.f.f.v.w.w.0.x.l.y.z.A.B.C.D.D.E.F.G.H.I.                ",
"              '.J.c.t.2.2.3.e.f.f.f.v.w.w.K.K.L.L.M.N.O.P.0.D.E.F.Q.Q.R.S.T.U.V.I.              ",
"            '.J.W.X.u.f.f.f.w.w.0.K.K.L.o.p.p.Y.D.D.Z.`. +.+Q.Q.++Q.@+U.#+$+%+%+&+I.            ",
"          '.J.*+=+v.w.w.0.K.L.L.o.p.p.D.D.D.E.F.-+;+>+,+T.'+)+!+Y.~+%+%+{+]+^+/+(+_+C           ",
"        :+<+*+[+K.K.L.o.p.p.Y.D.D.D.F.F.Q.Q.Q.D.}+|+1+^+2+!+3+++4+]+^+/+5+6+7+7+8+9+0+a+        ",
"        + b+[+o.p.p.D.D.D.E.F.F.Q.Q.++++)+)+!+!+c+d+3+e+f+g+h+i+5+6+7+8+9+j+k+l+m+n+o+p+q+      ",
"          r+s+t+D.F.F.Q.Q.Q.++)+)+u+!+!+!+v+w+x+i+y+)+z+A+A+x+8+9+k+l+m+B+C+C+D+E+F+G+H+        ",
"            I+J+Q.++++)+)+u+!+!+3+3+K+L+!+M+(+5+6+7+N+O+O+A+P+m+C+C+D+Q+R+S+T+U+V+W+H+          ",
"              X+Y+Z+`+ @3+K+L+g+g+ @Z+.@A++@8+9+j+l+@@#@#@$@D+R+S+%@T+&@*@=@-@;@W+H+            ",
"                >@,@'@)@h+!@~@{@A+]@9+j+^@l+m+B+C+D+/@(@_@:@&@*@=@=@<@[@}@|@1@2@H+              ",
"                  I+3@4@5@6@9+7@8@9@B+C+C+D+Q+0@a@b@_@c@d@e@[@[@}@f@g@h@i@j@2@H+                ",
"                    k@l@m@m+B+C+D+Q+R+S+%@&@*@n@o@o@p@q@r@g@s@h@t@u@v@w@x@y@H+                  ",
"                      z@A@B@S+%@T+&@*@=@<@[@[@C@D@E@F@F@G@H@v@v@I@J@K@L@M@N@                    ",
"                        z@O@P@=@<@[@[@f@g@s@h@t@u@Q@R@S@T@J@U@V@W@X@Y@Z@N@                      ",
"                          z@`@ #g@s@t@u@H@v@v@.#J@+#@#@###$#%#&#*#=#-#N@                        ",
"                            ;#`@>#v@.#I@J@U@,#W@%#'#)#)#!#~#{#]#^#/#(#                          ",
"                              ;#_#:#V@W@$#%#&#<#[#}#|#1#2#3#4#5#6#7#                            ",
"                                a+8#9#0#~#{#a#b#c#c#d#d#e#f#g#h#;#                              ",
"                                  ;#i#j#3#k#l#m#n#o#e#p#q#r#h#I+                                ",
"                                    z@s#t#u#v#w#x#y#z#A#B#C#D#                                  ",
"                                      z@E#F#G#H#I#J#K#L#M#N#                                    ",
"                                        z@O#P#Q#R#S#T#U#V#                                      ",
"                                          z@W#X#Y#Z#`#V#                                        ",
"                                            z@ $.$+$@$                                          ",
"                                              #$$$%$                                            ",
"                                                &$                                              ",
"                                                                                                ",
"                                                                                                ",
"                                                                                                ",
"                                                                                                "};
