/* XPM */
static char * shader_xpm[] = {
"48 48 593 2",
"  	c None",
". 	c #A8A8A8",
"+ 	c #A4A4A4",
"@ 	c #A5A5A5",
"# 	c #B3B3B3",
"$ 	c #FBFBFB",
"% 	c #FFFFFF",
"& 	c #F4F4F4",
"* 	c #B0B0B0",
"= 	c #8F908F",
"- 	c #C6C6C6",
"; 	c #FCFCFC",
"> 	c #BEBEBE",
", 	c #858683",
"' 	c #CACACA",
") 	c #DCDCDC",
"! 	c #CDCDCD",
"~ 	c #5D5F5B",
"{ 	c #D2D2D2",
"] 	c #D4D4D4",
"^ 	c #BCBDBC",
"/ 	c #565754",
"( 	c #4F514E",
"_ 	c #636562",
": 	c #9B9C9A",
"< 	c #A4A5A3",
"[ 	c #939493",
"} 	c #575956",
"| 	c #3C3E3B",
"1 	c #2A2B29",
"2 	c #2B2B29",
"3 	c #2A2B2A",
"4 	c #171816",
"5 	c #161715",
"6 	c #181918",
"7 	c #141514",
"8 	c #282828",
"9 	c #3E3E3E",
"0 	c #3E3F3E",
"a 	c #3F3F3E",
"b 	c #3F3F3F",
"c 	c #202120",
"d 	c #151615",
"e 	c #292929",
"f 	c #1D1E1D",
"g 	c #717271",
"h 	c #939491",
"i 	c #8C8D8A",
"j 	c #8E8F8C",
"k 	c #90918E",
"l 	c #919390",
"m 	c #949591",
"n 	c #959693",
"o 	c #949692",
"p 	c #949592",
"q 	c #999A97",
"r 	c #2D2E2D",
"s 	c #2A2A2A",
"t 	c #5E5F5E",
"u 	c #888A86",
"v 	c #545651",
"w 	c #565854",
"x 	c #5A5C57",
"y 	c #5E605B",
"z 	c #61635F",
"A 	c #656762",
"B 	c #676964",
"C 	c #70726D",
"D 	c #828381",
"E 	c #353635",
"F 	c #262626",
"G 	c #343434",
"H 	c #434342",
"I 	c #525352",
"J 	c #5F5F5D",
"K 	c #898A87",
"L 	c #A7A9A6",
"M 	c #868984",
"N 	c #636661",
"O 	c #535550",
"P 	c #626561",
"Q 	c #7A7B79",
"R 	c #535452",
"S 	c #2C2C2C",
"T 	c #2B2B2B",
"U 	c #434343",
"V 	c #5F605D",
"W 	c #777775",
"X 	c #8C8D8B",
"Y 	c #9E9F9D",
"Z 	c #A9AAA8",
"` 	c #B4B5B2",
" .	c #9C9D9A",
"..	c #838481",
"+.	c #80817E",
"@.	c #7C7E7A",
"#.	c #787A75",
"$.	c #7C7F7A",
"%.	c #767875",
"&.	c #757773",
"*.	c #777975",
"=.	c #797B77",
"-.	c #7B7E7A",
";.	c #7D7F7C",
">.	c #80827E",
",.	c #81837F",
"'.	c #646662",
").	c #949693",
"!.	c #989996",
"~.	c #979995",
"{.	c #7F7F7C",
"].	c #595957",
"^.	c #2E2E2E",
"/.	c #535352",
"(.	c #A0A29F",
"_.	c #B5B6B3",
":.	c #B2B4B1",
"<.	c #ABACA8",
"[.	c #A3A4A0",
"}.	c #9B9D99",
"|.	c #959692",
"1.	c #8F918C",
"2.	c #898B86",
"3.	c #838580",
"4.	c #515150",
"5.	c #898989",
"6.	c #8A8A89",
"7.	c #808080",
"8.	c #565656",
"9.	c #767974",
"0.	c #A7ABA7",
"a.	c #878A85",
"b.	c #686A65",
"c.	c #747671",
"d.	c #858783",
"e.	c #8A8B88",
"f.	c #454544",
"g.	c #2D2D2B",
"h.	c #686867",
"i.	c #AAACA9",
"j.	c #B2B3B0",
"k.	c #A1A39F",
"l.	c #969893",
"m.	c #8B8D88",
"n.	c #7E7F7B",
"o.	c #6E6F6C",
"p.	c #888A85",
"q.	c #878984",
"r.	c #868882",
"s.	c #7D7E7A",
"t.	c #606060",
"u.	c #4B4B4B",
"v.	c #858884",
"w.	c #818581",
"x.	c #666864",
"y.	c #696C67",
"z.	c #6C6F6A",
"A.	c #6F716D",
"B.	c #72746F",
"C.	c #737671",
"D.	c #757772",
"E.	c #9B9E9A",
"F.	c #6C6F69",
"G.	c #6A6C67",
"H.	c #777974",
"I.	c #7B7C78",
"J.	c #2D2D2D",
"K.	c #71726E",
"L.	c #B3B5B1",
"M.	c #6C6E69",
"N.	c #50514F",
"O.	c #484947",
"P.	c #2F302E",
"Q.	c #5C5D59",
"R.	c #B2B4B0",
"S.	c #828380",
"T.	c #4B4B4A",
"U.	c #5B5B5B",
"V.	c #EFEFEF",
"W.	c #E5E5E5",
"X.	c #9CA09C",
"Y.	c #545652",
"Z.	c #606360",
"`.	c #606461",
" +	c #767873",
".+	c #8B8E8A",
"++	c #737372",
"@+	c #595959",
"#+	c #5F5F5F",
"$+	c #7B7C79",
"%+	c #979896",
"&+	c #9B9C98",
"*+	c #666863",
"=+	c #4C4D4C",
"-+	c #545552",
";+	c #959793",
">+	c #90928F",
",+	c #353633",
"'+	c #393A37",
")+	c #555554",
"!+	c #C3C3C3",
"~+	c #4C4C4C",
"{+	c #4F514D",
"]+	c #545753",
"^+	c #616768",
"/+	c #656E71",
"(+	c #616D71",
"_+	c #5A656A",
":+	c #535D62",
"<+	c #4C5559",
"[+	c #454E51",
"}+	c #484F4F",
"|+	c #515555",
"1+	c #898C87",
"2+	c #616261",
"3+	c #6C6D6A",
"4+	c #7A7B78",
"5+	c #292A29",
"6+	c #828481",
"7+	c #A9ABA8",
"8+	c #898B85",
"9+	c #757672",
"0+	c #636561",
"a+	c #6E706C",
"b+	c #8D908A",
"c+	c #ADB0AC",
"d+	c #424541",
"e+	c #363734",
"f+	c #4A4B4A",
"g+	c #464646",
"h+	c #676867",
"i+	c #4C4D49",
"j+	c #778489",
"k+	c #748186",
"l+	c #6D797E",
"m+	c #6B757A",
"n+	c #697276",
"o+	c #646C6F",
"p+	c #5C6367",
"q+	c #51585C",
"r+	c #414A4D",
"s+	c #3A4245",
"t+	c #373D40",
"u+	c #515553",
"v+	c #696B66",
"w+	c #656662",
"x+	c #797A76",
"y+	c #777876",
"z+	c #7D7E7B",
"A+	c #AFB2AE",
"B+	c #A1A3A0",
"C+	c #90928E",
"D+	c #8A8C88",
"E+	c #8A8C87",
"F+	c #868885",
"G+	c #8A8D88",
"H+	c #999B96",
"I+	c #AFB1AF",
"J+	c #555653",
"K+	c #333632",
"L+	c #3A3B37",
"M+	c #3D3E3B",
"N+	c #41423F",
"O+	c #696B68",
"P+	c #60615E",
"Q+	c #656C6F",
"R+	c #7B888E",
"S+	c #829096",
"T+	c #97A1A4",
"U+	c #A3A7A9",
"V+	c #929596",
"W+	c #7A7D7D",
"X+	c #696B6C",
"Y+	c #676969",
"Z+	c #6E7070",
"`+	c #787A7A",
" @	c #686B6C",
".@	c #454B4E",
"+@	c #31383B",
"@@	c #444949",
"#@	c #727570",
"$@	c #737570",
"%@	c #777875",
"&@	c #717270",
"*@	c #6D6F6B",
"=@	c #585A56",
"-@	c #7D7F7B",
";@	c #9FA19E",
">@	c #BBBDBA",
",@	c #B5B7B4",
"'@	c #797B78",
")@	c #434541",
"!@	c #383A36",
"~@	c #737572",
"{@	c #5E6668",
"]@	c #707D82",
"^@	c #97A2A5",
"/@	c #BDC3C5",
"(@	c #797D7F",
"_@	c #44494B",
":@	c #2E3436",
"<@	c #393E40",
"[@	c #3D4243",
"}@	c #33383A",
"|@	c #313739",
"1@	c #464A4C",
"2@	c #686A6B",
"3@	c #646769",
"4@	c #363D40",
"5@	c #424748",
"6@	c #777A75",
"7@	c #777874",
"8@	c #71716F",
"9@	c #6C6E6B",
"0@	c #555753",
"a@	c #51534F",
"b@	c #4C4E4A",
"c@	c #474945",
"d@	c #424440",
"e@	c #3D3F3B",
"f@	c #333533",
"g@	c #5B6060",
"h@	c #677378",
"i@	c #9CA3A5",
"j@	c #8E9494",
"k@	c #3B4143",
"l@	c #45494A",
"m@	c #616364",
"n@	c #727373",
"o@	c #686A6A",
"p@	c #5E6061",
"q@	c #626464",
"r@	c #6E6F6F",
"s@	c #525556",
"t@	c #434749",
"u@	c #6B6D6D",
"v@	c #3D4345",
"w@	c #4D5150",
"x@	c #757673",
"y@	c #282928",
"z@	c #565856",
"A@	c #5B6569",
"B@	c #8C9395",
"C@	c #6A6F70",
"D@	c #353B3C",
"E@	c #646666",
"F@	c #68696A",
"G@	c #484B4D",
"H@	c #303638",
"I@	c #3B4042",
"J@	c #5A5C5D",
"K@	c #6F7070",
"L@	c #3F4445",
"M@	c #343A3C",
"N@	c #666969",
"O@	c #393F42",
"P@	c #60625F",
"Q@	c #70716E",
"R@	c #3F403D",
"S@	c #4D5253",
"T@	c #72797C",
"U@	c #676C6D",
"V@	c #353B3D",
"W@	c #6C6D6E",
"X@	c #2F3537",
"Y@	c #262A2C",
"Z@	c #17191A",
"`@	c #111212",
" #	c #121212",
".#	c #171718",
"+#	c #1F2122",
"@#	c #292D2E",
"##	c #404546",
"$#	c #363B3D",
"%#	c #636567",
"&#	c #464C4C",
"*#	c #6F716C",
"=#	c #747471",
"-#	c #6C6D6B",
";#	c #3E3F3C",
">#	c #50575A",
",#	c #737678",
"'#	c #313638",
")#	c #434849",
"!#	c #2D3234",
"~#	c #131515",
"{#	c #0B0B0B",
"]#	c #080808",
"^#	c #040404",
"/#	c #020202",
"(#	c #050505",
"_#	c #0D0D0D",
":#	c #212222",
"<#	c #2B2C2C",
"[#	c #2E3335",
"}#	c #4D5254",
"|#	c #737470",
"1#	c #6A6B68",
"2#	c #3E413E",
"3#	c #666B6D",
"4#	c #3C4143",
"5#	c #2D3335",
"6#	c #0F1011",
"7#	c #0A0A0A",
"8#	c #131313",
"9#	c #0E0E0E",
"0#	c #090909",
"a#	c #0C0C0C",
"b#	c #1B1B1B",
"c#	c #363737",
"d#	c #303537",
"e#	c #535758",
"f#	c #6E7170",
"g#	c #6E706B",
"h#	c #696967",
"i#	c #3E4140",
"j#	c #5E6263",
"k#	c #1B1E1E",
"l#	c #6C6C6C",
"m#	c #6B6B6B",
"n#	c #6A6A6A",
"o#	c #1C1C1C",
"p#	c #1D1D1D",
"q#	c #181818",
"r#	c #232323",
"s#	c #3E3F40",
"t#	c #33393B",
"u#	c #696D6D",
"v#	c #9F9F9E",
"w#	c #676966",
"x#	c #404544",
"y#	c #4B4F50",
"z#	c #2B3132",
"A#	c #010101",
"B#	c #505050",
"C#	c #F3F3F3",
"D#	c #B2B2B2",
"E#	c #797979",
"F#	c #9A9A9A",
"G#	c #626262",
"H#	c #272727",
"I#	c #1F1F1F",
"J#	c #3C3D3D",
"K#	c #3A3E3F",
"L#	c #525656",
"M#	c #7D7F7D",
"N#	c #90908E",
"O#	c #6F706C",
"P#	c #656664",
"Q#	c #343532",
"R#	c #484B4B",
"S#	c #232728",
"T#	c #101010",
"U#	c #656565",
"V#	c #8C8C8C",
"W#	c #8D8D8D",
"X#	c #D7D7D7",
"Y#	c #E2E2E2",
"Z#	c #C1C1C1",
"`#	c #717171",
" $	c #414141",
".$	c #353535",
"+$	c #303030",
"@$	c #4C4D4D",
"#$	c #484C4D",
"$$	c #6D706D",
"%$	c #9A9A99",
"&$	c #636462",
"*$	c #333532",
"=$	c #4D504F",
"-$	c #1F2121",
";$	c #060606",
">$	c #686868",
",$	c #727272",
"'$	c #C5C5C5",
")$	c #E3E3E3",
"!$	c #C0C0C0",
"~$	c #868686",
"{$	c #6F6F6F",
"]$	c #424242",
"^$	c #383838",
"/$	c #5D5D5D",
"($	c #434848",
"_$	c #888988",
":$	c #6D6E6A",
"<$	c #646462",
"[$	c #6E706D",
"}$	c #484948",
"|$	c #222323",
"1$	c #070707",
"2$	c #484848",
"3$	c #767676",
"4$	c #DADADA",
"5$	c #E4E4E4",
"6$	c #9D9D9D",
"7$	c #909090",
"8$	c #4E4E4E",
"9$	c #666666",
"0$	c #44484A",
"a$	c #979796",
"b$	c #636461",
"c$	c #434542",
"d$	c #282A2A",
"e$	c #0F0F0F",
"f$	c #BABABA",
"g$	c #C9C9C9",
"h$	c #9F9F9F",
"i$	c #969696",
"j$	c #9B9B9B",
"k$	c #575757",
"l$	c #494949",
"m$	c #3B3B3B",
"n$	c #6D6D6D",
"o$	c #464A4B",
"p$	c #6B6C68",
"q$	c #616260",
"r$	c #373936",
"s$	c #40413E",
"t$	c #434440",
"u$	c #454643",
"v$	c #2E3132",
"w$	c #838383",
"x$	c #8F8F8F",
"y$	c #999999",
"z$	c #777777",
"A$	c #656767",
"B$	c #494E4D",
"C$	c #71736E",
"D$	c #666764",
"E$	c #5D5F5C",
"F$	c #70726F",
"G$	c #555654",
"H$	c #656564",
"I$	c #5C5D5B",
"J$	c #5E5F5C",
"K$	c #5F605E",
"L$	c #44494A",
"M$	c #2F3436",
"N$	c #373737",
"O$	c #1A1A1A",
"P$	c #545454",
"Q$	c #747474",
"R$	c #646464",
"S$	c #5E5E5E",
"T$	c #4F5354",
"U$	c #606260",
"V$	c #383837",
"W$	c #474746",
"X$	c #7F817D",
"Y$	c #666865",
"Z$	c #454743",
"`$	c #5A5C59",
" %	c #545554",
".%	c #333637",
"+%	c #393B3C",
"@%	c #161616",
"#%	c #252525",
"$%	c #333333",
"%%	c #4D4D4D",
"&%	c #888888",
"*%	c #4F4F4F",
"=%	c #737474",
"-%	c #444443",
";%	c #727270",
">%	c #747673",
",%	c #656764",
"'%	c #474846",
")%	c #1E1E1E",
"!%	c #515151",
"~%	c #7A7B7B",
"{%	c #414648",
"]%	c #2C3234",
"^%	c #313130",
"/%	c #454644",
"(%	c #515251",
"_%	c #484847",
":%	c #393A39",
"<%	c #272B2C",
"[%	c #32383A",
"}%	c #515252",
"|%	c #393939",
"1%	c #7C7C7C",
"2%	c #45494B",
"3%	c #2F3536",
"4%	c #444849",
"5%	c #5C5D5E",
"6%	c #7B7B7B",
"7%	c #747575",
"8%	c #5B5E5F",
"9%	c #2F3435",
"0%	c #2D3235",
"a%	c #2A3032",
"b%	c #2C3335",
"                                                                                                ",
"                                                                                                ",
"                                                                                                ",
"                                                  . + @ @ @ @ @ @ +                             ",
"                                                  # $ % % % % % % & *                           ",
"                                                = - ; ; ; ; ; ; ; ; >                           ",
"                                                , ' ) ) ) ) ) ) ) ) !                           ",
"                                                ~ { ] ] ] ] ] ] ] ] ^ /                         ",
"                                                ( _ : < < < < < < [ } (                         ",
"                                                | | | | | | | | | | | |                         ",
"                                                1 1 2             3 1 1                         ",
"                                                4 4                 5 4                         ",
"                                              6 7 8 9 9 0 a b b 9 9 c 7 d                       ",
"                                            e f g h i j k l m n o p q r d                       ",
"                                          s t : u v w x y z A B B B C D E F                     ",
"                          8 8 e e G H I J K L M N O w x y z A B B B B P Q R 8 s S S             ",
"              e e T U V W X Y Z ` `  ...+.@.#.$.%.&.*.=.-.;.>.,.,.,.,.>.'.).!.~.o {.].^.s       ",
"        8 e /...(._.:.<.[.}.|.1.2.3.4.5.6.7.8.9.0.0.0.0.0.0.0.0.0.0.0.0.a.B B B b.c.d.e.f.g.    ",
"      e h.i.j.k.l.m.n.o.=.p.p.q.r.s.t.% % & u.v.w.N x.y.z.A.B.C.C.C.C.D.E.F.B B G.*.B.H.I.J.    ",
"    e K.L.m p.p.p.M.N.O.P.Q.p.R.S.T.U.V.V.W.u.X.Y.O w x y Z.`.'.B B B B  +.+B B ++@+#+*.$+J.    ",
"    e %+&+p.p.p.p.*+R =+P.-+;+>+,+'+)+! ! !+~+A.{+]+^+/+(+_+:+<+[+}+|+'.B 1+C B 2+8.8.3+4+J.    ",
"    5+6+7+8+p.p.p.p.9+0+a+b+c+d+,+e+f+g+g+g+h+i+^+j+k+l+m+n+o+p+q+r+s+t+u+v+a.B B '.w+K.x+J.    ",
"    8 y+z+A+B+C+D+E+F+G+H+I+J+K+,+e+L+M+N+O+P+Q+R+S+T+U+V+W+X+Y+Z+`+ @.@+@@@#@$@B B B C %@J.    ",
"    e &@*@=@-@;@` >@,@k.'@)@!@K+,+e+L+M+N+~@{@]@^@/@(@_@:@<@[@[@}@|@1@2@3@4@5@6@B B B C 7@J.    ",
"    e 8@9@0@0@0@0@a@b@c@d@e@!@f@,+e+L+M+Y.g@h@i@j@k@l@m@n@o@p@q@r@r@s@}@t@u@v@w@*@B B A.x@J.    ",
"    y@8@3+0@0@0@0@a@b@c@d@e@!@K+,+e+L+M+z@A@B@C@D@E@F@G@H@:@:@:@:@I@J@K@L@M@N@O@P@B B A.9+J.    ",
"    e Q@3+0@0@0@0@a@b@c@d@e@!@K+,+e+L+R@S@T@U@V@W@s@X@Y@Z@`@ #.#+#@#:@##$#:@}@%#&#B B *#=#J.    ",
"    e -#o.0@0@0@0@a@b@c@d@e@!@K+,+e+L+;#>#,#:@'#)#!#~#{#]#^#/#(#_#:#<#[#:@:@:@<@}#*+B *#|#J.    ",
"    e 1#o.0@0@0@0@a@b@c@d@e@!@K+,+e+L+2#3#4#:@:@5#6#7#^#8#9#0#a#_#a#b#c#d#:@:@:@e#f#M.g#K.J.    ",
"    y@h#o.0@0@0@0@a@b@c@d@e@!@K+,+e+L+i#j#:@:@:@k#{#8#l#m#n#~+o#p#o#q#r#s#:@:@:@t#u#v#$@Q@J.    ",
"    5+w#9@0@0@0@0@a@b@c@d@e@!@K+,+e+L+x#y#:@:@z# #A#B#C#D#E#F#G#^.T H#I#J#K#:@:@:@L#M#N#O#J.    ",
"    5+P#o.0@0@0@0@a@b@c@d@e@!@Q#,+e+L+R#|@:@:@S#T#7#U#V#W#X#Y#Z#`# $.$S +$@$:@:@:@#$$$%$o.J.    ",
"    e &$A.0@0@0@0@a@b@c@d@e@!@*$,+e+L+=$:@:@:@-${#;$>$,$'$)$W.!$~${$]$^$^./$:@:@:@($_$e.:$J.    ",
"    e <$[$0@0@0@0@a@b@c@d@e@!@*$,+e+L+}$:@:@:@|$7#1$2$3$4$5$)$6$7$~$8$]$G 9$|@:@:@0$a$*#3+J.    ",
"    e b$o.0@0@0@0@a@b@c@d@e@!@*$,+e+L+c$:@:@:@d$e$7#b#~+f$g$h$i$j$5.k$l$m$n$:@:@:@o$b.M.p$J.    ",
"    e q$*@0@0@0@0@a@b@c@d@e@!@r$R@s$t$u$X@:@:@v$p#{#b#s ~+w$x$y$+ z$U.u.2$A$:@:@:@B$v+C$D$S     ",
"    e E$F$0@0@0@0@a@b@c@d@e@!@G$H$I$J$K$L$:@:@M$N${#O$e ^$P$3$7.Q$R$/$2$S$T$:@:@:@U$7@*@V$      ",
"    8 W$X$Y$w 0@0@a@b@c@d@Z$`$ %e 8 8 8 .%:@:@:@+%s @%#%$% $%%8.U.k$&%*%=%H@:@:@X@s e s         ",
"      8 -%;%X$>%*@x.P@z D$,%'%e I#        |@:@:@X@l$+$)%T N$ $2$u.2$!%~%{%:@:@:@]%              ",
"        e 8 ^%/%(%G$/._%:%s H#            <%:@:@:@[%}%B#.$J.$%|%2$R$1%2%:@:@:@X@                ",
"              8 8 H#8 8                     3%:@:@:@X@4%5%,$`#6%7%8%M@:@:@:@:@                  ",
"                                              9%:@:@:@:@:@X@$#|@:@:@:@:@:@X@                    ",
"                                                !#:@:@:@:@:@:@:@:@:@:@:@:@                      ",
"                                                    0%M$:@:@:@:@:@:@[#a%                        ",
"                                                            b%]%                                ",
"                                                                                                ",
"                                                                                                ",
"                                                                                                "};
