/* XPM */
static char * sound_xpm[] = {
"48 48 229 2",
"  	c None",
". 	c #A0A0A0",
"+ 	c #868686",
"@ 	c #BCBCBC",
"# 	c #9E9E9E",
"$ 	c #767576",
"% 	c #545152",
"& 	c #3D3A3B",
"* 	c #302C2E",
"= 	c #494647",
"- 	c #B8B7B7",
"; 	c #8C8A8B",
"> 	c #646263",
", 	c #474445",
"' 	c #393637",
") 	c #353232",
"! 	c #363233",
"~ 	c #3A3738",
"{ 	c #3E3A3B",
"] 	c #3B3839",
"^ 	c #524E50",
"/ 	c #A1A0A0",
"( 	c #828181",
"_ 	c #656163",
": 	c #494445",
"< 	c #383435",
"[ 	c #353132",
"} 	c #373536",
"| 	c #3B3A3A",
"1 	c #3E3B3C",
"2 	c #3F3C3D",
"3 	c #565354",
"4 	c #A2A1A1",
"5 	c #767575",
"6 	c #3D3A3A",
"7 	c #383536",
"8 	c #565454",
"9 	c #B8B6B6",
"0 	c #484546",
"a 	c #3C383A",
"b 	c #363232",
"c 	c #373234",
"d 	c #ACABAB",
"e 	c #8B898A",
"f 	c #626061",
"g 	c #464444",
"h 	c #3D393A",
"i 	c #373435",
"j 	c #3A3737",
"k 	c #C3C2C2",
"l 	c #322D2F",
"m 	c #393537",
"n 	c #373335",
"o 	c #403C3D",
"p 	c #4E4B4C",
"q 	c #706D6E",
"r 	c #929091",
"s 	c #474344",
"t 	c #C2C0C1",
"u 	c #605F60",
"v 	c #878687",
"w 	c #B1B0B0",
"x 	c #4C494A",
"y 	c #524E4F",
"z 	c #C0BFC0",
"A 	c #383637",
"B 	c #413D3E",
"C 	c #6A6868",
"D 	c #8F8F8F",
"E 	c #4A4949",
"F 	c #555253",
"G 	c #BEBBBC",
"H 	c #393536",
"I 	c #373334",
"J 	c #434041",
"K 	c #5D5B5C",
"L 	c #828182",
"M 	c #ABAAAA",
"N 	c #575454",
"O 	c #BBBABB",
"P 	c #767374",
"Q 	c #9B9999",
"R 	c #B7B6B6",
"S 	c #B7B5B6",
"T 	c #7B7A7B",
"U 	c #A4A3A4",
"V 	c #464344",
"W 	c #575455",
"X 	c #B5B3B4",
"Y 	c #2F2C2C",
"Z 	c #6C6B6C",
"` 	c #B2AFB0",
" .	c #2E2B2C",
"..	c #6B6B6B",
"+.	c #434242",
"@.	c #B0AFAF",
"#.	c #6F6E6E",
"$.	c #424041",
"%.	c #575757",
"&.	c #AFADAE",
"*.	c #706F6F",
"=.	c #3F3D3E",
"-.	c #5A595A",
";.	c #2D2A2B",
">.	c #717071",
",.	c #AAA8A8",
"'.	c #727171",
").	c #3D3C3D",
"!.	c #5B5A5A",
"~.	c #A4A2A3",
"{.	c #2C292A",
"].	c #737273",
"^.	c #3D3B3C",
"/.	c #A3A0A1",
"(.	c #777677",
"_.	c #3C3A3B",
":.	c #9E9D9E",
"<.	c #2C2729",
"[.	c #5C5A5B",
"}.	c #9E9B9C",
"|.	c #7C7B7B",
"1.	c #3A3839",
"2.	c #5E5C5D",
"3.	c #9B9899",
"4.	c #7D7C7C",
"5.	c #393738",
"6.	c #5E5D5D",
"7.	c #989697",
"8.	c #2B2728",
"9.	c #807F80",
"0.	c #373637",
"a.	c #5F5D5E",
"b.	c #959393",
"c.	c #2B2628",
"d.	c #838283",
"e.	c #363435",
"f.	c #929192",
"g.	c #838383",
"h.	c #363334",
"i.	c #908E8E",
"j.	c #868586",
"k.	c #343232",
"l.	c #5F5E5E",
"m.	c #8C898A",
"n.	c #908F8F",
"o.	c #615F60",
"p.	c #4D494A",
"q.	c #494949",
"r.	c #5C5B5C",
"s.	c #636162",
"t.	c #898788",
"u.	c #8A898A",
"v.	c #7A7678",
"w.	c #403D3D",
"x.	c #343031",
"y.	c #3C393A",
"z.	c #3C3A3A",
"A.	c #3B393A",
"B.	c #343132",
"C.	c #423F40",
"D.	c #646364",
"E.	c #878586",
"F.	c #8C8B8B",
"G.	c #575555",
"H.	c #322F30",
"I.	c #868384",
"J.	c #8E8D8D",
"K.	c #373233",
"L.	c #828081",
"M.	c #929191",
"N.	c #6C6A6B",
"O.	c #3F3D3D",
"P.	c #636263",
"Q.	c #807D7E",
"R.	c #2C2728",
"S.	c #929292",
"T.	c #373436",
"U.	c #656565",
"V.	c #646162",
"W.	c #494748",
"X.	c #656364",
"Y.	c #A9A6A7",
"Z.	c #817F80",
"`.	c #979696",
" +	c #747172",
".+	c #747374",
"++	c #5A5758",
"@+	c #333132",
"#+	c #686566",
"$+	c #656263",
"%+	c #302C2D",
"&+	c #524F50",
"*+	c #333031",
"=+	c #959494",
"-+	c #999898",
";+	c #3B3738",
">+	c #9B9A9A",
",+	c #696667",
"'+	c #312F30",
")+	c #A8A7A8",
"!+	c #322E30",
"~+	c #7A7879",
"{+	c #3B3739",
"]+	c #6B686A",
"^+	c #322D2E",
"/+	c #423E3F",
"(+	c #838282",
"_+	c #827F80",
":+	c #3E3C3D",
"<+	c #545252",
"[+	c #8F8D8D",
"}+	c #626060",
"|+	c #8D8D8D",
"1+	c #8A8788",
"2+	c #817E7F",
"3+	c #9E9C9D",
"4+	c #828080",
"5+	c #A1A0A1",
"6+	c #322E2F",
"7+	c #858383",
"8+	c #848383",
"9+	c #939393",
"0+	c #888586",
"a+	c #343032",
"b+	c #636262",
"c+	c #9E9D9D",
"d+	c #7F7E7E",
"e+	c #757575",
"f+	c #9F9E9F",
"                                                                                      . +       ",
"                                                                            @ # $ % & * =       ",
"                                                                    - ; > , ' ) ! ~ { ] ^       ",
"                                                            / ( _ : < [ } | 1 2 2 2 2 ~ 3       ",
"                                                    4 5 % 6 ) ) 7 6 2 2 2 2 2 2 2 2 2 ~ 8       ",
"                                          9 ; > 0 a b c ~ 1 2 2 2 2 2 2 2 2 2 2 2 2 2 ~ 8       ",
"                                  d e f g < ) 7 h 1 2 2 2 2 2 2 2 2 2 2 2 2 2 & ] i ! j 8       ",
"                                k l [ m 6 2 2 2 2 2 2 2 2 2 2 2 2 2 2 6 ' ) n o p q r s %       ",
"                                t j 1 2 2 2 2 2 2 2 2 2 2 2 & ~ i ) 7 s u v w         x y       ",
"                                z j 1 2 2 2 2 2 2 2 6 A ) ! B % C D -                 E F       ",
"                                G H 1 2 2 { ~ I [ i J K L M                           0 N       ",
"                                O ' 6 ! ) & F P Q R                                   0 N       ",
"                                S ! = T U                                             V W       ",
"                                X Y Z                                                 V W       ",
"                                `  ...                                                +.W       ",
"                                @. .#.                                                $.%.      ",
"                                &. .*.                                                =.-.      ",
"                                M ;.>.                                                =.-.      ",
"                                ,.;.'.                                                ).!.      ",
"                                ~.{.].                                                ^.!.      ",
"                                /.{.(.                                                _.!.      ",
"                                :.<.(.                                                | [.      ",
"                                }.<.|.                                                1.2.      ",
"                                3.<.4.                                                5.6.      ",
"                                7.8.9.                                                0.a.      ",
"                                b.c.d.                                                e.a.      ",
"                                f.8.g.                                                h.a.      ",
"                                i.c.j.                                                k.l.      ",
"                                m.c.j.                              n.o.p.s q.r.v     k.s.      ",
"                                t.c.u.                          v.w.x.H y.z.A.' B.C.[.0.D.      ",
"                                E.8.F.                        G.H.& 2 2 2 2 2 2 2 & j } D.      ",
"                                I.8.J.                      p.K.2 2 2 2 2 2 2 2 2 2 2 } D.      ",
"                                L.<.M.                    N.! O.2 2 2 2 2 2 2 2 2 2 2 } P.      ",
"                                Q.R.S.                    B.2 2 2 2 2 2 2 2 2 2 2 2 2 T.U.      ",
"                V.= C.C.W.X.Y.  Z.8.`.                   +I 2 2 2 2 2 2 2 2 2 2 2 2 2 c .+      ",
"            ++@+7 h & & h < x.#+$+%+`.                  &+~ 2 2 2 2 2 2 2 2 2 2 2 2 2 *+=+      ",
"          j 7 2 2 2 2 2 2 2 2 ' y.) -+                  p ] 2 2 2 2 2 2 2 2 2 2 2 2 y.J         ",
"        2 ;+2 2 2 2 2 2 2 2 2 2 2 B.>+                  ,+i 2 2 2 2 2 2 2 2 2 2 2 ^.'+#         ",
"      a.I 2 2 2 2 2 2 2 2 2 2 2 2 ! )+                    !+2 2 2 2 2 2 2 2 2 2 y.k.~+          ",
"      i 2 2 2 2 2 2 2 2 2 2 2 2 1 {+                      ]+^+6 2 2 2 2 2 1 ~ *+/+#             ",
"    (+) 2 2 2 2 2 2 2 2 2 2 2 2 ~ %                         _+:+B.) ! ) [ ' <+[+                ",
"    }+H 2 2 2 2 2 2 2 2 2 2 2 2 *+|+                            / 1+2+v 3+                      ",
"    o.' 2 2 2 2 2 2 2 2 2 2 2 y.C.                                                              ",
"    4+) 2 2 2 2 2 2 2 2 2 2 & K.5+                                                              ",
"      i & 2 2 2 2 2 2 2 2 & 6+7+                                                                ",
"      8+6+6 2 2 2 2 2 & I 7 9+                                                                  ",
"        0+B a+b I b [ :+b+                                                                      ",
"            c+d+e+( f+                                                                          "};
