/* XPM */
static char * tileEdit_xpm[] = {
"24 24 75 1",
" 	c None",
".	c #000000",
"+	c #494949",
"@	c #6D3100",
"#	c #150900",
"$	c #003400",
"%	c #002700",
"&	c #004A00",
"*	c #004700",
"=	c #008D00",
"-	c #005300",
";	c #008400",
">	c #006C00",
",	c #006200",
"'	c #008F00",
")	c #005D00",
"!	c #007100",
"~	c #007700",
"{	c #007600",
"]	c #007B00",
"^	c #003300",
"/	c #6C3000",
"(	c #007500",
"_	c #008900",
":	c #008E00",
"<	c #006B00",
"[	c #007900",
"}	c #006700",
"|	c #009A00",
"1	c #008200",
"2	c #007A00",
"3	c #005200",
"4	c #008B00",
"5	c #006A00",
"6	c #003F00",
"7	c #005500",
"8	c #006300",
"9	c #008700",
"0	c #008500",
"a	c #006500",
"b	c #007000",
"c	c #003900",
"d	c #007C00",
"e	c #009100",
"f	c #006F00",
"g	c #005B00",
"h	c #004000",
"i	c #008000",
"j	c #005900",
"k	c #009000",
"l	c #007D00",
"m	c #002100",
"n	c #009600",
"o	c #008800",
"p	c #005100",
"q	c #004B00",
"r	c #004100",
"s	c #006600",
"t	c #007400",
"u	c #008600",
"v	c #007300",
"w	c #007E00",
"x	c #008C00",
"y	c #009400",
"z	c #007F00",
"A	c #009700",
"B	c #007200",
"C	c #004900",
"D	c #005600",
"E	c #009C00",
"F	c #005400",
"G	c #006900",
"H	c #006800",
"I	c #004600",
"J	c #005C00",
"        .               ",
"       .+.              ",
"      .+++.             ",
"     .+++++.            ",
"      .+++++.           ",
"       .+++++.          ",
"       @#+++.           ",
"      @@ .+.$           ",
"     @@   .%&$$         ",
"    @@   $*=-;>$$       ",
"   @@  $$,')!~{]^$      ",
"  @/ $$(_:<[,}|123$$    ",
"   $$!4<56}'78$90abc$$  ",
" $$d4e3$f$g:!hiajk)ldm$ ",
"  $$kn_l$o'apaq'rsntbf$ ",
"    $-]kut$vvwxy9ozw$$  ",
"     $$tkAuga}BCD!*$    ",
"       $$bEFG]tHI$$     ",
"         $p23JG $       ",
"          $$2=$$        ",
"            $$          ",
"                        ",
"                        ",
"                        "};
